# This file uses centimeters as units for non-parametric coordinates.

mtllib 1.mtl
g default
v -1.500000 2.800000 -0.000000
v -1.306250 2.800000 -0.000000
v -0.400000 2.100000 -0.000000
v -0.400000 1.768751 -0.000000
v -1.200000 2.181251 -0.000000
v -1.200000 0.000000 -0.000000
v -1.500000 0.000000 -0.000000
v -1.200000 1.400000 -0.000000
v -1.500000 1.400000 -0.000000
v -0.950074 2.414765 -0.000000
v -0.950000 2.015179 -0.000000
v -0.950000 2.100000 -0.000000
v -1.088631 2.100000 -0.000000
v -1.200000 2.100000 -0.000000
v -1.500000 2.100000 -0.000000
v -1.225000 2.100000 -0.000000
v -1.225000 1.400000 -0.000000
v -1.224844 2.678977 -0.000000
v -1.224844 2.678977 -0.100000
v -1.225000 2.100000 -0.100000
v -1.500000 2.100000 -0.100000
v -1.200000 0.000000 -0.100000
v -1.500000 0.000000 -0.100000
v -1.500000 1.400000 -0.100000
v -0.400000 2.100000 -0.100000
v -0.400000 1.768751 -0.100000
v -0.950000 2.015179 -0.100000
v -1.225000 1.400000 -0.100000
v -0.950000 2.100000 -0.100000
v -1.088631 2.100000 -0.100000
v -1.200000 2.181251 -0.100000
v -1.200000 2.100000 -0.100000
v -1.200000 1.400000 -0.100000
v -1.500000 2.800000 -0.100000
v -1.306250 2.800000 -0.100000
v -0.950074 2.414765 -0.100000
vt 1.000000 1.000000
vt 0.823864 1.000000
vt 0.000000 0.750000
vt 0.000000 0.631697
vt 0.727273 0.779018
vt 0.727273 0.000000
vt 1.000000 0.000000
vt 0.727273 0.500000
vt 1.000000 0.500000
vt 0.500000 0.862450
vt 0.500000 0.719707
vt 0.500000 0.750000
vt 0.626028 0.750000
vt 0.727273 0.750000
vt 1.000000 0.750000
vt 0.750000 0.750000
vt 0.750000 0.500000
vt 0.750000 0.956733
vt 0.750000 0.956733
vt 0.750000 0.750000
vt 1.000000 0.750000
vt 0.727273 0.000000
vt 1.000000 0.000000
vt 1.000000 0.500000
vt 0.000000 0.750000
vt 0.000000 0.631697
vt 0.500000 0.719707
vt 0.750000 0.500000
vt 0.500000 0.750000
vt 0.626028 0.750000
vt 0.727273 0.779018
vt 0.727273 0.750000
vt 0.727273 0.500000
vt 1.000000 1.000000
vt 0.823864 1.000000
vt 0.500000 0.862450
vt 0.727273 0.000000
vt 1.000000 0.000000
vt 1.000000 0.500000
vt 0.000000 0.750000
vt 0.000000 0.631697
vt 0.500000 0.719707
vt 1.000000 0.750000
vt 0.626028 0.750000
vt 0.727273 0.779018
vt 0.727273 0.750000
vt 1.000000 1.000000
vt 0.823864 1.000000
vt 0.750000 0.956733
vt 0.727273 0.500000
vt 0.500000 0.862450
vn -0.000000 0.000000 -1.000000
vn -0.000000 -0.000000 -1.000000
vn 0.000000 0.000000 -1.000000
vn 0.000000 -0.000000 -1.000000
vn 0.000000 -0.000000 -1.000000
vn 0.000000 -0.000000 -1.000000
vn -0.000000 0.000000 -1.000000
vn -0.000000 0.000000 -1.000000
vn -0.000000 0.000000 -1.000000
vn -0.000000 0.000000 -1.000000
vn 0.000000 0.000000 -1.000000
vn 0.000000 0.000000 -1.000000
vn -0.000000 0.000000 -1.000000
vn 0.000000 0.000000 -1.000000
vn -0.000000 0.000000 -1.000000
vn 0.000000 0.000000 -1.000000
vn 0.000000 0.000000 -1.000000
vn 0.000000 0.000000 -1.000000
vn -0.000000 0.000000 1.000000
vn -0.000000 0.000000 1.000000
vn -0.000000 0.000000 1.000000
vn -0.000000 0.000000 1.000000
vn -0.000000 0.000000 1.000000
vn -0.000000 0.000000 1.000000
vn -0.000000 0.000000 1.000000
vn -0.000000 0.000000 1.000000
vn -0.000000 0.000000 1.000000
vn -0.000000 0.000000 1.000000
vn -0.000000 0.000000 1.000000
vn -0.000000 0.000000 1.000000
vn -0.000000 0.000000 1.000000
vn -0.000000 0.000000 1.000000
vn -0.000000 0.000000 1.000000
vn -0.000000 0.000000 1.000000
vn -0.000000 0.000000 1.000000
vn -0.000000 0.000000 1.000000
vn 0.000000 -1.000000 0.000000
vn 0.000000 -1.000000 0.000000
vn 0.000000 -1.000000 0.000000
vn 0.000000 -1.000000 0.000000
vn -1.000000 0.000000 0.000000
vn -1.000000 0.000000 0.000000
vn -1.000000 0.000000 0.000000
vn -1.000000 0.000000 0.000000
vn 1.000000 0.000000 0.000000
vn 1.000000 0.000000 0.000000
vn 1.000000 0.000000 0.000000
vn 1.000000 0.000000 0.000000
vn -0.408885 -0.912586 0.000002
vn -0.466348 -0.884601 -0.000000
vn -0.466348 -0.884601 -0.000000
vn -0.408885 -0.912586 0.000002
vn -1.000000 -0.000000 0.000000
vn -1.000000 -0.000000 0.000000
vn -0.556104 -0.831113 -0.000001
vn -0.556104 -0.831113 -0.000001
vn 1.000000 0.000000 -0.000001
vn 1.000000 0.000000 -0.000000
vn 1.000000 0.000000 -0.000000
vn 1.000000 0.000000 -0.000001
vn -1.000000 -0.000000 0.000000
vn -1.000000 -0.000000 0.000000
vn 0.000000 1.000000 0.000000
vn 0.000000 1.000000 0.000000
vn 0.000000 1.000000 0.000000
vn 0.000000 1.000000 0.000000
vn 0.829751 0.558134 0.000000
vn 0.765769 0.643116 0.000000
vn 0.765769 0.643116 0.000000
vn 0.829751 0.558134 0.000000
vn 1.000000 0.000000 0.000000
vn 1.000000 0.000000 0.000000
vn 1.000000 0.000000 0.000000
vn 1.000000 0.000000 0.000000
vn 0.599422 0.800434 -0.000001
vn 0.496659 0.867946 -0.000002
vn 0.496659 0.867946 -0.000002
vn 0.599422 0.800434 -0.000001
vn -0.589385 -0.807852 0.000000
vn -0.589385 -0.807852 0.000000
s 1
usemtl initialShadingGroup
f 19/18/1 20/16/2 21/15/3
f 22/37/4 23/38/5 24/39/6
f 25/40/7 26/41/8 27/42/9
f 28/17/10 24/39/6 21/43/3
f 29/12/11 27/42/9 30/44/12
f 31/45/13 32/46/14 20/16/2
f 33/8/15 28/17/10 20/16/2
f 21/43/3 34/47/16 35/48/17
f 35/48/17 19/49/1 21/43/3
f 28/17/10 33/50/15 22/37/4
f 22/37/4 24/39/6 28/17/10
f 29/12/11 36/51/18 25/40/7
f 27/42/9 29/12/11 25/40/7
f 21/43/3 20/16/2 28/17/10
f 36/51/18 29/12/11 30/44/12
f 20/16/2 19/49/1 31/45/13
f 31/45/13 19/49/1 36/51/18
f 30/44/12 31/45/13 36/51/18
f 20/16/2 32/46/14 33/50/15
s 2
f 18/19/19 15/21/20 16/20/21
f 6/22/22 9/24/23 7/23/24
f 3/25/25 11/27/26 4/26/27
f 17/28/28 15/21/20 9/24/23
f 12/29/29 13/30/30 11/27/26
f 5/31/31 16/20/21 14/32/32
f 8/33/33 16/20/21 17/28/28
f 15/21/20 2/35/34 1/34/35
f 2/35/34 15/21/20 18/19/19
f 17/28/28 6/22/22 8/33/33
f 6/22/22 17/28/28 9/24/23
f 12/29/29 3/25/25 10/36/36
f 11/27/26 3/25/25 12/29/29
f 15/21/20 17/28/28 16/20/21
f 10/36/36 13/30/30 12/29/29
f 16/20/21 5/31/31 18/19/19
f 5/31/31 10/36/36 18/19/19
f 13/30/30 10/36/36 5/31/31
f 16/20/21 8/33/33 14/32/32
s off
f 6/6/37 7/7/38 23/38/39 22/37/40
s 4
f 7/7/41 9/9/42 24/39/43 23/38/44
s off
f 3/3/45 4/4/46 26/41/47 25/40/48
s 6
f 4/4/49 11/11/50 27/42/51 26/41/52
s 4
f 9/9/42 15/15/53 21/43/54 24/39/43
s 6
f 11/11/50 13/13/55 30/44/56 27/42/51
s 7
f 5/5/57 14/14/58 32/46/59 31/45/60
s 4
f 15/15/53 1/1/61 34/47/62 21/43/54
s off
f 1/1/63 2/2/64 35/48/65 34/47/66
s 9
f 2/2/67 18/18/68 19/49/69 35/48/70
s 7
f 8/8/71 6/6/72 22/37/73 33/50/74
s 9
f 10/10/75 3/3/76 25/40/77 36/51/78
f 18/18/68 10/10/75 36/51/78 19/49/69
s 6
f 13/13/55 5/5/79 31/45/80 30/44/56
s 7
f 14/14/58 8/8/71 33/50/74 32/46/59
