# This file uses centimeters as units for non-parametric coordinates.

mtllib 4.mtl
g default
v -1.400000 0.000000 -0.000000
v -1.400000 0.700000 -0.000000
v -0.100000 0.700000 -0.000000
v -0.100000 1.000000 -0.000000
v -1.400000 2.800000 -0.000000
v -1.700000 2.800000 -0.000000
v -1.700000 1.000000 -0.000000
v -2.000000 1.000000 -0.000000
v -2.000000 0.700000 -0.000000
v -1.700000 0.700000 -0.000000
v -1.700000 0.000000 -0.000000
v -1.400000 1.000000 -0.000000
v -1.400000 2.317188 -0.000000
v -0.448438 1.000000 -0.000000
v -0.388889 1.400000 -0.000000
v -1.700000 1.400000 -0.000000
v -1.400000 1.400000 -0.000000
v -0.737406 1.400000 -0.000000
v -1.050000 0.700000 -0.000000
v -1.050000 1.000000 -0.000000
v -1.050000 2.315385 -0.000000
v -1.050000 1.832705 -0.000000
v -0.388889 1.400000 -0.100000
v -1.050000 2.315385 -0.100000
v -1.050000 1.832705 -0.100000
v -0.100000 0.700000 -0.100000
v -0.100000 1.000000 -0.100000
v -0.448438 1.000000 -0.100000
v -1.400000 1.000000 -0.100000
v -1.400000 1.400000 -0.100000
v -1.700000 1.000000 -0.100000
v -1.700000 1.400000 -0.100000
v -1.400000 2.317188 -0.100000
v -0.737406 1.400000 -0.100000
v -1.050000 1.000000 -0.100000
v -1.050000 0.700000 -0.100000
v -1.700000 0.000000 -0.100000
v -1.400000 0.000000 -0.100000
v -1.400000 0.700000 -0.100000
v -2.000000 1.000000 -0.100000
v -2.000000 0.700000 -0.100000
v -1.700000 0.700000 -0.100000
v -1.400000 2.800000 -0.100000
v -1.700000 2.800000 -0.100000
vt 0.315789 0.000000
vt 0.315789 0.250000
vt 1.000000 0.250000
vt 1.000000 0.357143
vt 0.315789 1.000000
vt 0.157895 1.000000
vt 0.157895 0.357143
vt 0.000000 0.357143
vt 0.000000 0.250000
vt 0.157895 0.250000
vt 0.157895 0.000000
vt 0.315789 0.357143
vt 0.315789 0.827567
vt 0.816611 0.357143
vt 0.847953 0.500000
vt 0.157895 0.500000
vt 0.315789 0.500000
vt 0.664523 0.500000
vt 0.500000 0.250000
vt 0.500000 0.357143
vt 0.500000 0.826923
vt 0.500000 0.654537
vt 0.847953 0.500000
vt 0.500000 0.826923
vt 0.500000 0.654537
vt 1.000000 0.250000
vt 1.000000 0.357143
vt 0.816611 0.357143
vt 0.315789 0.357143
vt 0.315789 0.500000
vt 0.157895 0.357143
vt 0.157895 0.500000
vt 0.315789 0.827567
vt 0.664523 0.500000
vt 0.500000 0.357143
vt 0.500000 0.250000
vt 0.157895 0.000000
vt 0.315789 0.000000
vt 0.315789 0.250000
vt 0.000000 0.357143
vt 0.000000 0.250000
vt 0.157895 0.250000
vt 0.315789 1.000000
vt 0.157895 1.000000
vt 0.847953 0.500000
vt 0.500000 0.826923
vt 1.000000 0.250000
vt 1.000000 0.357143
vt 0.315789 0.357143
vt 0.315789 0.500000
vt 0.315789 0.827567
vt 0.500000 0.654537
vt 0.664523 0.500000
vt 0.816611 0.357143
vt 0.500000 0.357143
vt 0.500000 0.250000
vt 0.157895 0.000000
vt 0.315789 0.000000
vt 0.315789 0.250000
vt 0.157895 0.357143
vt 0.000000 0.357143
vt 0.157895 0.500000
vt 0.000000 0.250000
vt 0.157895 0.250000
vt 0.315789 1.000000
vt 0.157895 1.000000
vn -0.000000 -0.000000 1.000000
vn -0.000000 0.000000 1.000000
vn -0.000000 0.000000 1.000000
vn -0.000000 0.000000 1.000000
vn -0.000000 -0.000000 1.000000
vn -0.000000 0.000000 1.000000
vn 0.000000 0.000000 1.000000
vn 0.000000 0.000000 1.000000
vn 0.000000 0.000000 1.000000
vn 0.000000 0.000000 1.000000
vn 0.000000 0.000000 1.000000
vn 0.000000 -0.000000 1.000000
vn 0.000000 0.000000 1.000000
vn -0.000000 0.000000 1.000000
vn 0.000000 0.000000 1.000000
vn 0.000000 0.000000 1.000000
vn 0.000000 0.000000 1.000000
vn -0.000000 0.000000 1.000000
vn 0.000000 0.000000 1.000000
vn -0.000000 0.000000 1.000000
vn -0.000000 0.000000 1.000000
vn 0.000000 0.000000 1.000000
vn 0.000000 -0.000000 -1.000000
vn 0.000000 -0.000000 -1.000000
vn 0.000000 0.000000 -1.000000
vn 0.000000 0.000000 -1.000000
vn 0.000000 -0.000000 -1.000000
vn 0.000000 -0.000000 -1.000000
vn 0.000000 0.000000 -1.000000
vn 0.000000 0.000000 -1.000000
vn 0.000000 0.000000 -1.000000
vn 0.000000 0.000000 -1.000000
vn 0.000000 0.000000 -1.000000
vn 0.000000 -0.000000 -1.000000
vn 0.000000 0.000000 -1.000000
vn 0.000000 0.000000 -1.000000
vn 0.000000 0.000000 -1.000000
vn 0.000000 0.000000 -1.000000
vn 0.000000 0.000000 -1.000000
vn 0.000000 0.000000 -1.000000
vn 0.000000 0.000000 -1.000000
vn 0.000000 0.000000 -1.000000
vn 0.000000 0.000000 -1.000000
vn 0.000000 0.000000 -1.000000
vn -0.810679 -0.585491 -0.000001
vn -0.810679 -0.585490 -0.000001
vn -0.810679 -0.585490 -0.000001
vn -0.810679 -0.585491 -0.000001
vn -1.000000 0.000000 0.000000
vn -1.000000 0.000000 0.000000
vn -1.000000 0.000000 0.000000
vn -1.000000 0.000000 0.000000
vn -1.000000 -0.000000 0.000001
vn -1.000000 -0.000000 0.000001
vn -1.000000 -0.000000 0.000001
vn -1.000000 -0.000000 0.000001
vn -1.000000 0.000000 0.000001
vn -1.000000 0.000000 0.000001
vn 0.810603 0.585596 -0.000000
vn 0.810603 0.585595 0.000000
vn 0.810603 0.585595 0.000000
vn 0.810603 0.585596 -0.000000
vn 0.810603 0.585595 0.000000
vn 0.810603 0.585595 0.000000
vn 0.000000 -1.000000 0.000000
vn 0.000000 -1.000000 0.000000
vn 0.000000 -1.000000 0.000000
vn 0.000000 -1.000000 0.000000
vn -0.000000 1.000000 -0.000001
vn -0.000000 1.000000 -0.000001
vn -0.000000 1.000000 -0.000001
vn -0.000000 1.000000 -0.000001
vn -0.810679 -0.585491 0.000000
vn -0.810679 -0.585491 0.000000
vn 0.000000 1.000000 0.000000
vn 0.000000 1.000000 0.000000
vn 0.000000 1.000000 0.000000
vn 0.000000 1.000000 0.000000
vn -1.000000 0.000000 0.000000
vn -1.000000 0.000000 0.000000
vn -1.000000 0.000000 0.000000
vn -1.000000 0.000000 0.000000
vn 0.000000 1.000000 -0.000001
vn 0.000000 1.000000 -0.000001
vn 0.000000 -1.000000 0.000000
vn 0.000000 -1.000000 0.000000
vn 0.000000 -1.000000 0.000000
vn 0.000000 -1.000000 0.000000
vn 1.000000 0.000000 0.000000
vn 1.000000 0.000000 0.000000
vn 1.000000 0.000000 0.000000
vn 1.000000 0.000000 0.000000
vn 0.000000 -1.000000 0.000000
vn 0.000000 -1.000000 0.000000
vn 1.000000 0.000000 0.000000
vn 1.000000 0.000000 0.000000
vn 1.000000 0.000000 0.000000
vn 1.000000 0.000000 0.000000
vn 0.000000 1.000000 0.000000
vn 0.000000 1.000000 0.000000
vn 0.000000 1.000000 0.000000
vn 0.000000 1.000000 0.000000
vn 1.000000 0.000000 0.000000
vn 1.000000 0.000000 0.000000
vn 1.000000 0.000000 0.000000
vn 1.000000 0.000000 0.000000
vn 0.810603 0.585596 -0.000001
vn 0.810603 0.585596 -0.000001
vn 0.000000 -1.000000 0.000001
vn 0.000000 -1.000000 0.000001
vn 0.000000 -1.000000 0.000001
vn 0.000000 -1.000000 0.000001
vn 1.000000 0.000000 0.000000
vn 1.000000 0.000000 0.000000
vn -0.810679 -0.585490 -0.000001
vn -0.810679 -0.585490 -0.000001
s 1
usemtl initialShadingGroup
f 23/45/1 24/46/2 25/22/3
f 26/47/4 27/48/5 28/14/6
f 29/49/7 30/50/8 31/7/9
f 32/16/10 30/50/8 33/51/11
f 25/52/3 34/53/12 23/45/1
f 23/45/1 34/53/12 28/54/6
f 28/54/6 35/55/13 36/19/14
f 28/54/6 36/56/14 26/47/4
f 28/54/6 27/48/5 23/45/1
f 37/57/15 38/58/16 39/59/17
f 39/59/17 36/56/14 35/55/13
f 31/60/9 40/61/18 39/59/17
f 31/60/9 39/59/17 29/49/7
f 30/50/8 32/62/10 31/60/9
f 35/55/13 29/49/7 39/59/17
f 40/61/18 41/63/19 42/64/20
f 39/59/17 40/61/18 42/64/20
f 39/59/17 42/64/20 37/57/15
f 33/51/11 25/52/3 24/46/2
f 33/51/11 43/65/21 44/66/22
f 44/66/22 32/62/10 33/51/11
f 24/46/2 43/65/21 33/51/11
s 2
f 15/23/23 22/25/24 21/24/25
f 3/26/26 14/28/27 4/27/28
f 12/29/29 7/31/30 17/30/31
f 16/32/32 13/33/33 17/30/31
f 22/25/24 15/23/23 18/34/34
f 15/23/23 14/28/27 18/34/34
f 14/28/27 19/36/35 20/35/36
f 14/28/27 3/26/26 19/36/35
f 14/28/27 15/23/23 4/27/28
f 11/37/37 2/39/38 1/38/39
f 2/39/38 20/35/36 19/36/35
f 7/31/30 2/39/38 8/40/40
f 7/31/30 12/29/29 2/39/38
f 17/30/31 7/31/30 16/32/32
f 20/35/36 2/39/38 12/29/29
f 8/40/40 10/42/41 9/41/42
f 2/39/38 10/42/41 8/40/40
f 2/39/38 11/37/37 10/42/41
f 13/33/33 21/24/25 22/25/24
f 13/33/33 6/44/43 5/43/44
f 6/44/43 13/33/33 16/32/32
f 21/24/25 13/33/33 5/43/44
s 3
f 15/15/45 21/21/46 24/46/47 23/45/48
s off
f 3/3/49 4/4/50 27/48/51 26/47/52
s 5
f 12/12/53 17/17/54 30/50/55 29/49/56
f 17/17/54 13/13/57 33/51/58 30/50/55
s 6
f 22/22/59 18/18/60 34/53/61 25/52/62
f 18/18/60 14/14/63 28/54/64 34/53/61
s 7
f 14/14/65 20/20/66 35/55/67 28/54/68
s 8
f 19/19/69 3/3/70 26/47/71 36/56/72
s 3
f 4/4/73 15/15/45 23/45/48 27/48/74
s off
f 11/11/75 1/1/76 38/58/77 37/57/78
f 1/1/79 2/2/80 39/59/81 38/58/82
s 8
f 2/2/83 19/19/69 36/56/72 39/59/84
s off
f 7/7/85 8/8/86 40/61/87 31/60/88
s 12
f 16/16/89 7/7/90 31/60/91 32/62/92
s 7
f 20/20/66 12/12/93 29/49/94 35/55/67
s off
f 8/8/95 9/9/96 41/63/97 40/61/98
f 9/9/99 10/10/100 42/64/101 41/63/102
f 10/10/103 11/11/104 37/57/105 42/64/106
s 6
f 13/13/107 22/22/59 25/52/62 33/51/108
s off
f 5/5/109 6/6/110 44/66/111 43/65/112
s 12
f 6/6/113 16/16/89 32/62/92 44/66/114
s 3
f 21/21/46 5/5/115 43/65/116 24/46/47
