# This file uses centimeters as units for non-parametric coordinates.

mtllib A_upper.mtl
g default
v -0.400000 -0.000000 -0.000000
v -0.742188 0.900000 -0.000000
v -1.957813 0.900000 -0.000000
v -2.299999 -0.000000 -0.000000
v -2.617188 -0.000000 -0.000000
v -1.551563 2.800000 -0.000000
v -1.148438 2.800000 -0.000000
v -0.082813 0.000000 -0.000000
v -1.350001 2.500000 -0.000000
v -1.843750 1.200000 -0.000000
v -0.856251 1.200000 -0.000000
v -2.084376 1.400000 -0.000000
v -0.615626 1.400000 -0.000000
v -1.767775 1.400037 -0.000000
v -0.931759 1.399982 -0.000000
v -1.666798 0.900000 -0.000000
v -1.666798 1.200000 -0.000000
v -1.666798 2.497214 -0.000000
v -1.666907 1.665615 -0.000000
v -2.084374 1.400000 -0.100000
v -1.666798 2.497214 -0.100000
v -1.666905 1.665615 -0.100000
v -1.957813 0.900000 -0.100000
v -2.299999 -0.000000 -0.100000
v -2.617188 -0.000000 -0.100000
v -0.742188 0.900000 -0.100000
v -0.856251 1.200000 -0.100000
v -0.615624 1.400000 -0.100000
v -1.551563 2.800000 -0.100000
v -1.148438 2.800000 -0.100000
v -1.349999 2.500000 -0.100000
v -1.767773 1.400037 -0.100000
v -1.843750 1.200000 -0.100000
v -1.666798 1.200000 -0.100000
v -1.666798 0.900000 -0.100000
v -0.931759 1.399982 -0.100000
v -0.082813 -0.000000 -0.100000
v -0.400000 -0.000000 -0.100000
vt 0.125154 0.000000
vt 0.260172 0.321429
vt 0.739828 0.321429
vt 0.874846 0.000000
vt 1.000000 0.000000
vt 0.579531 1.000000
vt 0.420469 1.000000
vt 0.000000 0.000000
vt 0.500000 0.892857
vt 0.694821 0.428571
vt 0.305179 0.428571
vt 0.789766 0.500000
vt 0.210234 0.500000
vt 0.664804 0.500000
vt 0.334954 0.500000
vt 0.625000 0.321429
vt 0.625000 0.428571
vt 0.625000 0.891862
vt 0.625000 0.594848
vt 0.789766 0.500000
vt 0.625000 0.891862
vt 0.625000 0.594848
vt 0.739828 0.321429
vt 0.874846 0.000000
vt 1.000000 0.000000
vt 0.260172 0.321429
vt 0.305179 0.428571
vt 0.210234 0.500000
vt 0.579531 1.000000
vt 0.420469 1.000000
vt 0.500000 0.892857
vt 0.664804 0.500000
vt 0.694821 0.428571
vt 0.625000 0.428571
vt 0.625000 0.321429
vt 0.334954 0.500000
vt 0.000000 0.000000
vt 0.125154 0.000000
vt 0.789766 0.500000
vt 0.625000 0.891862
vt 0.739828 0.321429
vt 0.874846 0.000000
vt 1.000000 0.000000
vt 0.579531 1.000000
vt 0.420469 1.000000
vt 0.625000 0.594848
vt 0.664804 0.500000
vt 0.694821 0.428571
vt 0.625000 0.428571
vt 0.625000 0.321429
vt 0.305179 0.428571
vt 0.334954 0.500000
vt 0.000000 0.000000
vt 0.125154 0.000000
vt 0.260172 0.321429
vt 0.210234 0.500000
vt 0.500000 0.892857
vn 0.000000 -0.000000 -1.000000
vn 0.000000 -0.000000 -1.000000
vn 0.000000 -0.000000 -1.000000
vn 0.000000 -0.000000 -1.000000
vn 0.000000 -0.000000 -1.000000
vn 0.000000 -0.000000 -1.000000
vn -0.000000 -0.000000 -1.000000
vn -0.000000 -0.000000 -1.000000
vn -0.000000 -0.000000 -1.000000
vn 0.000000 0.000000 -1.000000
vn -0.000000 0.000000 -1.000000
vn 0.000000 0.000000 -1.000000
vn 0.000000 0.000000 -1.000000
vn 0.000000 -0.000000 -1.000000
vn 0.000000 -0.000000 -1.000000
vn 0.000000 -0.000000 -1.000000
vn -0.000000 -0.000000 -1.000000
vn -0.000000 -0.000000 -1.000000
vn -0.000000 -0.000000 -1.000000
vn -0.000000 0.000000 1.000000
vn -0.000000 -0.000000 1.000000
vn -0.000000 -0.000000 1.000000
vn -0.000000 0.000000 1.000000
vn -0.000000 -0.000000 1.000000
vn -0.000000 -0.000000 1.000000
vn -0.000000 -0.000000 1.000000
vn -0.000000 -0.000000 1.000000
vn -0.000000 0.000000 1.000000
vn -0.000000 0.000000 1.000000
vn -0.000000 0.000000 1.000000
vn -0.000000 0.000000 1.000000
vn -0.000000 0.000000 1.000000
vn -0.000000 0.000000 1.000000
vn -0.000000 0.000000 1.000000
vn -0.000000 0.000000 1.000000
vn -0.000000 0.000000 1.000000
vn -0.000000 -0.000000 1.000000
vn -0.000000 0.000000 1.000000
vn -0.934604 0.355691 -0.000009
vn -0.934603 0.355692 -0.000005
vn -0.934603 0.355692 -0.000005
vn -0.934604 0.355691 -0.000009
vn 0.934720 -0.355386 -0.000000
vn 0.934720 -0.355386 -0.000000
vn 0.934720 -0.355386 -0.000000
vn 0.934720 -0.355386 -0.000000
vn -0.000000 -1.000000 0.000000
vn -0.000000 -1.000000 0.000000
vn -0.000000 -1.000000 0.000000
vn -0.000000 -1.000000 0.000000
vn 0.000000 1.000000 0.000000
vn 0.000000 1.000000 0.000000
vn 0.000000 1.000000 0.000000
vn 0.000000 1.000000 0.000000
vn 0.934844 -0.355060 0.000018
vn 0.934843 -0.355062 0.000013
vn 0.934843 -0.355062 0.000013
vn 0.934844 -0.355060 0.000018
vn 0.000000 1.000000 0.000000
vn 0.000000 1.000000 0.000000
vn 0.000000 1.000000 0.000000
vn 0.000000 1.000000 0.000000
vn 0.934841 -0.355065 0.000009
vn 0.934841 -0.355065 0.000009
vn -0.934603 0.355692 -0.000009
vn -0.934603 0.355692 -0.000009
vn -0.000000 -1.000000 -0.000001
vn 0.000000 -1.000000 -0.000001
vn 0.000000 -1.000000 -0.000001
vn -0.000000 -1.000000 -0.000001
vn 0.000000 1.000000 0.000000
vn 0.000000 1.000000 0.000000
vn -0.935536 -0.353230 0.000000
vn -0.935128 -0.354311 -0.000005
vn -0.935128 -0.354311 -0.000005
vn -0.935536 -0.353230 0.000000
vn -0.000000 -1.000000 0.000000
vn -0.000000 -1.000000 0.000000
vn -0.000000 -1.000000 0.000000
vn -0.000000 -1.000000 0.000000
vn -0.934719 -0.355388 0.000000
vn -0.934719 -0.355388 0.000000
vn -0.934719 -0.355388 0.000000
vn -0.934719 -0.355388 0.000000
vn 0.934604 0.355691 0.000009
vn 0.934604 0.355689 0.000009
vn 0.934604 0.355689 0.000009
vn 0.934604 0.355691 0.000009
vn -0.000000 -1.000000 0.000000
vn -0.000000 -1.000000 0.000000
vn -0.934717 -0.355392 -0.000010
vn -0.934717 -0.355392 -0.000010
vn 0.934843 -0.355061 0.000018
vn 0.934843 -0.355061 0.000018
vn -0.934603 0.355693 0.000000
vn -0.934603 0.355693 0.000000
vn 0.934603 0.355693 0.000009
vn 0.934603 0.355693 0.000009
s 1
f 20/39/1 21/40/2 22/19/3
f 23/41/4 24/42/5 25/43/6
f 26/2/7 27/11/8 28/13/9
f 29/44/10 30/45/11 31/9/12
f 22/46/3 32/47/13 20/39/1
f 33/48/14 34/49/15 35/16/16
f 20/39/1 32/47/13 33/48/14
f 20/39/1 33/48/14 23/41/4
f 23/41/4 25/43/6 20/39/1
f 35/50/16 23/41/4 33/48/14
f 35/50/16 34/49/15 27/51/8
f 27/51/8 36/52/17 28/13/9
f 37/53/18 38/54/19 26/55/7
f 28/56/9 37/53/18 26/55/7
f 27/51/8 26/55/7 35/50/16
f 28/56/9 36/52/17 31/57/12
f 31/57/12 22/46/3 21/40/2
f 31/57/12 21/40/2 29/44/10
f 31/57/12 30/45/11 28/56/9
s 2
f 12/20/20 19/22/21 18/21/22
f 3/23/23 5/25/24 4/24/25
f 2/26/26 13/28/27 11/27/28
f 6/29/29 9/31/30 7/30/31
f 19/22/21 12/20/20 14/32/32
f 10/33/33 16/35/34 17/34/35
f 12/20/20 10/33/33 14/32/32
f 12/20/20 3/23/23 10/33/33
f 3/23/23 12/20/20 5/25/24
f 16/35/34 10/33/33 3/23/23
f 16/35/34 11/27/28 17/34/35
f 11/27/28 13/28/27 15/36/36
f 8/37/37 2/26/26 1/38/38
f 13/28/27 2/26/26 8/37/37
f 11/27/28 16/35/34 2/26/26
f 13/28/27 9/31/30 15/36/36
f 9/31/30 18/21/22 19/22/21
f 9/31/30 6/29/29 18/21/22
f 9/31/30 13/28/27 7/30/31
s 3
f 12/12/39 18/18/40 21/40/41 20/39/42
s off
f 3/3/43 4/4/44 24/42/45 23/41/46
f 4/4/47 5/5/48 25/43/49 24/42/50
f 6/6/51 7/7/52 30/45/53 29/44/54
s 7
f 19/19/55 14/14/56 32/47/57 22/46/58
s 8
f 10/10/59 17/17/60 34/49/61 33/48/62
s 7
f 14/14/56 10/10/63 33/48/64 32/47/57
s 3
f 5/5/65 12/12/39 20/39/42 25/43/66
s 9
f 16/16/67 3/3/68 23/41/69 35/50/70
s 8
f 17/17/60 11/11/71 27/51/72 34/49/61
s 10
f 11/11/73 15/15/74 36/52/75 27/51/76
s off
f 8/8/77 1/1/78 38/54/79 37/53/80
f 1/1/81 2/2/82 26/55/83 38/54/84
s 13
f 13/13/85 8/8/86 37/53/87 28/56/88
s 9
f 2/2/89 16/16/67 35/50/70 26/55/90
s 10
f 15/15/74 9/9/91 31/57/92 36/52/75
s 7
f 9/9/93 19/19/55 22/46/58 31/57/94
s 3
f 18/18/40 6/6/95 29/44/96 21/40/41
s 13
f 7/7/97 13/13/85 28/56/88 30/45/98
