# This file uses centimeters as units for non-parametric coordinates.

mtllib E_UPPER.mtl
g default
v -2.400000 0.000000 -0.000000
v -2.400000 0.300000 -0.000000
v -0.600000 0.300000 -0.000000
v -0.600000 1.300000 -0.000000
v -2.200000 1.300000 -0.000000
v -2.200000 1.600000 -0.000000
v -0.600000 1.600000 -0.000000
v -0.600000 2.500000 -0.000000
v -2.300000 2.500000 -0.000000
v -2.300000 2.800000 -0.000000
v -0.300000 2.800000 -0.000000
v -0.300000 0.000000 -0.000000
v -2.200000 1.400000 -0.000000
v -0.300000 1.400000 -0.000000
v -1.350000 0.300000 -0.000000
v -1.350000 1.300000 -0.000000
v -1.350000 1.400000 -0.000000
v -1.350000 0.000000 -0.000000
v -1.350000 1.600000 -0.000000
v -1.350000 2.500000 -0.000000
v -1.350000 2.800000 -0.000000
v -2.200000 1.400000 -0.100000
v -2.200000 1.600000 -0.100000
v -1.350000 1.400000 -0.100000
v -2.400000 0.000000 -0.100000
v -2.400000 0.300000 -0.100000
v -1.350000 0.000000 -0.100000
v -0.600000 1.300000 -0.100000
v -0.300000 1.400000 -0.100000
v -0.300000 0.000000 -0.100000
v -0.600000 2.500000 -0.100000
v -1.350000 2.800000 -0.100000
v -0.300000 2.800000 -0.100000
v -1.350000 2.500000 -0.100000
v -2.300000 2.500000 -0.100000
v -2.300000 2.800000 -0.100000
v -1.350000 1.300000 -0.100000
v -2.200000 1.300000 -0.100000
v -1.350000 1.600000 -0.100000
v -1.350000 0.300000 -0.100000
v -0.600000 0.300000 -0.100000
v -0.600000 1.600000 -0.100000
vt 1.000000 0.000000
vt 1.000000 0.107143
vt 0.142857 0.107143
vt 0.142857 0.464286
vt 0.904762 0.464286
vt 0.904762 0.571429
vt 0.142857 0.571429
vt 0.142857 0.892857
vt 0.952381 0.892857
vt 0.952381 1.000000
vt 0.000000 1.000000
vt 0.000000 0.000000
vt 0.904762 0.500000
vt 0.000000 0.500000
vt 0.500000 0.107143
vt 0.500000 0.464286
vt 0.500000 0.500000
vt 0.500000 0.000000
vt 0.500000 0.571429
vt 0.500000 0.892857
vt 0.500000 1.000000
vt 0.904762 0.500000
vt 0.904762 0.571429
vt 0.500000 0.500000
vt 1.000000 0.000000
vt 1.000000 0.107143
vt 0.500000 0.000000
vt 0.142857 0.464286
vt 0.000000 0.500000
vt 0.000000 0.000000
vt 0.142857 0.892857
vt 0.500000 1.000000
vt 0.000000 1.000000
vt 0.500000 0.892857
vt 0.952381 0.892857
vt 0.952381 1.000000
vt 0.500000 0.464286
vt 0.904762 0.464286
vt 0.500000 0.571429
vt 0.500000 0.107143
vt 0.142857 0.107143
vt 0.142857 0.571429
vt 0.904762 0.500000
vt 0.904762 0.571429
vt 1.000000 0.000000
vt 1.000000 0.107143
vt 0.500000 0.000000
vt 0.000000 0.500000
vt 0.000000 0.000000
vt 0.500000 1.000000
vt 0.000000 1.000000
vt 0.500000 0.892857
vt 0.952381 0.892857
vt 0.952381 1.000000
vt 0.500000 0.464286
vt 0.904762 0.464286
vt 0.500000 0.571429
vt 0.500000 0.107143
vt 0.142857 0.464286
vt 0.142857 0.107143
vt 0.142857 0.571429
vt 0.142857 0.892857
vn 0.000000 0.000000 -1.000000
vn -0.000000 -0.000000 -1.000000
vn -0.000000 -0.000000 -1.000000
vn -0.000000 0.000000 -1.000000
vn -0.000000 0.000000 -1.000000
vn -0.000000 0.000000 -1.000000
vn -0.000000 0.000000 -1.000000
vn -0.000000 -0.000000 -1.000000
vn -0.000000 0.000000 -1.000000
vn -0.000000 0.000000 -1.000000
vn -0.000000 0.000000 -1.000000
vn -0.000000 0.000000 -1.000000
vn -0.000000 0.000000 -1.000000
vn 0.000000 0.000000 -1.000000
vn 0.000000 0.000000 -1.000000
vn 0.000000 0.000000 -1.000000
vn 0.000000 0.000000 -1.000000
vn -0.000000 -0.000000 -1.000000
vn 0.000000 0.000000 -1.000000
vn -0.000000 0.000000 -1.000000
vn -0.000000 -0.000000 -1.000000
vn -0.000000 0.000000 1.000000
vn -0.000000 -0.000000 1.000000
vn -0.000000 0.000000 1.000000
vn -0.000000 0.000000 1.000000
vn -0.000000 0.000000 1.000000
vn -0.000000 0.000000 1.000000
vn -0.000000 -0.000000 1.000000
vn -0.000000 0.000000 1.000000
vn -0.000000 -0.000000 1.000000
vn -0.000000 -0.000000 1.000000
vn -0.000000 -0.000000 1.000000
vn -0.000000 -0.000000 1.000000
vn -0.000000 0.000000 1.000000
vn -0.000000 0.000000 1.000000
vn -0.000000 0.000000 1.000000
vn -0.000000 0.000000 1.000000
vn -0.000000 0.000000 1.000000
vn -0.000000 0.000000 1.000000
vn -0.000000 0.000000 1.000000
vn -0.000000 0.000000 1.000000
vn -0.000000 0.000000 1.000000
vn -1.000000 0.000000 0.000000
vn -1.000000 0.000000 0.000000
vn -1.000000 0.000000 0.000000
vn -1.000000 0.000000 0.000000
vn -1.000000 0.000000 0.000000
vn -1.000000 0.000000 0.000000
vn -1.000000 0.000000 0.000000
vn -1.000000 0.000000 0.000000
vn -0.000000 -1.000000 -0.000000
vn 0.000000 -1.000000 0.000000
vn 0.000000 -1.000000 0.000000
vn -0.000000 -1.000000 -0.000000
vn 1.000000 0.000000 -0.000000
vn 1.000000 0.000000 0.000000
vn 1.000000 0.000000 0.000000
vn 1.000000 0.000000 -0.000000
vn 0.000000 1.000000 0.000001
vn 0.000000 1.000000 0.000002
vn 0.000000 1.000000 0.000002
vn 0.000000 1.000000 0.000001
vn 0.000000 -1.000000 0.000000
vn 0.000000 -1.000000 0.000000
vn 0.000000 -1.000000 0.000000
vn 0.000000 -1.000000 0.000000
vn -1.000000 0.000000 0.000000
vn -1.000000 0.000000 0.000000
vn -1.000000 0.000000 0.000000
vn -1.000000 0.000000 0.000000
vn 0.000000 -1.000000 0.000000
vn 0.000000 -1.000000 0.000000
vn 0.000000 -1.000000 0.000000
vn 0.000000 -1.000000 0.000000
vn -1.000000 0.000000 0.000000
vn -1.000000 0.000000 0.000000
vn 0.000000 1.000000 0.000000
vn 0.000000 1.000000 0.000000
vn 0.000000 1.000000 0.000000
vn 0.000000 1.000000 0.000000
vn 0.000000 1.000000 0.000000
vn 0.000000 1.000000 0.000000
vn 0.000000 1.000000 0.000000
vn 0.000000 1.000000 0.000000
vn 0.000000 -1.000000 0.000000
vn 0.000000 -1.000000 0.000000
vn 0.000000 1.000000 0.000000
vn 0.000000 1.000000 0.000000
vn -0.000000 -1.000000 -0.000000
vn -0.000000 -1.000000 -0.000000
vn -1.000000 0.000000 0.000000
vn -1.000000 0.000000 0.000000
vn -1.000000 0.000000 0.000000
vn -1.000000 0.000000 0.000000
vn 0.000000 1.000000 0.000000
vn 0.000000 1.000000 0.000000
vn 0.000000 -1.000000 0.000000
vn 0.000000 -1.000000 0.000000
vn 1.000000 0.000000 -0.000000
vn 1.000000 0.000000 -0.000000
vn -1.000000 0.000000 0.000000
vn -1.000000 0.000000 0.000000
vn -1.000000 0.000000 0.000000
vn -1.000000 0.000000 0.000000
vn 0.000000 1.000000 0.000000
vn 0.000000 1.000000 0.000000
s 1
f 22/43/1 23/44/2 24/17/3
f 25/45/4 26/46/5 27/47/6
f 28/4/7 29/48/8 30/49/9
f 31/8/10 32/50/11 33/51/12
f 34/52/13 35/53/14 36/54/15
f 37/55/16 38/56/17 22/43/1
f 23/44/2 39/57/18 24/17/3
f 26/46/5 40/58/19 27/47/6
f 28/59/7 37/55/16 24/17/3
f 27/47/6 40/58/19 41/60/20
f 30/49/9 27/47/6 41/60/20
f 41/60/20 28/59/7 30/49/9
f 24/17/3 29/48/8 28/59/7
f 24/17/3 39/57/18 42/61/21
f 31/62/10 34/52/13 32/50/11
f 33/51/12 29/48/8 42/61/21
f 33/51/12 42/61/21 31/62/10
f 42/61/21 29/48/8 24/17/3
f 36/54/15 32/50/11 34/52/13
f 22/43/1 24/17/3 37/55/16
s 2
f 13/22/22 17/24/23 6/23/24
f 1/25/25 18/27/26 2/26/27
f 4/28/28 12/30/29 14/29/30
f 8/31/31 11/33/32 21/32/33
f 20/34/34 10/36/35 9/35/36
f 16/37/37 13/22/22 5/38/38
f 6/23/24 17/24/23 19/39/39
f 2/26/27 18/27/26 15/40/40
f 4/28/28 17/24/23 16/37/37
f 18/27/26 3/41/41 15/40/40
f 12/30/29 3/41/41 18/27/26
f 3/41/41 12/30/29 4/28/28
f 17/24/23 4/28/28 14/29/30
f 17/24/23 7/42/42 19/39/39
f 8/31/31 21/32/33 20/34/34
f 11/33/32 7/42/42 14/29/30
f 11/33/32 8/31/31 7/42/42
f 7/42/42 17/24/23 14/29/30
f 10/36/35 20/34/34 21/32/33
f 13/22/22 16/37/37 17/24/23
s 3
f 13/13/43 6/6/44 23/44/45 22/43/46
s off
f 1/1/47 2/2/48 26/46/49 25/45/50
s 5
f 18/18/51 1/1/52 25/45/53 27/47/54
s 6
f 14/14/55 12/12/56 30/49/57 29/48/58
s 7
f 21/21/59 11/11/60 33/51/61 32/50/62
s 8
f 20/20/63 9/9/64 35/53/65 34/52/66
s off
f 9/9/67 10/10/68 36/54/69 35/53/70
s 10
f 16/16/71 5/5/72 38/56/73 37/55/74
s 3
f 5/5/75 13/13/43 22/43/46 38/56/76
s 11
f 6/6/77 19/19/78 39/57/79 23/44/80
s 12
f 2/2/81 15/15/82 40/58/83 26/46/84
s 10
f 4/4/85 16/16/71 37/55/74 28/59/86
s 12
f 15/15/82 3/3/87 41/60/88 40/58/83
s 5
f 12/12/89 18/18/51 27/47/54 30/49/90
s off
f 3/3/91 4/4/92 28/59/93 41/60/94
s 11
f 19/19/78 7/7/95 42/61/96 39/57/79
s 8
f 8/8/97 20/20/63 34/52/66 31/62/98
s 6
f 11/11/99 14/14/55 29/48/58 33/51/100
s off
f 7/7/101 8/8/102 31/62/103 42/61/104
s 7
f 10/10/105 21/21/59 32/50/62 36/54/106
