# This file uses centimeters as units for non-parametric coordinates.

mtllib F_UPPER.mtl
g default
v -0.600000 0.000000 -0.000000
v -0.600000 1.300000 -0.000000
v -2.000000 1.300000 -0.000000
v -2.000000 1.600000 -0.000000
v -0.600000 1.600000 -0.000000
v -0.600000 2.500000 -0.000000
v -2.200000 2.500000 -0.000000
v -2.200000 2.800000 -0.000000
v -0.300000 2.800000 -0.000000
v -0.300000 0.000000 -0.000000
v -2.000000 1.400000 -0.000000
v -0.300000 1.400000 -0.000000
v -1.250000 1.300000 -0.000000
v -1.250000 1.400000 -0.000000
v -1.250000 1.600000 -0.000000
v -1.250000 2.500000 -0.000000
v -1.250000 2.800000 -0.000000
v -2.000000 1.400000 -0.100000
v -2.000000 1.600000 -0.100000
v -1.250000 1.400000 -0.100000
v -1.250000 1.300000 -0.100000
v -2.000000 1.300000 -0.100000
v -0.600000 1.300000 -0.100000
v -0.300000 1.400000 -0.100000
v -0.600000 2.500000 -0.100000
v -1.250000 2.800000 -0.100000
v -0.300000 2.800000 -0.100000
v -1.250000 2.500000 -0.100000
v -2.200000 2.500000 -0.100000
v -2.200000 2.800000 -0.100000
v -1.250000 1.600000 -0.100000
v -0.300000 0.000000 -0.100000
v -0.600000 0.000000 -0.100000
v -0.600000 1.600000 -0.100000
vt 0.157895 0.000000
vt 0.157895 0.464286
vt 0.894737 0.464286
vt 0.894737 0.571429
vt 0.157895 0.571429
vt 0.157895 0.892857
vt 1.000000 0.892857
vt 1.000000 1.000000
vt 0.000000 1.000000
vt 0.000000 0.000000
vt 0.894737 0.500000
vt 0.000000 0.500000
vt 0.500000 0.464286
vt 0.500000 0.500000
vt 0.500000 0.571429
vt 0.500000 0.892857
vt 0.500000 1.000000
vt 0.894737 0.500000
vt 0.894737 0.571429
vt 0.500000 0.500000
vt 0.500000 0.464286
vt 0.894737 0.464286
vt 0.157895 0.464286
vt 0.000000 0.500000
vt 0.157895 0.892857
vt 0.500000 1.000000
vt 0.000000 1.000000
vt 0.500000 0.892857
vt 1.000000 0.892857
vt 1.000000 1.000000
vt 0.500000 0.571429
vt 0.000000 0.000000
vt 0.157895 0.000000
vt 0.157895 0.571429
vt 0.894737 0.500000
vt 0.894737 0.571429
vt 0.500000 0.464286
vt 0.894737 0.464286
vt 0.500000 1.000000
vt 0.000000 1.000000
vt 0.500000 0.892857
vt 1.000000 0.892857
vt 1.000000 1.000000
vt 0.500000 0.571429
vt 0.157895 0.464286
vt 0.000000 0.000000
vt 0.157895 0.000000
vt 0.000000 0.500000
vt 0.157895 0.571429
vt 0.157895 0.892857
vn 0.000000 -0.000000 -1.000000
vn 0.000000 -0.000000 -1.000000
vn 0.000000 -0.000000 -1.000000
vn 0.000000 -0.000000 -1.000000
vn 0.000000 -0.000000 -1.000000
vn -0.000000 -0.000000 -1.000000
vn -0.000000 -0.000000 -1.000000
vn -0.000000 0.000000 -1.000000
vn 0.000000 0.000000 -1.000000
vn -0.000000 0.000000 -1.000000
vn -0.000000 0.000000 -1.000000
vn -0.000000 0.000000 -1.000000
vn -0.000000 0.000000 -1.000000
vn 0.000000 -0.000000 -1.000000
vn -0.000000 -0.000000 -1.000000
vn -0.000000 -0.000000 -1.000000
vn -0.000000 -0.000000 -1.000000
vn -0.000000 0.000000 1.000000
vn -0.000000 0.000000 1.000000
vn -0.000000 0.000000 1.000000
vn -0.000000 0.000000 1.000000
vn -0.000000 0.000000 1.000000
vn -0.000000 0.000000 1.000000
vn -0.000000 0.000000 1.000000
vn -0.000000 0.000000 1.000000
vn -0.000000 0.000000 1.000000
vn -0.000000 0.000000 1.000000
vn -0.000000 0.000000 1.000000
vn -0.000000 0.000000 1.000000
vn -0.000000 0.000000 1.000000
vn -0.000000 0.000000 1.000000
vn -0.000000 0.000000 1.000000
vn -0.000000 0.000000 1.000000
vn -0.000000 0.000000 1.000000
vn -1.000000 0.000000 0.000000
vn -1.000000 0.000000 0.000000
vn -1.000000 0.000000 0.000000
vn -1.000000 0.000000 0.000000
vn 0.000000 -1.000000 -0.000000
vn 0.000000 -1.000000 0.000000
vn 0.000000 -1.000000 0.000000
vn 0.000000 -1.000000 -0.000000
vn -1.000000 0.000000 0.000000
vn -1.000000 0.000000 0.000000
vn 0.000000 1.000000 0.000003
vn 0.000000 1.000000 0.000004
vn 0.000000 1.000000 0.000004
vn 0.000000 1.000000 0.000003
vn 0.000000 -1.000000 0.000000
vn 0.000000 -1.000000 0.000000
vn 0.000000 -1.000000 0.000000
vn 0.000000 -1.000000 0.000000
vn -1.000000 0.000000 0.000000
vn -1.000000 0.000000 0.000000
vn -1.000000 0.000000 0.000000
vn -1.000000 0.000000 0.000000
vn 0.000000 1.000000 0.000000
vn 0.000000 1.000000 0.000000
vn 0.000000 1.000000 0.000000
vn 0.000000 1.000000 0.000000
vn 0.000000 -1.000000 -0.000000
vn 0.000000 -1.000000 -0.000000
vn 0.000000 -1.000000 0.000000
vn 0.000000 -1.000000 0.000000
vn 0.000000 -1.000000 0.000000
vn 0.000000 -1.000000 0.000000
vn -1.000000 0.000000 0.000000
vn -1.000000 0.000000 0.000000
vn -1.000000 0.000000 0.000000
vn -1.000000 0.000000 0.000000
vn 1.000000 0.000000 0.000000
vn 1.000000 0.000000 0.000000
vn 1.000000 0.000000 0.000000
vn 1.000000 0.000000 0.000000
vn 0.000000 1.000000 0.000000
vn 0.000000 1.000000 0.000000
vn 0.000000 -1.000000 0.000000
vn 0.000000 -1.000000 0.000000
vn 1.000000 0.000000 0.000000
vn 1.000000 0.000000 0.000000
vn -1.000000 -0.000000 0.000000
vn -1.000000 -0.000000 0.000000
vn -1.000000 -0.000000 0.000000
vn -1.000000 -0.000000 0.000000
vn 0.000000 1.000000 0.000003
vn 0.000000 1.000000 0.000003
s 1
f 18/35/1 19/36/2 20/14/3
f 21/37/4 22/38/5 18/35/1
f 23/2/6 20/14/3 24/12/7
f 25/6/8 26/39/9 27/40/10
f 28/41/11 29/42/12 30/43/13
f 19/36/2 31/44/14 20/14/3
f 18/35/1 20/14/3 21/37/4
f 23/45/6 21/37/4 20/14/3
f 32/46/15 33/47/16 23/45/6
f 23/45/6 24/48/7 32/46/15
f 20/14/3 31/44/14 34/49/17
f 25/50/8 28/41/11 26/39/9
f 27/40/10 24/48/7 34/49/17
f 27/40/10 34/49/17 25/50/8
f 34/49/17 24/48/7 20/14/3
f 30/43/13 26/39/9 28/41/11
s 2
f 11/18/18 14/20/19 4/19/20
f 13/21/21 11/18/18 3/22/22
f 2/23/23 12/24/24 14/20/19
f 6/25/25 9/27/26 17/26/27
f 16/28/28 8/30/29 7/29/30
f 4/19/20 14/20/19 15/31/31
f 11/18/18 13/21/21 14/20/19
f 2/23/23 14/20/19 13/21/21
f 10/32/32 2/23/23 1/33/33
f 2/23/23 10/32/32 12/24/24
f 14/20/19 5/34/34 15/31/31
f 6/25/25 17/26/27 16/28/28
f 9/27/26 5/34/34 12/24/24
f 9/27/26 6/25/25 5/34/34
f 5/34/34 14/20/19 12/24/24
f 8/30/29 16/28/28 17/26/27
s 3
f 11/11/35 4/4/36 19/36/37 18/35/38
s 4
f 13/13/39 3/3/40 22/38/41 21/37/42
s 3
f 3/3/43 11/11/35 18/35/38 22/38/44
s 5
f 17/17/45 9/9/46 27/40/47 26/39/48
s 6
f 16/16/49 7/7/50 29/42/51 28/41/52
s off
f 7/7/53 8/8/54 30/43/55 29/42/56
s 8
f 4/4/57 15/15/58 31/44/59 19/36/60
s 4
f 2/2/61 13/13/39 21/37/42 23/45/62
s off
f 10/10/63 1/1/64 33/47/65 32/46/66
f 1/1/67 2/2/68 23/45/69 33/47/70
s 11
f 12/12/71 10/10/72 32/46/73 24/48/74
s 8
f 15/15/58 5/5/75 34/49/76 31/44/59
s 6
f 6/6/77 16/16/49 28/41/52 25/50/78
s 11
f 9/9/79 12/12/71 24/48/74 27/40/80
s off
f 5/5/81 6/6/82 25/50/83 34/49/84
s 5
f 8/8/85 17/17/45 26/39/48 30/43/86
