# This file uses centimeters as units for non-parametric coordinates.

mtllib H_UPPER.mtl
g default
v -0.600000 -0.000000 -0.000000
v -0.600000 1.300000 -0.000000
v -2.200000 1.300000 -0.000000
v -2.200000 -0.000000 -0.000000
v -2.500000 -0.000000 -0.000000
v -2.500000 2.800000 -0.000000
v -2.200000 2.800000 -0.000000
v -2.200000 1.600000 -0.000000
v -0.600000 1.600000 -0.000000
v -0.600000 2.800000 -0.000000
v -0.300000 2.800000 -0.000000
v -0.300000 -0.000000 -0.000000
v -2.500000 1.400000 -0.000000
v -0.300000 1.400000 -0.000000
v -1.400000 1.300000 -0.000000
v -1.400000 1.400000 -0.000000
v -1.400000 1.600000 -0.000000
v -2.500000 2.800000 -0.100000
v -2.200000 2.800000 -0.100000
v -2.200000 1.600000 -0.100000
v -2.200000 1.300000 -0.100000
v -2.200000 -0.000000 -0.100000
v -2.500000 -0.000000 -0.100000
v -0.600000 1.300000 -0.100000
v -1.400000 1.400000 -0.100000
v -0.300000 1.400000 -0.100000
v -0.600000 1.600000 -0.100000
v -0.600000 2.800000 -0.100000
v -0.300000 2.800000 -0.100000
v -1.400000 1.600000 -0.100000
v -2.500000 1.400000 -0.100000
v -1.400000 1.300000 -0.100000
v -0.300000 -0.000000 -0.100000
v -0.600000 -0.000000 -0.100000
vt 0.136364 0.000000
vt 0.136364 0.464286
vt 0.863636 0.464286
vt 0.863636 0.000000
vt 1.000000 0.000000
vt 1.000000 1.000000
vt 0.863636 1.000000
vt 0.863636 0.571429
vt 0.136364 0.571429
vt 0.136364 1.000000
vt 0.000000 1.000000
vt 0.000000 0.000000
vt 1.000000 0.500000
vt 0.000000 0.500000
vt 0.500000 0.464286
vt 0.500000 0.500000
vt 0.500000 0.571429
vt 1.000000 1.000000
vt 0.863636 1.000000
vt 0.863636 0.571429
vt 0.863636 0.464286
vt 0.863636 0.000000
vt 1.000000 0.000000
vt 0.136364 0.464286
vt 0.500000 0.500000
vt 0.000000 0.500000
vt 0.136364 0.571429
vt 0.136364 1.000000
vt 0.000000 1.000000
vt 0.500000 0.571429
vt 1.000000 0.500000
vt 0.500000 0.464286
vt 0.000000 0.000000
vt 0.136364 0.000000
vt 1.000000 1.000000
vt 0.863636 1.000000
vt 0.863636 0.571429
vt 0.863636 0.464286
vt 0.863636 0.000000
vt 1.000000 0.000000
vt 0.136364 0.571429
vt 0.136364 1.000000
vt 0.000000 1.000000
vt 0.500000 0.571429
vt 1.000000 0.500000
vt 0.500000 0.464286
vt 0.136364 0.464286
vt 0.000000 0.000000
vt 0.136364 0.000000
vt 0.000000 0.500000
vn 0.000000 0.000000 -1.000000
vn 0.000000 0.000000 -1.000000
vn 0.000000 0.000000 -1.000000
vn 0.000000 0.000000 -1.000000
vn 0.000000 0.000000 -1.000000
vn 0.000000 0.000000 -1.000000
vn -0.000000 -0.000000 -1.000000
vn -0.000000 -0.000000 -1.000000
vn -0.000000 -0.000000 -1.000000
vn -0.000000 0.000000 -1.000000
vn 0.000000 0.000000 -1.000000
vn -0.000000 0.000000 -1.000000
vn 0.000000 0.000000 -1.000000
vn 0.000000 0.000000 -1.000000
vn 0.000000 0.000000 -1.000000
vn -0.000000 0.000000 -1.000000
vn -0.000000 0.000000 -1.000000
vn -0.000000 0.000000 1.000000
vn -0.000000 0.000000 1.000000
vn -0.000000 0.000000 1.000000
vn -0.000000 -0.000000 1.000000
vn -0.000000 0.000000 1.000000
vn -0.000000 0.000000 1.000000
vn -0.000000 0.000000 1.000000
vn -0.000000 0.000000 1.000000
vn -0.000000 -0.000000 1.000000
vn -0.000000 0.000000 1.000000
vn -0.000000 0.000000 1.000000
vn -0.000000 0.000000 1.000000
vn -0.000000 0.000000 1.000000
vn -0.000000 -0.000000 1.000000
vn -0.000000 0.000000 1.000000
vn -0.000000 0.000000 1.000000
vn -0.000000 0.000000 1.000000
vn 0.000000 1.000000 0.000000
vn 0.000000 1.000000 0.000000
vn 0.000000 1.000000 0.000000
vn 0.000000 1.000000 0.000000
vn 1.000000 0.000000 0.000000
vn 1.000000 0.000000 0.000000
vn 1.000000 0.000000 0.000000
vn 1.000000 0.000000 0.000000
vn 1.000000 0.000000 0.000000
vn 1.000000 0.000000 0.000000
vn 1.000000 0.000000 0.000000
vn 1.000000 0.000000 0.000000
vn 0.000000 -1.000000 0.000000
vn 0.000000 -1.000000 0.000000
vn 0.000000 -1.000000 0.000000
vn 0.000000 -1.000000 0.000000
vn -1.000000 0.000000 0.000000
vn -1.000000 0.000000 0.000000
vn -1.000000 0.000000 0.000000
vn -1.000000 0.000000 0.000000
vn 0.000000 1.000000 0.000000
vn 0.000000 1.000000 0.000000
vn 0.000000 1.000000 0.000000
vn 0.000000 1.000000 0.000000
vn 0.000000 1.000000 0.000000
vn 0.000000 1.000000 -0.000000
vn 0.000000 1.000000 -0.000000
vn 0.000000 1.000000 0.000000
vn -1.000000 0.000000 0.000000
vn -1.000000 0.000000 0.000000
vn -1.000000 0.000000 0.000000
vn -1.000000 0.000000 0.000000
vn 0.000000 -1.000000 0.000000
vn 0.000000 -1.000000 0.000000
vn 0.000000 -1.000000 0.000000
vn 0.000000 -1.000000 0.000000
vn -1.000000 0.000000 0.000000
vn -1.000000 0.000000 0.000000
vn 0.000000 -1.000000 0.000000
vn 0.000000 -1.000000 0.000000
vn 0.000000 -1.000000 0.000000
vn 0.000000 -1.000000 0.000000
vn 0.000000 -1.000000 0.000000
vn 0.000000 -1.000000 0.000000
vn -1.000000 0.000000 0.000000
vn -1.000000 0.000000 0.000000
vn -1.000000 0.000000 0.000000
vn -1.000000 0.000000 0.000000
vn 1.000000 0.000000 0.000000
vn 1.000000 0.000000 0.000000
vn 1.000000 0.000000 0.000000
vn 1.000000 0.000000 0.000000
vn 0.000000 1.000000 -0.000001
vn 0.000000 1.000000 -0.000001
vn 1.000000 0.000000 0.000000
vn 1.000000 0.000000 0.000000
s 1
f 18/35/1 19/36/2 20/37/3
f 21/38/4 22/39/5 23/40/6
f 24/2/7 25/16/8 26/14/9
f 27/41/10 28/42/11 29/43/12
f 20/37/3 30/44/13 25/16/8
f 20/37/3 25/16/8 31/13/14
f 20/37/3 31/45/14 18/35/1
f 25/16/8 32/46/15 21/38/4
f 31/45/14 25/16/8 21/38/4
f 23/40/6 31/45/14 21/38/4
f 24/47/7 32/46/15 25/16/8
f 33/48/16 34/49/17 24/47/7
f 24/47/7 26/50/9 33/48/16
f 25/16/8 30/44/13 27/41/10
f 26/50/9 25/16/8 27/41/10
f 29/43/12 26/50/9 27/41/10
s 2
f 6/18/18 8/20/19 7/19/20
f 3/21/21 5/23/22 4/22/23
f 2/24/24 14/26/25 16/25/26
f 9/27/27 11/29/28 10/28/29
f 8/20/19 16/25/26 17/30/30
f 8/20/19 13/31/31 16/25/26
f 8/20/19 6/18/18 13/31/31
f 16/25/26 3/21/21 15/32/32
f 13/31/31 3/21/21 16/25/26
f 5/23/22 3/21/21 13/31/31
f 2/24/24 16/25/26 15/32/32
f 12/33/33 2/24/24 1/34/34
f 2/24/24 12/33/33 14/26/25
f 16/25/26 9/27/27 17/30/30
f 14/26/25 9/27/27 16/25/26
f 11/29/28 9/27/27 14/26/25
s off
f 6/6/35 7/7/36 19/36/37 18/35/38
f 7/7/39 8/8/40 20/37/41 19/36/42
f 3/3/43 4/4/44 22/39/45 21/38/46
f 4/4/47 5/5/48 23/40/49 22/39/50
f 9/9/51 10/10/52 28/42/53 27/41/54
f 10/10/55 11/11/56 29/43/57 28/42/58
s 9
f 8/8/59 17/17/60 30/44/61 20/37/62
s 10
f 13/13/63 6/6/64 18/35/65 31/45/66
s 11
f 15/15/67 3/3/68 21/38/69 32/46/70
s 10
f 5/5/71 13/13/63 31/45/66 23/40/72
s 11
f 2/2/73 15/15/67 32/46/70 24/47/74
s off
f 12/12/75 1/1/76 34/49/77 33/48/78
f 1/1/79 2/2/80 24/47/81 34/49/82
s 14
f 14/14/83 12/12/84 33/48/85 26/50/86
s 9
f 17/17/60 9/9/87 27/41/88 30/44/61
s 14
f 11/11/89 14/14/83 26/50/86 29/43/90
