# This file uses centimeters as units for non-parametric coordinates.

mtllib i_lower.mtl
g default
v -0.600000 0.000000 -0.000000
v -0.600000 2.100000 -0.000000
v -0.300000 2.100000 -0.000000
v -0.300000 0.000000 -0.000000
v -0.600000 1.400000 -0.000000
v -0.300000 1.400000 -0.000000
v -0.450000 1.400000 -0.000000
v -0.450000 0.000000 -0.000000
v -0.450000 2.100000 -0.000000
v -0.600000 2.500000 -0.000000
v -0.600000 2.800000 -0.000000
v -0.300000 2.800000 -0.000000
v -0.300000 2.500000 -0.000000
v -0.450000 2.800000 -0.000000
v -0.450000 2.500000 -0.000000
v -0.600000 1.400000 -0.100000
v -0.600000 2.100000 -0.100000
v -0.450000 1.400000 -0.100000
v -0.600000 0.000000 -0.100000
v -0.450000 0.000000 -0.100000
v -0.300000 0.000000 -0.100000
v -0.300000 1.400000 -0.100000
v -0.450000 2.100000 -0.100000
v -0.300000 2.100000 -0.100000
v -0.600000 2.500000 -0.100000
v -0.600000 2.800000 -0.100000
v -0.450000 2.500000 -0.100000
v -0.300000 2.500000 -0.100000
v -0.450000 2.800000 -0.100000
v -0.300000 2.800000 -0.100000
vt 1.000000 0.000000
vt 1.000000 1.000000
vt 0.000000 1.000000
vt 0.000000 0.000000
vt 1.000000 0.666667
vt 0.000000 0.666667
vt 0.500000 0.666667
vt 0.500000 0.000000
vt 0.500000 1.000000
vt 1.000000 1.190476
vt 1.000000 1.333333
vt 0.000000 1.333333
vt 0.000000 1.190476
vt 0.500000 1.333333
vt 0.500000 1.190476
vt 1.000000 0.666667
vt 1.000000 1.000000
vt 0.500000 0.666667
vt 1.000000 0.000000
vt 0.500000 0.000000
vt 0.000000 0.000000
vt 0.000000 0.666667
vt 0.500000 1.000000
vt 0.000000 1.000000
vt 1.000000 1.190476
vt 1.000000 1.333333
vt 0.500000 1.190476
vt 0.000000 1.190476
vt 0.500000 1.333333
vt 0.000000 1.333333
vt 1.000000 0.666667
vt 1.000000 1.000000
vt 1.000000 0.000000
vt 0.500000 0.000000
vt 0.000000 0.000000
vt 0.500000 1.000000
vt 0.000000 0.666667
vt 0.000000 1.000000
vt 1.000000 1.190476
vt 1.000000 1.333333
vt 0.500000 1.190476
vt 0.000000 1.190476
vt 0.500000 1.333333
vt 0.000000 1.333333
vn 0.000000 0.000000 -1.000000
vn 0.000000 0.000000 -1.000000
vn -0.000000 0.000000 -1.000000
vn 0.000000 0.000000 -1.000000
vn 0.000000 0.000000 -1.000000
vn 0.000000 0.000000 -1.000000
vn -0.000000 0.000000 -1.000000
vn -0.000000 0.000000 -1.000000
vn 0.000000 0.000000 -1.000000
vn 0.000000 0.000000 -1.000000
vn 0.000000 0.000000 -1.000000
vn 0.000000 0.000000 -1.000000
vn 0.000000 0.000000 -1.000000
vn 0.000000 0.000000 -1.000000
vn 0.000000 0.000000 -1.000000
vn -0.000000 0.000000 1.000000
vn -0.000000 0.000000 1.000000
vn -0.000000 0.000000 1.000000
vn -0.000000 0.000000 1.000000
vn -0.000000 0.000000 1.000000
vn -0.000000 0.000000 1.000000
vn -0.000000 0.000000 1.000000
vn -0.000000 0.000000 1.000000
vn -0.000000 0.000000 1.000000
vn -0.000000 0.000000 1.000000
vn -0.000000 0.000000 1.000000
vn -0.000000 0.000000 1.000000
vn -0.000000 0.000000 1.000000
vn -0.000000 0.000000 1.000000
vn -0.000000 0.000000 1.000000
vn -1.000000 0.000000 0.000000
vn -1.000000 0.000000 0.000000
vn -1.000000 0.000000 0.000000
vn -1.000000 0.000000 0.000000
vn -1.000000 0.000000 0.000000
vn -1.000000 0.000000 0.000000
vn 0.000000 -1.000000 0.000000
vn 0.000000 -1.000000 0.000000
vn 0.000000 -1.000000 0.000000
vn 0.000000 -1.000000 0.000000
vn 0.000000 -1.000000 0.000000
vn 0.000000 -1.000000 0.000000
vn 0.000000 1.000000 0.000000
vn 0.000000 1.000000 0.000000
vn 0.000000 1.000000 0.000000
vn 0.000000 1.000000 0.000000
vn 1.000000 0.000000 0.000000
vn 1.000000 0.000000 0.000000
vn 1.000000 0.000000 0.000000
vn 1.000000 0.000000 0.000000
vn 0.000000 1.000000 0.000000
vn 0.000000 1.000000 0.000000
vn 1.000000 0.000000 0.000000
vn 1.000000 0.000000 0.000000
vn -1.000000 0.000000 0.000000
vn -1.000000 0.000000 0.000000
vn -1.000000 0.000000 0.000000
vn -1.000000 0.000000 0.000000
vn 0.000000 -1.000000 0.000000
vn 0.000000 -1.000000 0.000000
vn 0.000000 -1.000000 0.000000
vn 0.000000 -1.000000 0.000000
vn 0.000000 -1.000000 0.000000
vn 0.000000 -1.000000 0.000000
vn 0.000000 1.000000 0.000000
vn 0.000000 1.000000 0.000000
vn 0.000000 1.000000 0.000000
vn 0.000000 1.000000 0.000000
vn 0.000000 1.000000 0.000000
vn 0.000000 1.000000 0.000000
vn 1.000000 0.000000 0.000000
vn 1.000000 0.000000 0.000000
vn 1.000000 0.000000 0.000000
vn 1.000000 0.000000 0.000000
s 1
f 16/31/1 17/32/2 18/7/3
f 19/33/4 16/31/1 20/34/5
f 21/35/6 20/34/5 18/7/3
f 22/6/7 18/7/3 23/9/8
f 17/32/2 23/36/8 18/7/3
f 16/31/1 18/7/3 20/34/5
f 18/7/3 22/37/7 21/35/6
f 23/36/8 24/38/9 22/37/7
s 2
f 25/39/10 26/40/11 27/41/12
f 28/42/13 27/41/12 29/14/14
f 26/40/11 29/43/14 27/41/12
f 29/43/14 30/44/15 28/42/13
s 3
f 5/16/16 7/18/17 2/17/18
f 1/19/19 8/20/20 5/16/16
f 4/21/21 7/18/17 8/20/20
f 6/22/22 9/23/23 7/18/17
f 2/17/18 7/18/17 9/23/23
f 5/16/16 8/20/20 7/18/17
f 7/18/17 4/21/21 6/22/22
f 9/23/23 6/22/22 3/24/24
s 4
f 10/25/25 15/27/26 11/26/27
f 13/28/28 14/29/29 15/27/26
f 11/26/27 15/27/26 14/29/29
f 14/29/29 13/28/28 12/30/30
s 5
f 5/5/31 2/2/32 17/32/33 16/31/34
f 1/1/35 5/5/31 16/31/34 19/33/36
s 6
f 8/8/37 1/1/38 19/33/39 20/34/40
f 4/4/41 8/8/37 20/34/40 21/35/42
s 7
f 2/2/43 9/9/44 23/36/45 17/32/46
s 8
f 6/6/47 4/4/48 21/35/49 22/37/50
s 7
f 9/9/44 3/3/51 24/38/52 23/36/45
s 8
f 3/3/53 6/6/47 22/37/50 24/38/54
s off
f 10/10/55 11/11/56 26/40/57 25/39/58
s 10
f 15/15/59 10/10/60 25/39/61 27/41/62
f 13/13/63 15/15/59 27/41/62 28/42/64
s 11
f 11/11/65 14/14/66 29/43/67 26/40/68
f 14/14/66 12/12/69 30/44/70 29/43/67
s off
f 12/12/71 13/13/72 28/42/73 30/44/74
