# This file uses centimeters as units for non-parametric coordinates.

mtllib K_UPPER.mtl
g default
v -0.600000 -0.000000 -0.000000
v -0.600000 1.000000 -0.000000
v -1.137501 1.507813 -0.000000
v -2.248438 -0.000000 -0.000000
v -2.600000 -0.000000 -0.000000
v -1.340626 1.703125 -0.000000
v -2.500000 2.800000 -0.000000
v -2.100000 2.800000 -0.000000
v -0.600000 1.379689 -0.000000
v -0.600000 2.800000 -0.000000
v -0.300000 2.800000 -0.000000
v -0.300000 -0.000000 -0.000000
v -1.023385 1.400000 -0.000000
v -1.216936 1.400000 -0.000000
v -1.564771 1.400000 -0.000000
v -0.621451 1.400000 -0.000000
v -0.600000 1.400000 -0.000000
v -0.300000 1.400000 -0.000000
v -1.450000 1.400000 -0.000000
v -1.450000 1.083675 -0.000000
v -1.450000 1.555212 -0.000000
v -1.450000 1.806603 -0.000000
v -1.450000 2.184532 -0.000000
v -1.450000 1.400000 -0.100000
v -1.564771 1.400000 -0.100000
v -1.450000 1.555212 -0.100000
v -1.450000 1.083675 -0.100000
v -0.600000 1.379689 -0.100000
v -0.600000 1.400000 -0.100000
v -0.300000 1.400000 -0.100000
v -1.340626 1.703125 -0.100000
v -1.450000 1.806603 -0.100000
v -1.450000 2.184532 -0.100000
v -2.500000 2.800000 -0.100000
v -2.100000 2.800000 -0.100000
v -1.216936 1.400000 -0.100000
v -0.600000 2.800000 -0.100000
v -2.248438 -0.000000 -0.100000
v -2.600000 -0.000000 -0.100000
v -0.600000 1.000000 -0.100000
v -1.023385 1.400000 -0.100000
v -0.621451 1.400000 -0.100000
v -0.300000 -0.000000 -0.100000
v -0.600000 -0.000000 -0.100000
v -1.137501 1.507813 -0.100000
v -0.300000 2.800000 -0.100000
vt 0.130435 0.000000
vt 0.130435 0.357143
vt 0.364131 0.538504
vt 0.847147 0.000000
vt 1.000000 0.000000
vt 0.452446 0.608259
vt 0.956522 1.000000
vt 0.782609 1.000000
vt 0.130435 0.492746
vt 0.130435 1.000000
vt 0.000000 1.000000
vt 0.000000 0.000000
vt 0.314515 0.500000
vt 0.398668 0.500000
vt 0.549901 0.500000
vt 0.139761 0.500000
vt 0.130435 0.500000
vt 0.000000 0.500000
vt 0.500000 0.500000
vt 0.500000 0.387027
vt 0.500000 0.555433
vt 0.500000 0.645215
vt 0.500000 0.780190
vt 0.500000 0.500000
vt 0.549901 0.500000
vt 0.500000 0.555433
vt 0.500000 0.387027
vt 0.130435 0.492746
vt 0.130435 0.500000
vt 0.000000 0.500000
vt 0.452446 0.608259
vt 0.500000 0.645215
vt 0.500000 0.780190
vt 0.956522 1.000000
vt 0.782609 1.000000
vt 0.398668 0.500000
vt 0.130435 1.000000
vt 0.847147 0.000000
vt 1.000000 0.000000
vt 0.130435 0.357143
vt 0.314515 0.500000
vt 0.139761 0.500000
vt 0.000000 0.000000
vt 0.130435 0.000000
vt 0.364131 0.538504
vt 0.000000 1.000000
vt 0.549901 0.500000
vt 0.500000 0.555433
vt 0.130435 0.492746
vt 0.130435 0.500000
vt 0.452446 0.608259
vt 0.500000 0.645215
vt 0.956522 1.000000
vt 0.782609 1.000000
vt 0.398668 0.500000
vt 0.500000 0.387027
vt 0.130435 1.000000
vt 0.847147 0.000000
vt 1.000000 0.000000
vt 0.130435 0.357143
vt 0.314515 0.500000
vt 0.139761 0.500000
vt 0.000000 0.500000
vt 0.000000 0.000000
vt 0.130435 0.000000
vt 0.364131 0.538504
vt 0.500000 0.780190
vt 0.000000 1.000000
vn 0.000000 0.000000 -1.000000
vn -0.000000 0.000000 -1.000000
vn -0.000000 -0.000000 -1.000000
vn -0.000000 0.000000 -1.000000
vn 0.000000 0.000000 -1.000000
vn 0.000000 0.000000 -1.000000
vn 0.000000 0.000000 -1.000000
vn 0.000000 0.000000 -1.000000
vn 0.000000 0.000000 -1.000000
vn 0.000000 0.000000 -1.000000
vn 0.000000 0.000000 -1.000000
vn 0.000000 0.000000 -1.000000
vn -0.000000 0.000000 -1.000000
vn 0.000000 0.000000 -1.000000
vn -0.000000 0.000000 -1.000000
vn 0.000000 0.000000 -1.000000
vn 0.000000 0.000000 -1.000000
vn 0.000000 0.000000 -1.000000
vn -0.000000 0.000000 -1.000000
vn 0.000000 0.000000 -1.000000
vn 0.000000 0.000000 -1.000000
vn 0.000000 -0.000000 -1.000000
vn 0.000000 0.000000 -1.000000
vn -0.000000 0.000000 1.000000
vn -0.000000 0.000000 1.000000
vn -0.000000 -0.000000 1.000000
vn -0.000000 0.000000 1.000000
vn -0.000000 0.000000 1.000000
vn -0.000000 0.000000 1.000000
vn -0.000000 0.000000 1.000000
vn -0.000000 0.000000 1.000000
vn -0.000000 0.000000 1.000000
vn -0.000000 0.000000 1.000000
vn -0.000000 0.000000 1.000000
vn -0.000000 0.000000 1.000000
vn -0.000000 0.000000 1.000000
vn -0.000000 0.000000 1.000000
vn -0.000000 -0.000000 1.000000
vn -0.000000 -0.000000 1.000000
vn -0.000000 -0.000000 1.000000
vn -0.000000 0.000000 1.000000
vn -0.000000 0.000000 1.000000
vn -0.000000 -0.000000 1.000000
vn -0.000000 0.000000 1.000000
vn -0.000000 0.000000 1.000000
vn -0.000000 0.000000 1.000000
vn -0.804054 0.594557 0.000000
vn -0.804054 0.594557 0.000000
vn -0.804054 0.594557 0.000000
vn -0.804054 0.594557 0.000000
vn -1.000000 0.000000 0.000000
vn -1.000000 0.000000 0.000000
vn -1.000000 0.000000 0.000000
vn -1.000000 0.000000 0.000000
vn -0.687256 -0.726415 0.000000
vn -0.687256 -0.726415 0.000000
vn -0.687256 -0.726415 0.000000
vn -0.687256 -0.726415 0.000000
vn -0.687256 -0.726415 0.000000
vn -0.687256 -0.726415 0.000000
vn 0.000000 1.000000 0.000000
vn 0.000000 1.000000 0.000000
vn 0.000000 1.000000 0.000000
vn 0.000000 1.000000 0.000000
vn 0.805077 -0.593171 0.000000
vn 0.805077 -0.593171 0.000000
vn 0.805077 -0.593171 0.000000
vn 0.805077 -0.593171 0.000000
vn -1.000000 0.000000 0.000000
vn -1.000000 0.000000 0.000000
vn 0.000000 -1.000000 0.000000
vn 0.000000 -1.000000 0.000000
vn 0.000000 -1.000000 0.000000
vn 0.000000 -1.000000 0.000000
vn -0.804054 0.594557 0.000000
vn -0.804054 0.594557 0.000000
vn 0.805077 -0.593171 0.000000
vn 0.805077 -0.593171 0.000000
vn -0.686747 -0.726896 0.000000
vn -0.686747 -0.726896 0.000000
vn -0.686747 -0.726896 0.000000
vn -0.686747 -0.726896 0.000000
vn 0.687555 0.726132 0.000000
vn 0.687554 0.726133 0.000000
vn 0.687554 0.726133 0.000000
vn 0.687555 0.726132 0.000000
vn 1.000000 0.000000 0.000000
vn 1.000000 0.000000 0.000000
vn 1.000000 0.000000 0.000000
vn 1.000000 0.000000 0.000000
vn 0.000000 -1.000000 0.000000
vn 0.000000 -1.000000 0.000000
vn 0.000000 -1.000000 0.000000
vn 0.000000 -1.000000 0.000000
vn -1.000000 0.000000 0.000000
vn -1.000000 0.000000 0.000000
vn -1.000000 0.000000 0.000000
vn -1.000000 0.000000 0.000000
vn -0.686747 -0.726896 0.000000
vn -0.686747 -0.726896 0.000000
vn 0.687556 0.726132 0.000000
vn 0.687556 0.726132 0.000000
vn -0.804053 0.594558 0.000000
vn -0.804053 0.594558 0.000000
vn 0.805077 -0.593171 0.000000
vn 0.805077 -0.593171 0.000000
vn 0.687556 0.726132 0.000000
vn 0.687556 0.726132 0.000000
vn 0.000000 1.000000 0.000000
vn 0.000000 1.000000 0.000000
vn 0.000000 1.000000 0.000000
vn 0.000000 1.000000 0.000000
vn 1.000000 0.000000 0.000000
vn 1.000000 0.000000 0.000000
s 1
f 24/19/1 25/47/2 26/48/3
f 25/47/2 24/19/1 27/20/4
f 28/49/5 29/50/6 30/18/7
f 31/51/8 32/52/9 33/23/10
f 32/52/9 34/53/11 35/54/12
f 24/19/1 36/55/13 27/56/4
f 29/50/6 37/57/14 30/18/7
f 38/58/15 39/59/16 25/47/2
f 27/56/4 38/58/15 25/47/2
f 40/60/17 41/61/18 42/16/19
f 43/12/20 42/62/19 28/49/5
f 30/63/7 43/64/20 28/49/5
f 43/64/20 44/65/21 40/60/17
f 40/60/17 42/62/19 43/64/20
f 36/55/13 24/19/1 26/48/3
f 42/62/19 41/61/18 45/66/22
f 33/23/10 45/66/22 31/51/8
f 45/66/22 33/67/10 42/62/19
f 26/48/3 31/51/8 45/66/22
f 26/48/3 45/66/22 36/55/13
f 35/54/12 33/67/10 32/52/9
f 37/57/14 46/68/23 30/63/7
s 2
f 19/24/24 21/26/25 15/25/26
f 15/25/26 20/27/27 19/24/24
f 9/28/28 18/30/29 17/29/30
f 6/31/31 23/33/32 22/32/33
f 22/32/33 8/35/34 7/34/35
f 19/24/24 20/27/27 14/36/36
f 17/29/30 18/30/29 10/37/37
f 4/38/38 15/25/26 5/39/39
f 20/27/27 15/25/26 4/38/38
f 2/40/40 16/42/41 13/41/42
f 12/43/43 9/28/28 16/42/41
f 18/30/29 9/28/28 12/43/43
f 12/43/43 2/40/40 1/44/44
f 2/40/40 12/43/43 16/42/41
f 14/36/36 21/26/25 19/24/24
f 16/42/41 3/45/45 13/41/42
f 23/33/32 6/31/31 3/45/45
f 3/45/45 16/42/41 23/33/32
f 21/26/25 3/45/45 6/31/31
f 21/26/25 14/36/36 3/45/45
f 8/35/34 22/32/33 23/33/32
f 10/37/37 18/30/29 11/46/46
s 3
f 15/15/47 21/21/48 26/48/49 25/47/50
s 4
f 9/9/51 17/17/52 29/50/53 28/49/54
s 5
f 6/6/55 22/22/56 32/52/57 31/51/58
f 22/22/56 7/7/59 34/53/60 32/52/57
s off
f 7/7/61 8/8/62 35/54/63 34/53/64
s 7
f 14/14/65 20/20/66 27/56/67 36/55/68
s 4
f 17/17/52 10/10/69 37/57/70 29/50/53
s off
f 4/4/71 5/5/72 39/59/73 38/58/74
s 3
f 5/5/75 15/15/47 25/47/50 39/59/76
s 7
f 20/20/66 4/4/77 38/58/78 27/56/67
s 9
f 2/2/79 13/13/80 41/61/81 40/60/82
s 10
f 16/16/83 9/9/84 28/49/85 42/62/86
s 11
f 18/18/87 12/12/88 43/64/89 30/63/90
s off
f 12/12/91 1/1/92 44/65/93 43/64/94
f 1/1/95 2/2/96 40/60/97 44/65/98
s 9
f 13/13/80 3/3/99 45/66/100 41/61/81
s 10
f 23/23/101 16/16/83 42/62/86 33/67/102
s 3
f 21/21/48 6/6/103 31/51/104 26/48/49
s 7
f 3/3/105 14/14/65 36/55/68 45/66/106
s 10
f 8/8/107 23/23/101 33/67/102 35/54/108
s off
f 10/10/109 11/11/110 46/68/111 37/57/112
s 11
f 11/11/113 18/18/87 30/63/90 46/68/114
