# This file uses centimeters as units for non-parametric coordinates.

mtllib L_UPPER.mtl
g default
v -2.100000 0.000000 -0.000000
v -2.100000 0.300000 -0.000000
v -0.600000 0.300000 -0.000000
v -0.600000 2.800000 -0.000000
v -0.300000 2.800000 -0.000000
v -0.300000 0.000000 -0.000000
v -0.600000 1.400000 -0.000000
v -0.300000 1.400000 -0.000000
v -1.200000 0.300000 -0.000000
v -1.200000 0.000000 -0.000000
v -0.600000 1.400000 -0.100000
v -0.600000 2.800000 -0.100000
v -0.300000 1.400000 -0.100000
v -2.100000 0.000000 -0.100000
v -2.100000 0.300000 -0.100000
v -1.200000 0.000000 -0.100000
v -0.600000 0.300000 -0.100000
v -0.300000 2.800000 -0.100000
v -1.200000 0.300000 -0.100000
v -0.300000 0.000000 -0.100000
vt 1.000000 0.000000
vt 1.000000 0.107143
vt 0.166667 0.107143
vt 0.166667 1.000000
vt 0.000000 1.000000
vt 0.000000 0.000000
vt 0.166667 0.500000
vt 0.000000 0.500000
vt 0.500000 0.107143
vt 0.500000 0.000000
vt 0.166667 0.500000
vt 0.166667 1.000000
vt 0.000000 0.500000
vt 1.000000 0.000000
vt 1.000000 0.107143
vt 0.500000 0.000000
vt 0.166667 0.107143
vt 0.000000 1.000000
vt 0.500000 0.107143
vt 0.000000 0.000000
vt 0.166667 0.500000
vt 0.166667 1.000000
vt 1.000000 0.000000
vt 1.000000 0.107143
vt 0.500000 0.000000
vt 0.166667 0.107143
vt 0.000000 1.000000
vt 0.000000 0.500000
vt 0.500000 0.107143
vt 0.000000 0.000000
vn 0.000000 0.000000 -1.000000
vn 0.000000 0.000000 -1.000000
vn -0.000000 0.000000 -1.000000
vn 0.000000 0.000000 -1.000000
vn 0.000000 0.000000 -1.000000
vn 0.000000 0.000000 -1.000000
vn -0.000000 0.000000 -1.000000
vn 0.000000 0.000000 -1.000000
vn 0.000000 0.000000 -1.000000
vn -0.000000 0.000000 -1.000000
vn -0.000000 0.000000 1.000000
vn -0.000000 0.000000 1.000000
vn -0.000000 0.000000 1.000000
vn -0.000000 0.000000 1.000000
vn -0.000000 0.000000 1.000000
vn -0.000000 0.000000 1.000000
vn -0.000000 0.000000 1.000000
vn -0.000000 0.000000 1.000000
vn -0.000000 0.000000 1.000000
vn -0.000000 0.000000 1.000000
vn -1.000000 0.000000 0.000000
vn -1.000000 0.000000 0.000000
vn -1.000000 0.000000 0.000000
vn -1.000000 0.000000 0.000000
vn -1.000000 0.000000 0.000000
vn -1.000000 0.000000 0.000000
vn -1.000000 0.000000 0.000000
vn -1.000000 0.000000 0.000000
vn 0.000000 -1.000000 0.000000
vn -0.000000 -1.000000 0.000000
vn -0.000000 -1.000000 0.000000
vn 0.000000 -1.000000 0.000000
vn -1.000000 0.000000 0.000000
vn -1.000000 0.000000 0.000000
vn 0.000000 1.000000 0.000000
vn 0.000000 1.000000 0.000000
vn 0.000000 1.000000 0.000000
vn 0.000000 1.000000 0.000000
vn 1.000000 0.000000 0.000000
vn 1.000000 0.000000 0.000000
vn 1.000000 0.000000 0.000000
vn 1.000000 0.000000 0.000000
vn 0.000000 1.000000 0.000000
vn 0.000000 1.000000 0.000000
vn 0.000000 1.000000 0.000000
vn 0.000000 1.000000 0.000000
vn 0.000000 1.000000 0.000000
vn 0.000000 1.000000 0.000000
vn 0.000000 -1.000000 0.000000
vn 0.000000 -1.000000 0.000000
vn 1.000000 0.000000 0.000000
vn 1.000000 0.000000 0.000000
s 1
f 11/21/1 12/22/2 13/8/3
f 14/23/4 15/24/5 16/25/6
f 17/26/7 11/21/1 13/8/3
f 12/22/2 18/27/8 13/28/3
f 15/24/5 19/29/9 16/25/6
f 16/25/6 19/29/9 17/26/7
f 20/30/10 16/25/6 17/26/7
f 13/28/3 20/30/10 17/26/7
s 2
f 7/11/11 8/13/12 4/12/13
f 1/14/14 10/16/15 2/15/16
f 3/17/17 8/13/12 7/11/11
f 4/12/13 8/13/12 5/18/18
f 2/15/16 10/16/15 9/19/19
f 10/16/15 3/17/17 9/19/19
f 6/20/20 3/17/17 10/16/15
f 8/13/12 3/17/17 6/20/20
s 3
f 7/7/21 4/4/22 12/22/23 11/21/24
s off
f 1/1/25 2/2/26 15/24/27 14/23/28
s 5
f 10/10/29 1/1/30 14/23/31 16/25/32
s 3
f 3/3/33 7/7/21 11/21/24 17/26/34
s off
f 4/4/35 5/5/36 18/27/37 12/22/38
s 7
f 5/5/39 8/8/40 13/28/41 18/27/42
s 8
f 2/2/43 9/9/44 19/29/45 15/24/46
f 9/9/44 3/3/47 17/26/48 19/29/45
s 5
f 6/6/49 10/10/29 16/25/32 20/30/50
s 7
f 8/8/40 6/6/51 20/30/52 13/28/41
