# This file uses centimeters as units for non-parametric coordinates.

mtllib M_UPPER.mtl
g default
v -0.700000 -0.000000 -0.000000
v -0.700000 2.500000 -0.000000
v -1.479689 -0.000000 -0.000000
v -1.823438 -0.000000 -0.000000
v -2.600000 2.500000 -0.000000
v -2.600000 -0.000000 -0.000000
v -2.900000 -0.000000 -0.000000
v -2.900000 2.800000 -0.000000
v -2.384376 2.800000 -0.000000
v -1.650001 0.409375 -0.000000
v -0.915625 2.800000 -0.000000
v -0.400000 2.800000 -0.000000
v -0.400000 0.000000 -0.000000
v -0.700000 1.400000 -0.000000
v -1.043063 1.400000 -0.000000
v -2.258313 1.400000 -0.000000
v -2.600000 1.400000 -0.000000
v -2.900000 1.400000 -0.000000
v -1.950417 1.400103 -0.000000
v -1.348274 1.399976 -0.000000
v -0.400000 1.400000 -0.000000
v -1.337501 1.400000 -0.000000
v -1.337501 0.455913 -0.000000
v -1.337413 1.435083 -0.000000
v -1.337501 1.400000 -0.100000
v -1.348274 1.399976 -0.100000
v -1.337413 1.435083 -0.100000
v -2.258313 1.400000 -0.100000
v -1.950417 1.400103 -0.100000
v -1.650001 0.409375 -0.100000
v -0.700000 -0.000000 -0.100000
v -0.700000 1.400000 -0.100000
v -0.400000 0.000000 -0.100000
v -0.700000 2.500000 -0.100000
v -1.043063 1.400000 -0.100000
v -2.600000 2.500000 -0.100000
v -2.600000 1.400000 -0.100000
v -2.900000 1.400000 -0.100000
v -2.600000 -0.000000 -0.100000
v -2.900000 -0.000000 -0.100000
v -1.337501 0.455913 -0.100000
v -1.479689 0.000000 -0.100000
v -1.823438 0.000000 -0.100000
v -0.400000 1.400000 -0.100000
v -0.915625 2.800000 -0.100000
v -0.400000 2.800000 -0.100000
v -2.900000 2.800000 -0.100000
v -2.384376 2.800000 -0.100000
vt 0.120000 0.000000
vt 0.120000 0.892857
vt 0.431875 0.000000
vt 0.569375 0.000000
vt 0.880000 0.892857
vt 0.880000 0.000000
vt 1.000000 0.000000
vt 1.000000 1.000000
vt 0.793751 1.000000
vt 0.500000 0.146205
vt 0.206250 1.000000
vt 0.000000 1.000000
vt 0.000000 0.000000
vt 0.120000 0.500000
vt 0.257225 0.500000
vt 0.743325 0.500000
vt 0.880000 0.500000
vt 1.000000 0.500000
vt 0.620299 0.500000
vt 0.379341 0.500000
vt 0.000000 0.500000
vt 0.375000 0.500000
vt 0.375000 0.162826
vt 0.375000 0.512539
vt 0.375000 0.500000
vt 0.379341 0.500000
vt 0.375000 0.512539
vt 0.743325 0.500000
vt 0.620299 0.500000
vt 0.500000 0.146205
vt 0.120000 0.000000
vt 0.120000 0.500000
vt 0.000000 0.000000
vt 0.120000 0.892857
vt 0.257225 0.500000
vt 0.880000 0.892857
vt 0.880000 0.500000
vt 1.000000 0.500000
vt 0.880000 0.000000
vt 1.000000 0.000000
vt 0.375000 0.162826
vt 0.431875 0.000000
vt 0.569375 0.000000
vt 0.000000 0.500000
vt 0.206250 1.000000
vt 0.000000 1.000000
vt 1.000000 1.000000
vt 0.793751 1.000000
vt 0.379341 0.500000
vt 0.375000 0.512539
vt 0.620299 0.500000
vt 0.500000 0.146205
vt 0.120000 0.000000
vt 0.120000 0.500000
vt 0.000000 0.000000
vt 0.120000 0.892857
vt 0.257225 0.500000
vt 0.880000 0.892857
vt 0.880000 0.500000
vt 0.880000 0.000000
vt 1.000000 0.000000
vt 1.000000 0.500000
vt 0.375000 0.162826
vt 0.431875 0.000000
vt 0.569375 0.000000
vt 0.743325 0.500000
vt 0.000000 0.500000
vt 0.206250 1.000000
vt 0.000000 1.000000
vt 1.000000 1.000000
vt 0.793751 1.000000
vn 0.000000 0.000000 -1.000000
vn -0.000000 0.000000 -1.000000
vn -0.000000 0.000000 -1.000000
vn -0.000000 -0.000000 -1.000000
vn -0.000000 -0.000000 -1.000000
vn -0.000000 -0.000000 -1.000000
vn -0.000000 -0.000000 -1.000000
vn 0.000000 -0.000000 -1.000000
vn 0.000000 -0.000000 -1.000000
vn 0.000000 0.000000 -1.000000
vn 0.000000 -0.000000 -1.000000
vn 0.000000 -0.000000 -1.000000
vn 0.000000 0.000000 -1.000000
vn 0.000000 0.000000 -1.000000
vn 0.000000 0.000000 -1.000000
vn 0.000000 0.000000 -1.000000
vn -0.000000 0.000000 -1.000000
vn 0.000000 0.000000 -1.000000
vn 0.000000 0.000000 -1.000000
vn 0.000000 0.000000 -1.000000
vn -0.000000 0.000000 -1.000000
vn 0.000000 0.000000 -1.000000
vn 0.000000 -0.000000 -1.000000
vn 0.000000 -0.000000 -1.000000
vn -0.000000 -0.000000 1.000000
vn -0.000000 -0.000000 1.000000
vn -0.000000 -0.000000 1.000000
vn -0.000000 0.000000 1.000000
vn -0.000000 -0.000000 1.000000
vn -0.000000 0.000000 1.000000
vn -0.000000 0.000000 1.000000
vn -0.000000 0.000000 1.000000
vn -0.000000 0.000000 1.000000
vn -0.000000 0.000000 1.000000
vn -0.000000 0.000000 1.000000
vn -0.000000 0.000000 1.000000
vn -0.000000 0.000000 1.000000
vn -0.000000 0.000000 1.000000
vn -0.000000 0.000000 1.000000
vn -0.000000 0.000000 1.000000
vn -0.000000 0.000000 1.000000
vn -0.000000 -0.000000 1.000000
vn -0.000000 -0.000000 1.000000
vn -0.000000 0.000000 1.000000
vn -0.000000 0.000000 1.000000
vn -0.000000 0.000000 1.000000
vn -0.000000 0.000000 1.000000
vn -0.000000 -0.000000 1.000000
vn -0.955970 0.293466 0.000000
vn -0.955373 0.295401 0.000000
vn -0.955373 0.295401 0.000000
vn -0.955970 0.293466 0.000000
vn 0.956070 0.293138 0.000000
vn 0.956972 0.290181 0.000000
vn 0.956972 0.290181 0.000000
vn 0.956070 0.293138 0.000000
vn -1.000000 0.000000 0.000000
vn -1.000000 0.000000 0.000000
vn -1.000000 0.000000 0.000000
vn -1.000000 0.000000 0.000000
vn 0.000000 -1.000000 0.000000
vn 0.000000 -1.000000 0.000000
vn 0.000000 -1.000000 0.000000
vn 0.000000 -1.000000 0.000000
vn 0.954650 -0.297732 0.000000
vn 0.954650 -0.297732 0.000000
vn 0.954650 -0.297732 0.000000
vn 0.954650 -0.297732 0.000000
vn 1.000000 0.000000 0.000000
vn 1.000000 0.000000 0.000000
vn 1.000000 0.000000 0.000000
vn 1.000000 0.000000 0.000000
vn 0.000000 -1.000000 0.000000
vn 0.000000 -1.000000 0.000000
vn 0.000000 -1.000000 0.000000
vn 0.000000 -1.000000 0.000000
vn -1.000000 0.000000 0.000000
vn -1.000000 0.000000 0.000000
vn -1.000000 0.000000 0.000000
vn -1.000000 0.000000 0.000000
vn 0.954650 -0.297732 -0.000000
vn 0.954650 -0.297732 -0.000000
vn 0.954650 -0.297732 -0.000001
vn 0.954650 -0.297732 -0.000001
vn -0.000000 -1.000000 -0.000000
vn -0.000000 -1.000000 -0.000000
vn -0.000000 -1.000000 -0.000000
vn -0.000000 -1.000000 -0.000000
vn -0.954988 -0.296643 0.000001
vn -0.954988 -0.296643 0.000000
vn -0.954988 -0.296643 0.000000
vn -0.954988 -0.296643 0.000001
vn -0.956610 0.291373 0.000000
vn -0.956610 0.291373 0.000000
vn 1.000000 0.000000 0.000000
vn 1.000000 0.000000 0.000000
vn 1.000000 0.000000 0.000000
vn 1.000000 0.000000 0.000000
vn -1.000000 0.000000 0.000000
vn -1.000000 0.000000 0.000000
vn 0.000000 1.000000 0.000000
vn 0.000000 1.000000 0.000000
vn 0.000000 1.000000 0.000000
vn 0.000000 1.000000 0.000000
vn -0.955422 0.295245 0.000000
vn -0.955422 0.295245 0.000000
vn 1.000000 0.000000 0.000000
vn 1.000000 0.000000 0.000000
vn -0.954988 -0.296643 0.000000
vn -0.954988 -0.296643 0.000000
vn 0.000000 1.000000 0.000002
vn 0.000000 1.000000 0.000002
vn 0.000000 1.000000 0.000002
vn 0.000000 1.000000 0.000002
vn -1.000000 0.000000 0.000000
vn -1.000000 0.000000 0.000000
vn 0.955159 0.296093 0.000000
vn 0.955159 0.296093 0.000000
vn 1.000000 0.000000 0.000000
vn 1.000000 0.000000 0.000000
s 1
usemtl initialShadingGroup
f 25/22/1 26/49/2 27/50/3
f 28/16/4 29/51/5 30/52/6
f 31/53/7 32/54/8 33/55/9
f 34/56/10 35/57/11 27/50/3
f 36/58/12 37/59/13 38/18/14
f 39/60/15 40/61/16 38/62/14
f 25/22/1 35/57/11 41/63/17
f 26/49/2 25/22/1 41/63/17
f 30/52/6 41/63/17 42/64/18
f 30/52/6 42/64/18 43/65/19
f 30/52/6 43/65/19 28/66/4
f 41/63/17 30/52/6 26/49/2
f 32/54/8 44/67/20 33/55/9
f 44/67/20 32/54/8 34/56/10
f 35/57/11 25/22/1 27/50/3
f 45/68/21 46/69/22 34/56/10
f 27/50/3 45/68/21 34/56/10
f 34/56/10 46/69/22 44/67/20
f 29/51/5 28/66/4 36/58/12
f 47/70/23 48/71/24 36/58/12
f 38/62/14 47/70/23 36/58/12
f 36/58/12 48/71/24 29/51/5
f 38/62/14 37/59/13 39/60/15
s 2
f 22/25/25 24/27/26 20/26/27
f 16/28/28 10/30/29 19/29/30
f 1/31/31 13/33/32 14/32/33
f 2/34/34 24/27/26 15/35/35
f 5/36/36 18/38/37 17/37/38
f 6/39/39 18/38/37 7/40/40
f 22/25/25 23/41/41 15/35/35
f 20/26/27 23/41/41 22/25/25
f 10/30/29 3/42/42 23/41/41
f 10/30/29 4/43/43 3/42/42
f 10/30/29 16/28/28 4/43/43
f 23/41/41 20/26/27 10/30/29
f 14/32/33 13/33/32 21/44/44
f 21/44/44 2/34/34 14/32/33
f 15/35/35 24/27/26 22/25/25
f 11/45/45 2/34/34 12/46/46
f 24/27/26 2/34/34 11/45/45
f 2/34/34 21/44/44 12/46/46
f 19/29/30 5/36/36 16/28/28
f 8/47/47 5/36/36 9/48/48
f 18/38/37 5/36/36 8/47/47
f 5/36/36 19/29/30 9/48/48
f 18/38/37 6/39/39 17/37/38
s 3
f 20/20/49 24/24/50 27/50/51 26/49/52
s 4
f 19/19/53 10/10/54 30/52/55 29/51/56
s 5
f 1/1/57 14/14/58 32/54/59 31/53/60
s off
f 13/13/61 1/1/62 31/53/63 33/55/64
s 7
f 2/2/65 15/15/66 35/57/67 34/56/68
s 8
f 5/5/69 17/17/70 37/59/71 36/58/72
s off
f 6/6/73 7/7/74 40/61/75 39/60/76
s 10
f 7/7/77 18/18/78 38/62/79 40/61/80
s 7
f 15/15/66 23/23/81 41/63/82 35/57/67
f 23/23/81 3/3/83 42/64/84 41/63/82
s off
f 3/3/85 4/4/86 43/65/87 42/64/88
s 12
f 4/4/89 16/16/90 28/66/91 43/65/92
s 3
f 10/10/93 20/20/49 26/49/52 30/52/94
s 13
f 21/21/95 13/13/96 33/55/97 44/67/98
s 5
f 14/14/58 2/2/99 34/56/100 32/54/59
s off
f 11/11/101 12/12/102 46/69/103 45/68/104
s 3
f 24/24/50 11/11/105 45/68/106 27/50/51
s 13
f 12/12/107 21/21/95 44/67/98 46/69/108
s 12
f 16/16/90 5/5/109 36/58/110 28/66/91
s off
f 8/8/111 9/9/112 48/71/113 47/70/114
s 10
f 18/18/78 8/8/115 47/70/116 38/62/79
s 4
f 9/9/117 19/19/53 29/51/56 48/71/118
s 8
f 17/17/70 6/6/119 39/60/120 37/59/71
