# This file uses centimeters as units for non-parametric coordinates.

mtllib r_lower.mtl
g default
v -0.600000 -0.000000 -0.000000
v -1.195314 1.732813 -0.000000
v -0.599514 1.074725 -0.000000
v -0.968034 1.800328 -0.000000
v -1.300000 2.037501 -0.000000
v -0.600000 1.801563 -0.000000
v -0.993352 2.100237 -0.000000
v -0.600000 2.100000 -0.000000
v -0.300000 2.100000 -0.000000
v -0.300000 0.000000 -0.000000
v -0.599426 1.050106 -0.000000
v -0.300000 1.050105 -0.000000
v -0.800004 1.746271 -0.000000
v -0.800447 2.045883 -0.000000
v -0.672748 1.575188 -0.000000
v -0.300000 1.575158 -0.000000
v -0.550000 1.575158 -0.000000
v -0.550000 1.050105 -0.000000
v -0.612526 1.312570 -0.000000
v -0.550000 1.312631 -0.000000
v -0.550000 2.100000 -0.000000
v -0.800000 1.837684 -0.000000
v -0.621045 1.837750 -0.000000
v -0.600000 1.837684 -0.000000
v -0.550000 1.837684 -0.000000
v -0.674953 1.580616 -0.000000
v -0.675000 1.837684 -0.000000
v -0.754478 1.706428 -0.000000
v -0.675000 1.706421 -0.000000
v -0.737495 1.687280 -0.000000
v -0.737500 1.706421 -0.000000
v -0.704750 1.640788 -0.000000
v -0.675000 1.640789 -0.000000
v -0.706252 1.643280 -0.000000
v -0.706250 1.706421 -0.000000
v -0.737500 1.837684 -0.000000
v -0.674540 1.920356 -0.000000
v -0.800000 1.968947 -0.000000
v -0.713262 1.969096 -0.000000
v -0.737500 1.968947 -0.000000
v -0.737725 1.995006 -0.000000
v -1.050000 1.790872 -0.000000
v -1.050033 2.097891 -0.000000
v -1.050000 1.837684 -0.000000
v -0.925000 1.797372 -0.000000
v -0.925000 1.837684 -0.000000
v -0.862516 1.780793 -0.000000
v -0.862500 1.837684 -0.000000
v -0.925012 2.094640 -0.000000
v -0.925000 1.968947 -0.000000
v -0.862500 1.968947 -0.000000
v -0.862541 2.077632 -0.000000
v -1.231346 1.837684 -0.000000
v -1.175000 1.744061 -0.000000
v -1.175000 1.837684 -0.000000
v -1.174903 2.076923 -0.000000
v -1.231346 1.837684 -0.100000
v -1.300000 2.037501 -0.100000
v -1.174903 2.076923 -0.100000
v -0.600000 -0.000000 -0.100000
v -0.599426 1.050106 -0.100000
v -0.550000 1.050105 -0.100000
v -0.800000 1.968947 -0.100000
v -0.800447 2.045883 -0.100000
v -0.737725 1.995006 -0.100000
v -0.612526 1.312570 -0.100000
v -0.672748 1.575188 -0.100000
v -0.550000 1.575158 -0.100000
v -0.300000 1.050105 -0.100000
v -0.550000 1.312631 -0.100000
v -0.599514 1.074725 -0.100000
v -0.300000 1.575158 -0.100000
v -0.550000 1.837684 -0.100000
v -0.800004 1.746271 -0.100000
v -0.800000 1.837684 -0.100000
v -0.737500 1.837684 -0.100000
v -0.600000 1.801563 -0.100000
v -0.600000 1.837684 -0.100000
v -0.737495 1.687280 -0.100000
v -0.754478 1.706428 -0.100000
v -0.737500 1.706421 -0.100000
v -0.706250 1.706421 -0.100000
v -0.674953 1.580616 -0.100000
v -0.704750 1.640788 -0.100000
v -0.675000 1.640789 -0.100000
v -0.706252 1.643280 -0.100000
v -0.675000 1.706421 -0.100000
v -0.675000 1.837684 -0.100000
v -0.674540 1.920356 -0.100000
v -0.621045 1.837750 -0.100000
v -0.713262 1.969096 -0.100000
v -0.737500 1.968947 -0.100000
v -1.050033 2.097891 -0.100000
v -0.925012 2.094640 -0.100000
v -0.925000 1.968947 -0.100000
v -0.968034 1.800328 -0.100000
v -1.050000 1.790872 -0.100000
v -1.050000 1.837684 -0.100000
v -0.925000 1.797372 -0.100000
v -0.925000 1.837684 -0.100000
v -0.862500 1.837684 -0.100000
v -0.862516 1.780793 -0.100000
v -0.862541 2.077632 -0.100000
v -0.862500 1.968947 -0.100000
v -1.175000 1.744061 -0.100000
v -1.195314 1.732813 -0.100000
v -1.175000 1.837684 -0.100000
v -0.600000 2.100000 -0.100000
v -0.300000 0.000000 -0.100000
v -0.550000 2.100000 -0.100000
v -0.300000 2.100000 -0.100000
v -0.993352 2.100237 -0.100000
vt 0.300000 0.000000
vt 0.895314 0.825066
vt 0.299561 0.511723
vt 0.668034 0.857213
vt 1.000000 0.970141
vt 0.300000 0.857801
vt 0.693352 1.000000
vt 0.300000 0.999900
vt 0.000000 0.999900
vt 0.000000 0.000000
vt 0.299612 0.500000
vt 0.000000 0.500000
vt 0.500000 0.831477
vt 0.500000 0.974460
vt 0.372823 0.750000
vt 0.000000 0.750000
vt 0.250000 0.750000
vt 0.250000 0.500000
vt 0.312004 0.625000
vt 0.250000 0.625000
vt 0.250000 0.999900
vt 0.500000 0.875000
vt 0.321156 0.875000
vt 0.300000 0.875000
vt 0.250000 0.875000
vt 0.375000 0.752590
vt 0.375000 0.875000
vt 0.454485 0.812500
vt 0.375000 0.812500
vt 0.437500 0.803384
vt 0.437500 0.812500
vt 0.404748 0.781250
vt 0.375000 0.781250
vt 0.406250 0.782436
vt 0.406250 0.812500
vt 0.437500 0.875000
vt 0.375000 0.914205
vt 0.500000 0.937500
vt 0.413432 0.937500
vt 0.437500 0.937500
vt 0.437500 0.950016
vt 0.750000 0.852711
vt 0.750000 0.998712
vt 0.750000 0.875000
vt 0.625000 0.855806
vt 0.625000 0.875000
vt 0.562500 0.847930
vt 0.562500 0.875000
vt 0.625000 0.997382
vt 0.625000 0.937500
vt 0.562500 0.937500
vt 0.562500 0.989301
vt 0.931346 0.875000
vt 0.875000 0.830422
vt 0.875000 0.875000
vt 0.875000 0.989102
vt 0.931346 0.875000
vt 1.000000 0.970141
vt 0.875000 0.989102
vt 0.300000 0.000000
vt 0.299612 0.500000
vt 0.250000 0.500000
vt 0.500000 0.937500
vt 0.500000 0.974460
vt 0.437500 0.950016
vt 0.312004 0.625000
vt 0.372823 0.750000
vt 0.250000 0.750000
vt 0.000000 0.500000
vt 0.250000 0.625000
vt 0.299561 0.511723
vt 0.000000 0.750000
vt 0.250000 0.875000
vt 0.500000 0.831477
vt 0.500000 0.875000
vt 0.437500 0.875000
vt 0.300000 0.857801
vt 0.300000 0.875000
vt 0.437500 0.803384
vt 0.454485 0.812500
vt 0.437500 0.812500
vt 0.406250 0.812500
vt 0.375000 0.752590
vt 0.404748 0.781250
vt 0.375000 0.781250
vt 0.406250 0.782436
vt 0.375000 0.812500
vt 0.375000 0.875000
vt 0.375000 0.914205
vt 0.321156 0.875000
vt 0.413432 0.937500
vt 0.437500 0.937500
vt 0.750000 0.998712
vt 0.625000 0.997382
vt 0.625000 0.937500
vt 0.668034 0.857213
vt 0.750000 0.852711
vt 0.750000 0.875000
vt 0.625000 0.855806
vt 0.625000 0.875000
vt 0.562500 0.875000
vt 0.562500 0.847930
vt 0.562500 0.989301
vt 0.562500 0.937500
vt 0.875000 0.830422
vt 0.895314 0.825066
vt 0.875000 0.875000
vt 0.300000 0.999900
vt 0.000000 0.000000
vt 0.250000 0.999900
vt 0.000000 0.999900
vt 0.693352 1.000000
vt 0.931346 0.875000
vt 1.000000 0.970141
vt 0.875000 0.989102
vt 0.300000 0.000000
vt 0.299612 0.500000
vt 0.500000 0.974460
vt 0.437500 0.950016
vt 0.312004 0.625000
vt 0.372823 0.750000
vt 0.299561 0.511723
vt 0.300000 0.857801
vt 0.300000 0.875000
vt 0.437500 0.803384
vt 0.454485 0.812500
vt 0.375000 0.752590
vt 0.404748 0.781250
vt 0.375000 0.914205
vt 0.321156 0.875000
vt 0.413432 0.937500
vt 0.668034 0.857213
vt 0.750000 0.852711
vt 0.875000 0.830422
vt 0.895314 0.825066
vt 0.750000 0.998712
vt 0.300000 0.999900
vt 0.000000 0.500000
vt 0.000000 0.000000
vt 0.000000 0.750000
vt 0.250000 0.999900
vt 0.000000 0.999900
vt 0.500000 0.831477
vt 0.406250 0.782436
vt 0.693352 1.000000
vt 0.625000 0.997382
vt 0.625000 0.855806
vt 0.562500 0.847930
vt 0.562500 0.989301
vn 0.000000 0.000000 -1.000000
vn 0.000000 0.000000 -1.000000
vn 0.000000 0.000000 -1.000000
vn 0.000000 0.000000 -1.000000
vn 0.000000 -0.000000 -1.000000
vn 0.000000 -0.000000 -1.000000
vn 0.000000 0.000000 -1.000000
vn 0.000000 0.000000 -1.000000
vn 0.000000 0.000000 -1.000000
vn 0.000000 0.000000 -1.000000
vn 0.000000 0.000000 -1.000000
vn 0.000000 0.000000 -1.000000
vn 0.000000 0.000000 -1.000000
vn 0.000000 0.000000 -1.000000
vn 0.000000 -0.000000 -1.000000
vn 0.000000 0.000000 -1.000000
vn 0.000000 0.000000 -1.000000
vn 0.000000 0.000000 -1.000000
vn 0.000000 0.000000 -1.000000
vn -0.000000 0.000000 -1.000000
vn 0.000000 0.000000 -1.000000
vn 0.000000 0.000000 -1.000000
vn 0.000000 0.000000 -1.000000
vn 0.000000 0.000000 -1.000000
vn 0.000000 0.000000 -1.000000
vn 0.000000 0.000000 -1.000000
vn 0.000000 0.000000 -1.000000
vn 0.000002 0.000000 -1.000000
vn 0.000000 0.000000 -1.000000
vn 0.000002 0.000000 -1.000000
vn 0.000001 0.000000 -1.000000
vn -0.000000 0.000000 -1.000000
vn -0.000000 0.000000 -1.000000
vn 0.000000 0.000000 -1.000000
vn -0.000000 0.000000 -1.000000
vn 0.000000 0.000000 -1.000000
vn -0.000000 0.000000 -1.000000
vn 0.000000 0.000000 -1.000000
vn 0.000000 0.000000 -1.000000
vn 0.000000 0.000000 -1.000000
vn -0.000000 0.000000 -1.000000
vn 0.000000 0.000000 -1.000000
vn 0.000000 0.000000 -1.000000
vn 0.000000 0.000000 -1.000000
vn 0.000000 0.000000 -1.000000
vn 0.000000 -0.000000 -1.000000
vn 0.000000 0.000000 -1.000000
vn 0.000000 0.000000 -1.000000
vn 0.000000 0.000000 -1.000000
vn 0.000001 0.000000 -1.000000
vn -0.000000 0.000000 -1.000000
vn 0.000000 0.000000 -1.000000
vn 0.000000 0.000000 -1.000000
vn 0.000000 0.000000 -1.000000
vn 0.000000 0.000000 -1.000000
vn -0.000000 0.000000 -1.000000
vn -0.000000 0.000000 1.000000
vn -0.000000 0.000000 1.000000
vn -0.000000 0.000000 1.000000
vn -0.000000 0.000000 1.000000
vn -0.000000 0.000000 1.000000
vn -0.000000 0.000000 1.000000
vn -0.000000 -0.000000 1.000000
vn -0.000000 -0.000000 1.000000
vn -0.000000 0.000000 1.000000
vn -0.000000 -0.000000 1.000000
vn -0.000000 -0.000000 1.000000
vn -0.000000 0.000000 1.000000
vn -0.000000 0.000000 1.000000
vn -0.000000 -0.000000 1.000000
vn -0.000000 -0.000000 1.000000
vn -0.000000 0.000000 1.000000
vn -0.000000 0.000000 1.000000
vn -0.000000 0.000000 1.000000
vn -0.000000 0.000000 1.000000
vn -0.000000 -0.000000 1.000000
vn -0.000000 0.000000 1.000000
vn -0.000000 0.000000 1.000000
vn -0.000000 -0.000000 1.000000
vn -0.000000 -0.000000 1.000000
vn -0.000000 0.000000 1.000000
vn -0.000000 -0.000000 1.000000
vn -0.000000 0.000000 1.000000
vn -0.000000 0.000000 1.000000
vn -0.000000 0.000000 1.000000
vn -0.000000 -0.000000 1.000000
vn -0.000000 -0.000000 1.000000
vn -0.000000 0.000000 1.000000
vn -0.000000 -0.000000 1.000000
vn -0.000000 0.000000 1.000000
vn -0.000000 -0.000000 1.000000
vn -0.000000 0.000000 1.000000
vn -0.000000 0.000000 1.000000
vn -0.000000 -0.000000 1.000000
vn -0.000000 0.000000 1.000000
vn -0.000000 0.000000 1.000000
vn -0.000000 0.000000 1.000000
vn -0.000000 0.000000 1.000000
vn -0.000000 -0.000000 1.000000
vn -0.000000 -0.000000 1.000000
vn -0.000000 0.000000 1.000000
vn -0.000000 -0.000000 1.000000
vn -0.000000 0.000000 1.000000
vn -0.000000 0.000000 1.000000
vn -0.000000 0.000000 1.000000
vn -0.000000 0.000000 1.000000
vn -0.000000 0.000000 1.000000
vn -0.000000 0.000000 1.000000
vn -0.000000 0.000000 1.000000
vn -0.000000 0.000000 1.000000
vn -0.000000 0.000000 1.000000
vn -0.000000 0.000000 1.000000
vn -0.945735 -0.324940 0.000000
vn -0.945735 -0.324940 0.000000
vn -0.945735 -0.324940 0.000000
vn -0.945735 -0.324940 0.000000
vn -0.300563 0.953762 0.000000
vn -0.233644 0.972322 0.000000
vn -0.233644 0.972322 0.000000
vn -0.300563 0.953762 0.000000
vn -1.000000 0.000546 0.000000
vn -0.999999 -0.001516 0.000000
vn -0.999999 -0.001516 0.000000
vn -1.000000 0.000546 0.000000
vn 0.545577 0.838061 -0.000000
vn 0.680038 0.733177 -0.000001
vn 0.680038 0.733177 -0.000001
vn 0.545577 0.838061 -0.000000
vn -0.990211 -0.139578 0.000000
vn -0.953667 -0.300865 0.000000
vn -0.953667 -0.300865 0.000000
vn -0.990211 -0.139578 0.000000
vn -0.999576 -0.029111 0.000000
vn -0.999576 -0.029111 0.000000
vn -1.000000 0.000000 0.000000
vn -1.000000 0.000000 -0.000000
vn -1.000000 0.000000 -0.000000
vn -1.000000 0.000000 0.000000
vn -0.782894 -0.622155 0.000000
vn -0.704766 -0.709440 0.000000
vn -0.704766 -0.709440 0.000000
vn -0.782894 -0.622155 0.000000
vn -0.911949 -0.410305 0.000000
vn -0.876998 -0.480493 0.000000
vn -0.876998 -0.480493 0.000000
vn -0.911949 -0.410305 0.000000
vn 0.812122 0.583488 0.000000
vn 0.852150 0.523297 0.000000
vn 0.852150 0.523297 0.000000
vn 0.812122 0.583488 0.000000
vn 0.755743 0.654868 -0.000001
vn 0.755743 0.654868 -0.000001
vn 0.023133 -0.999732 0.000000
vn 0.234389 -0.972143 0.000000
vn 0.234389 -0.972143 0.000000
vn 0.023133 -0.999732 0.000000
vn 0.418687 -0.908131 0.000000
vn 0.484397 -0.874848 0.000000
vn 0.484397 -0.874848 0.000000
vn 0.418687 -0.908131 0.000000
vn -0.945734 -0.324940 0.000001
vn -0.945734 -0.324940 0.000001
vn -0.103683 0.994610 0.000000
vn -0.103683 0.994610 0.000000
vn -1.000000 0.000000 -0.000000
vn -1.000000 0.000000 -0.000000
vn 1.000000 0.000000 0.000000
vn 1.000000 0.000000 0.000000
vn 1.000000 0.000000 0.000000
vn 1.000000 0.000000 0.000000
vn 0.000000 -1.000000 0.000000
vn 0.000000 -1.000000 0.000000
vn 0.000000 -1.000000 0.000000
vn 0.000000 -1.000000 0.000000
vn 1.000000 0.000000 0.000000
vn 1.000000 0.000000 0.000000
vn 0.000000 1.000000 -0.000000
vn 0.000000 1.000000 0.000000
vn 0.000000 1.000000 0.000000
vn 0.000000 1.000000 -0.000000
vn 1.000000 0.000000 0.000000
vn 1.000000 0.000000 0.000000
vn -0.574296 -0.818648 0.000000
vn -0.574296 -0.818648 0.000000
vn 0.864447 0.502723 0.000000
vn 0.864447 0.502723 0.000000
vn -0.836440 -0.548059 0.000000
vn -0.836440 -0.548059 0.000000
vn 0.020167 0.999797 -0.000001
vn 0.020167 0.999797 -0.000001
vn 0.172890 0.984941 -0.000002
vn 0.172890 0.984941 -0.000002
vn -0.163237 -0.986587 0.000001
vn -0.163237 -0.986587 0.000001
vn -0.372737 -0.927937 0.000001
vn -0.372737 -0.927937 0.000001
vn 0.360903 0.932604 -0.000001
vn 0.360903 0.932604 -0.000001
vn 0.000000 1.000000 -0.000000
vn 0.000000 1.000000 -0.000000
s 1
f 57/113/1 58/114/2 59/115/3
f 60/116/4 61/117/5 62/18/6
f 63/38/7 64/118/8 65/119/9
f 66/120/10 67/121/11 68/17/12
f 69/12/13 62/18/6 70/20/14
f 71/122/15 66/120/10 70/20/14
f 72/16/16 68/17/12 73/25/17
f 74/13/18 75/22/19 76/36/20
f 77/123/21 78/124/22 73/25/17
f 79/125/23 80/126/24 81/31/25
f 79/125/23 81/31/25 82/35/26
f 83/127/27 84/128/28 85/33/29
f 86/34/30 82/35/26 87/29/31
f 76/36/20 88/27/32 87/29/31
f 89/129/33 90/130/34 88/27/32
f 75/22/19 63/38/7 76/36/20
f 89/129/33 88/27/32 76/36/20
f 65/119/9 91/131/35 92/40/36
f 93/43/37 94/49/38 95/50/39
f 96/132/40 97/133/41 98/44/42
f 99/45/43 100/46/44 101/48/45
f 102/47/46 101/48/45 75/22/19
f 103/52/47 104/51/48 95/50/39
f 101/48/45 100/46/44 95/50/39
f 75/22/19 101/48/45 104/51/48
f 64/118/8 63/38/7 104/51/48
f 105/134/49 106/135/50 57/113/1
f 97/133/41 105/134/49 107/55/51
f 59/115/3 93/136/37 98/44/42
f 78/124/22 108/137/52 73/25/17
f 59/115/3 107/55/51 57/113/1
f 69/138/13 109/139/53 60/116/4
f 62/18/6 69/138/13 60/116/4
f 65/119/9 92/40/36 63/38/7
f 68/17/12 70/20/14 66/120/10
f 70/20/14 68/17/12 72/16/16
f 70/20/14 72/140/16 69/138/13
f 62/18/6 61/117/5 71/122/15
f 71/122/15 70/20/14 62/18/6
f 73/25/17 110/141/54 111/142/55
f 111/142/55 72/140/16 73/25/17
f 76/36/20 81/31/25 80/126/24
f 80/126/24 74/143/18 76/36/20
f 68/17/12 67/121/11 85/33/29
f 88/27/32 90/130/34 77/123/21
f 73/25/17 68/17/12 77/123/21
f 77/123/21 68/17/12 88/27/32
f 67/121/11 83/127/27 85/33/29
f 87/29/31 88/27/32 68/17/12
f 85/33/29 87/29/31 68/17/12
f 82/35/26 86/144/30 79/125/23
f 87/29/31 85/33/29 84/128/28
f 84/128/28 86/144/30 87/29/31
f 82/35/26 81/31/25 76/36/20
f 76/36/20 87/29/31 82/35/26
f 63/38/7 92/40/36 76/36/20
f 76/36/20 92/40/36 91/131/35
f 91/131/35 89/129/33 76/36/20
f 93/136/37 112/145/56 94/146/38
f 95/50/39 100/46/44 98/44/42
f 95/50/39 98/44/42 93/136/37
f 100/46/44 99/147/43 96/132/40
f 96/132/40 98/44/42 100/46/44
f 101/48/45 102/148/46 99/147/43
f 75/22/19 74/143/18 102/148/46
f 95/50/39 94/146/38 103/149/47
f 95/50/39 104/51/48 101/48/45
f 104/51/48 63/38/7 75/22/19
f 104/51/48 103/149/47 64/118/8
f 57/113/1 107/55/51 105/134/49
f 107/55/51 98/44/42 97/133/41
f 98/44/42 107/55/51 59/115/3
f 108/137/52 110/141/54 73/25/17
s 2
f 53/57/57 56/59/58 5/58/59
f 1/60/60 18/62/61 11/61/62
f 38/63/63 41/65/64 14/64/65
f 19/66/66 17/68/67 15/67/68
f 12/69/69 20/70/70 18/62/61
f 3/71/71 20/70/70 19/66/66
f 16/72/72 25/73/73 17/68/67
f 13/74/74 36/76/75 22/75/76
f 6/77/77 25/73/73 24/78/78
f 30/79/79 31/81/80 28/80/81
f 30/79/79 35/82/82 31/81/80
f 26/83/83 33/85/84 32/84/85
f 34/86/86 29/87/87 35/82/82
f 36/76/75 29/87/87 27/88/88
f 37/89/89 27/88/88 23/90/90
f 22/75/76 36/76/75 38/63/63
f 37/89/89 36/76/75 27/88/88
f 41/65/64 40/92/91 39/91/92
f 43/93/93 50/95/94 49/94/95
f 4/96/96 44/98/97 42/97/98
f 45/99/99 48/101/100 46/100/101
f 47/102/102 22/75/76 48/101/100
f 52/103/103 50/95/94 51/104/104
f 48/101/100 50/95/94 46/100/101
f 22/75/76 51/104/104 48/101/100
f 14/64/65 51/104/104 38/63/63
f 54/105/105 53/57/57 2/106/106
f 42/97/98 55/107/107 54/105/105
f 56/59/58 44/98/97 43/93/93
f 24/78/78 25/73/73 8/108/108
f 56/59/58 53/57/57 55/107/107
f 12/69/69 1/60/60 10/109/109
f 18/62/61 1/60/60 12/69/69
f 41/65/64 38/63/63 40/92/91
f 17/68/67 19/66/66 20/70/70
f 20/70/70 16/72/72 17/68/67
f 20/70/70 12/69/69 16/72/72
f 18/62/61 3/71/71 11/61/62
f 3/71/71 18/62/61 20/70/70
f 25/73/73 9/111/110 21/110/111
f 9/111/110 25/73/73 16/72/72
f 36/76/75 28/80/81 31/81/80
f 28/80/81 36/76/75 13/74/74
f 17/68/67 33/85/84 15/67/68
f 27/88/88 6/77/77 23/90/90
f 25/73/73 6/77/77 17/68/67
f 6/77/77 27/88/88 17/68/67
f 15/67/68 33/85/84 26/83/83
f 29/87/87 17/68/67 27/88/88
f 33/85/84 17/68/67 29/87/87
f 35/82/82 30/79/79 34/86/86
f 29/87/87 32/84/85 33/85/84
f 32/84/85 29/87/87 34/86/86
f 35/82/82 36/76/75 31/81/80
f 36/76/75 35/82/82 29/87/87
f 38/63/63 36/76/75 40/92/91
f 36/76/75 39/91/92 40/92/91
f 39/91/92 36/76/75 37/89/89
f 43/93/93 49/94/95 7/112/112
f 50/95/94 44/98/97 46/100/101
f 50/95/94 43/93/93 44/98/97
f 46/100/101 4/96/96 45/99/99
f 4/96/96 46/100/101 44/98/97
f 48/101/100 45/99/99 47/102/102
f 22/75/76 47/102/102 13/74/74
f 50/95/94 52/103/103 49/94/95
f 50/95/94 48/101/100 51/104/104
f 51/104/104 22/75/76 38/63/63
f 51/104/104 14/64/65 52/103/103
f 53/57/57 54/105/105 55/107/107
f 55/107/107 42/97/98 44/98/97
f 44/98/97 56/59/58 55/107/107
f 8/108/108 25/73/73 21/110/111
s 3
f 53/53/113 5/5/114 58/114/115 57/113/116
s 4
f 5/5/117 56/56/118 59/115/119 58/114/120
s 5
f 1/1/121 11/11/122 61/117/123 60/116/124
s 4
f 14/14/125 41/41/126 65/119/127 64/118/128
s 5
f 19/19/129 15/15/130 67/121/131 66/120/132
f 3/3/133 19/19/129 66/120/132 71/122/134
s 6
f 6/6/135 24/24/136 78/124/137 77/123/138
s 5
f 30/30/139 28/28/140 80/126/141 79/125/142
f 26/26/143 32/32/144 84/128/145 83/127/146
s 4
f 37/37/147 23/23/148 90/130/149 89/129/150
f 41/41/126 39/39/151 91/131/152 65/119/127
s 5
f 4/4/153 42/42/154 97/133/155 96/132/156
f 54/54/157 2/2/158 106/135/159 105/134/160
s 3
f 2/2/161 53/53/113 57/113/116 106/135/162
s 5
f 42/42/154 54/54/157 105/134/160 97/133/155
s 4
f 56/56/118 43/43/163 93/136/164 59/115/119
s 6
f 24/24/136 8/8/165 108/137/166 78/124/137
s 7
f 12/12/167 10/10/168 109/139/169 69/138/170
s off
f 10/10/171 1/1/172 60/116/173 109/139/174
s 7
f 16/16/175 12/12/167 69/138/170 72/140/176
s 5
f 11/11/122 3/3/133 71/122/134 61/117/123
s 9
f 21/21/177 9/9/178 111/142/179 110/141/180
s 7
f 9/9/181 16/16/175 72/140/176 111/142/182
s 5
f 28/28/140 13/13/183 74/143/184 80/126/141
s 4
f 23/23/148 6/6/185 77/123/186 90/130/149
s 5
f 15/15/130 26/26/143 83/127/146 67/121/131
f 34/34/187 30/30/139 79/125/142 86/144/188
f 32/32/144 34/34/187 86/144/188 84/128/145
s 4
f 39/39/151 37/37/147 89/129/150 91/131/152
f 43/43/163 7/7/189 112/145/190 93/136/164
f 7/7/189 49/49/191 94/146/192 112/145/190
s 5
f 45/45/193 4/4/153 96/132/156 99/147/194
f 47/47/195 45/45/193 99/147/194 102/148/196
f 13/13/183 47/47/195 102/148/196 74/143/184
s 4
f 49/49/191 52/52/197 103/149/198 94/146/192
f 52/52/197 14/14/125 64/118/128 103/149/198
s 9
f 8/8/199 21/21/177 110/141/180 108/137/200
