# This file uses centimeters as units for non-parametric coordinates.

mtllib v_lower.mtl
g default
v -1.092189 -0.000000 -0.000000
v -1.900000 2.100000 -0.000000
v -1.584376 2.100000 -0.000000
v -0.950001 0.418750 -0.000000
v -0.315625 2.100000 -0.000000
v 0.000000 2.100000 0.000000
v -0.815625 -0.000000 -0.000000
v -1.496094 1.050000 -0.000000
v -1.170060 1.050286 -0.000000
v -0.735093 1.050312 -0.000000
v -0.407813 1.050000 -0.000000
v -0.712501 1.050000 -0.000000
v -0.712501 0.265516 -0.000000
v -0.712997 1.104922 -0.000000
v -1.496094 1.050000 -0.100000
v -1.900000 2.100000 -0.100000
v -1.584376 2.100000 -0.100000
v -1.170060 1.050286 -0.100000
v -0.950001 0.418750 -0.100000
v -0.712501 1.050000 -0.100000
v -0.407813 1.050000 -0.100000
v -0.712501 0.265516 -0.100000
v -0.315625 2.100000 -0.100000
v 0.000000 2.100000 -0.100000
v -0.735093 1.050312 -0.100000
v -0.712997 1.104922 -0.100000
v -0.815625 -0.000000 -0.100000
v -1.092189 -0.000000 -0.100000
vt 0.574836 0.000000
vt 1.000000 1.000000
vt 0.833882 1.000000
vt 0.500000 0.199405
vt 0.166119 1.000000
vt 0.000000 1.000000
vt 0.429276 0.000000
vt 0.787418 0.500000
vt 0.616199 0.500000
vt 0.386485 0.500000
vt 0.214638 0.500000
vt 0.375000 0.500000
vt 0.375000 0.126436
vt 0.375000 0.526058
vt 0.787418 0.500000
vt 1.000000 1.000000
vt 0.833882 1.000000
vt 0.616199 0.500000
vt 0.500000 0.199405
vt 0.375000 0.500000
vt 0.214638 0.500000
vt 0.375000 0.126436
vt 0.166119 1.000000
vt 0.000000 1.000000
vt 0.386485 0.500000
vt 0.375000 0.526058
vt 0.429276 0.000000
vt 0.574836 0.000000
vt 0.787418 0.500000
vt 1.000000 1.000000
vt 0.833882 1.000000
vt 0.616199 0.500000
vt 0.500000 0.199405
vt 0.214638 0.500000
vt 0.375000 0.126436
vt 0.166119 1.000000
vt 0.000000 1.000000
vt 0.386485 0.500000
vt 0.375000 0.526058
vt 0.429276 0.000000
vt 0.574836 0.000000
vn 0.000000 0.000000 -1.000000
vn 0.000000 0.000000 -1.000000
vn 0.000000 0.000000 -1.000000
vn 0.000000 0.000000 -1.000000
vn -0.000000 0.000000 -1.000000
vn -0.000000 0.000000 -1.000000
vn -0.000000 0.000000 -1.000000
vn -0.000000 0.000000 -1.000000
vn -0.000000 0.000000 -1.000000
vn 0.000000 0.000000 -1.000000
vn -0.000000 0.000000 -1.000000
vn -0.000000 0.000000 -1.000000
vn 0.000000 0.000000 -1.000000
vn 0.000000 0.000000 -1.000000
vn -0.000000 -0.000000 1.000000
vn -0.000000 -0.000000 1.000000
vn -0.000000 -0.000000 1.000000
vn -0.000000 0.000000 1.000000
vn -0.000000 -0.000000 1.000000
vn -0.000000 0.000000 1.000000
vn -0.000000 -0.000000 1.000000
vn -0.000000 0.000000 1.000000
vn -0.000000 -0.000000 1.000000
vn -0.000000 0.000000 1.000000
vn -0.000000 0.000000 1.000000
vn -0.000000 0.000000 1.000000
vn -0.000000 0.000000 1.000000
vn -0.000000 0.000000 1.000000
vn -0.933328 -0.359025 0.000000
vn -0.933328 -0.359025 0.000000
vn -0.933328 -0.359025 0.000000
vn -0.933328 -0.359025 0.000000
vn 0.000000 1.000000 0.000000
vn 0.000000 1.000000 0.000000
vn 0.000000 1.000000 0.000000
vn 0.000000 1.000000 0.000000
vn 0.937435 0.348162 0.000000
vn 0.944314 0.329047 0.000000
vn 0.944314 0.329047 0.000000
vn 0.937435 0.348162 0.000000
vn 0.932161 -0.362045 0.000000
vn 0.932161 -0.362045 0.000000
vn 0.932161 -0.362045 0.000000
vn 0.932161 -0.362045 0.000000
vn 0.000000 1.000000 0.000000
vn 0.000000 1.000000 0.000000
vn 0.000000 1.000000 0.000000
vn 0.000000 1.000000 0.000000
vn 0.932161 -0.362045 0.000000
vn 0.932161 -0.362045 0.000000
vn -0.937216 0.348749 0.000000
vn -0.927843 0.372971 0.000000
vn -0.927843 0.372971 0.000000
vn -0.937216 0.348749 0.000000
vn 0.930169 0.367133 0.000000
vn 0.930169 0.367133 0.000000
vn 0.932161 -0.362045 0.000000
vn 0.932161 -0.362045 0.000000
vn 0.000000 -1.000000 0.000000
vn 0.000000 -1.000000 0.000000
vn 0.000000 -1.000000 0.000000
vn 0.000000 -1.000000 0.000000
vn -0.933328 -0.359025 0.000000
vn -0.933328 -0.359025 0.000000
vn -0.946692 0.322140 0.000000
vn -0.946692 0.322140 0.000000
vn -0.928689 0.370860 0.000000
vn -0.928689 0.370860 0.000000
s 1
f 15/29/1 16/30/2 17/31/3
f 15/29/1 18/32/4 19/33/5
f 20/12/6 21/34/7 22/35/8
f 23/36/9 24/37/10 21/34/7
f 25/38/11 26/39/12 20/12/6
f 17/31/3 18/32/4 15/29/1
f 25/38/11 20/12/6 22/35/8
f 19/33/5 22/35/8 27/40/13
f 19/33/5 27/40/13 28/41/14
f 19/33/5 28/41/14 15/29/1
f 22/35/8 19/33/5 25/38/11
f 21/34/7 20/12/6 26/39/12
f 26/39/12 23/36/9 21/34/7
s 2
f 8/15/15 3/17/16 2/16/17
f 8/15/15 4/19/18 9/18/19
f 12/20/20 13/22/21 11/21/22
f 5/23/23 11/21/22 6/24/24
f 10/25/25 12/20/20 14/26/26
f 3/17/16 8/15/15 9/18/19
f 10/25/25 13/22/21 12/20/20
f 4/19/18 7/27/27 13/22/21
f 4/19/18 1/28/28 7/27/27
f 4/19/18 8/15/15 1/28/28
f 13/22/21 10/25/25 4/19/18
f 11/21/22 14/26/26 12/20/20
f 14/26/26 11/21/22 5/23/23
s 3
f 8/8/29 2/2/30 16/30/31 15/29/32
s off
f 2/2/33 3/3/34 17/31/35 16/30/36
s 5
f 9/9/37 4/4/38 19/33/39 18/32/40
s 6
f 11/11/41 13/13/42 22/35/43 21/34/44
s off
f 5/5/45 6/6/46 24/37/47 23/36/48
s 6
f 6/6/49 11/11/41 21/34/44 24/37/50
s 8
f 10/10/51 14/14/52 26/39/53 25/38/54
s 5
f 3/3/55 9/9/37 18/32/40 17/31/56
s 6
f 13/13/42 7/7/57 27/40/58 22/35/43
s off
f 7/7/59 1/1/60 28/41/61 27/40/62
s 3
f 1/1/63 8/8/29 15/29/32 28/41/64
s 8
f 4/4/65 10/10/51 25/38/54 19/33/66
f 14/14/52 5/5/67 23/36/68 26/39/53
