# This file uses centimeters as units for non-parametric coordinates.

mtllib w_lower.mtl
g default
v -0.993751 0.000000 -0.000000
v -1.450001 1.615625 -0.000000
v -1.593751 1.229688 -0.000000
v -1.912500 -0.000000 -0.000000
v -2.126563 0.000000 -0.000000
v -2.950001 2.100000 -0.000000
v -2.637501 2.100000 -0.000000
v -2.050001 0.481251 -0.000000
v -1.587501 2.100000 -0.000000
v -1.314063 2.100000 -0.000000
v -0.842188 0.437501 -0.000000
v -0.262501 2.100000 -0.000000
v 0.049999 2.100000 0.000000
v -0.760938 0.000000 -0.000000
v -1.290269 1.050000 -0.000000
v -1.640329 1.050000 -0.000000
v -2.538282 1.050000 -0.000000
v -2.247797 1.050000 -0.000000
v -1.898514 1.050000 -0.000000
v -1.007931 1.050013 -0.000000
v -0.647456 1.050000 -0.000000
v -0.355470 1.050000 -0.000000
v -1.825001 1.050000 -0.000000
v -1.825001 0.337561 -0.000000
v -1.825001 1.298185 -0.000000
v -1.825001 1.050000 -0.100000
v -1.898514 1.050000 -0.100000
v -1.825001 1.298185 -0.100000
v -2.538282 1.050000 -0.100000
v -2.247797 1.050000 -0.100000
v -2.050001 0.481251 -0.100000
v -1.290269 1.050000 -0.100000
v -1.007931 1.050013 -0.100000
v -0.842188 0.437501 -0.100000
v -1.450001 1.615625 -0.100000
v -1.587501 2.100000 -0.100000
v -1.314063 2.100000 -0.100000
v -2.950001 2.100000 -0.100000
v -2.637501 2.100000 -0.100000
v -1.640329 1.050000 -0.100000
v -1.825001 0.337561 -0.100000
v -0.262501 2.100000 -0.100000
v 0.049999 2.100000 -0.100000
v -0.355470 1.050000 -0.100000
v -1.912500 -0.000000 -0.100000
v -2.126563 0.000000 -0.100000
v -0.647456 1.050000 -0.100000
v -0.760938 0.000000 -0.100000
v -0.993751 0.000000 -0.100000
v -1.593751 1.229688 -0.100000
vt 0.347917 0.000000
vt 0.500000 0.769345
vt 0.547917 0.585566
vt 0.654166 0.000000
vt 0.725521 0.000000
vt 1.000000 1.000000
vt 0.895833 1.000000
vt 0.700000 0.229167
vt 0.545834 1.000000
vt 0.454687 1.000000
vt 0.297396 0.208334
vt 0.104167 1.000000
vt 0.000000 1.000000
vt 0.270313 0.000000
vt 0.446756 0.500000
vt 0.563443 0.500000
vt 0.862760 0.500000
vt 0.765932 0.500000
vt 0.649504 0.500000
vt 0.352658 0.500000
vt 0.232485 0.500000
vt 0.135156 0.500000
vt 0.625000 0.500000
vt 0.625000 0.160743
vt 0.625000 0.618183
vt 0.625000 0.500000
vt 0.649504 0.500000
vt 0.625000 0.618183
vt 0.862760 0.500000
vt 0.765932 0.500000
vt 0.700000 0.229167
vt 0.446756 0.500000
vt 0.352658 0.500000
vt 0.297396 0.208334
vt 0.500000 0.769345
vt 0.545834 1.000000
vt 0.454687 1.000000
vt 1.000000 1.000000
vt 0.895833 1.000000
vt 0.563443 0.500000
vt 0.625000 0.160743
vt 0.104167 1.000000
vt 0.000000 1.000000
vt 0.135156 0.500000
vt 0.654166 0.000000
vt 0.725521 0.000000
vt 0.232485 0.500000
vt 0.270313 0.000000
vt 0.347917 0.000000
vt 0.547917 0.585566
vt 0.649504 0.500000
vt 0.625000 0.618183
vt 0.765932 0.500000
vt 0.700000 0.229167
vt 0.352658 0.500000
vt 0.297396 0.208334
vt 0.545834 1.000000
vt 0.454687 1.000000
vt 0.862760 0.500000
vt 1.000000 1.000000
vt 0.895833 1.000000
vt 0.563443 0.500000
vt 0.625000 0.160743
vt 0.104167 1.000000
vt 0.000000 1.000000
vt 0.135156 0.500000
vt 0.654166 0.000000
vt 0.725521 0.000000
vt 0.232485 0.500000
vt 0.270313 0.000000
vt 0.347917 0.000000
vt 0.446756 0.500000
vt 0.500000 0.769345
vt 0.547917 0.585566
vn 0.000000 -0.000000 -1.000000
vn 0.000000 -0.000000 -1.000000
vn 0.000000 -0.000000 -1.000000
vn 0.000000 -0.000000 -1.000000
vn 0.000000 -0.000000 -1.000000
vn 0.000000 0.000000 -1.000000
vn 0.000000 0.000000 -1.000000
vn 0.000000 0.000000 -1.000000
vn -0.000000 0.000000 -1.000000
vn 0.000000 -0.000000 -1.000000
vn 0.000000 -0.000000 -1.000000
vn 0.000000 -0.000000 -1.000000
vn 0.000000 -0.000000 -1.000000
vn 0.000000 -0.000000 -1.000000
vn 0.000000 -0.000000 -1.000000
vn 0.000000 0.000000 -1.000000
vn 0.000000 0.000000 -1.000000
vn 0.000000 0.000000 -1.000000
vn -0.000000 0.000000 -1.000000
vn 0.000000 -0.000000 -1.000000
vn 0.000000 0.000000 -1.000000
vn -0.000000 0.000000 -1.000000
vn -0.000000 -0.000000 -1.000000
vn 0.000000 0.000000 -1.000000
vn 0.000000 -0.000000 -1.000000
vn -0.000000 0.000000 1.000000
vn -0.000000 -0.000000 1.000000
vn -0.000000 -0.000000 1.000000
vn -0.000000 -0.000000 1.000000
vn -0.000000 0.000000 1.000000
vn -0.000000 -0.000000 1.000000
vn -0.000000 0.000000 1.000000
vn -0.000000 -0.000000 1.000000
vn -0.000000 -0.000000 1.000000
vn -0.000000 -0.000000 1.000000
vn -0.000000 -0.000000 1.000000
vn -0.000000 -0.000000 1.000000
vn -0.000000 -0.000000 1.000000
vn -0.000000 0.000000 1.000000
vn -0.000000 0.000000 1.000000
vn -0.000000 -0.000000 1.000000
vn -0.000000 0.000000 1.000000
vn -0.000000 0.000000 1.000000
vn -0.000000 0.000000 1.000000
vn -0.000000 0.000000 1.000000
vn -0.000000 0.000000 1.000000
vn -0.000000 0.000000 1.000000
vn -0.000000 0.000000 1.000000
vn -0.000000 -0.000000 1.000000
vn -0.000000 -0.000000 1.000000
vn -0.962659 0.270718 0.000000
vn -0.958823 0.284006 0.000000
vn -0.958823 0.284006 0.000000
vn -0.962659 0.270718 0.000000
vn 0.941062 0.338234 0.000000
vn 0.944512 0.328477 0.000000
vn 0.944512 0.328477 0.000000
vn 0.941062 0.338234 0.000000
vn 0.962702 0.270565 0.000000
vn 0.965284 0.261201 0.000000
vn 0.965284 0.261201 0.000000
vn 0.962702 0.270565 0.000000
vn 0.000000 1.000000 0.000000
vn 0.000000 1.000000 0.000000
vn 0.000000 1.000000 0.000000
vn 0.000000 1.000000 0.000000
vn -0.930987 -0.365052 0.000000
vn -0.930987 -0.365052 0.000000
vn -0.930987 -0.365052 0.000000
vn -0.930987 -0.365052 0.000000
vn 0.000000 1.000000 0.000000
vn 0.000000 1.000000 0.000000
vn 0.000000 1.000000 0.000000
vn 0.000000 1.000000 0.000000
vn 0.968008 -0.250919 0.000000
vn 0.968008 -0.250918 0.000000
vn 0.968008 -0.250918 0.000000
vn 0.968008 -0.250919 0.000000
vn 0.000000 1.000000 0.000002
vn 0.000000 1.000000 0.000002
vn 0.000000 1.000000 0.000002
vn 0.000000 1.000000 0.000002
vn 0.932862 -0.360235 -0.000000
vn 0.932862 -0.360235 -0.000000
vn 0.932862 -0.360235 -0.000000
vn 0.932862 -0.360235 -0.000000
vn 0.968008 -0.250918 0.000000
vn 0.968008 -0.250918 0.000000
vn -0.000000 -1.000000 0.000000
vn -0.000000 -1.000000 0.000000
vn -0.000000 -1.000000 0.000000
vn -0.000000 -1.000000 0.000000
vn -0.930987 -0.365053 0.000000
vn -0.930987 -0.365053 0.000000
vn -0.966311 0.257378 0.000000
vn -0.966311 0.257378 0.000000
vn -0.952995 0.302985 0.000000
vn -0.946167 0.323679 0.000000
vn -0.946167 0.323679 0.000000
vn -0.952995 0.302985 0.000000
vn 0.000000 -1.000000 0.000000
vn 0.000000 -1.000000 0.000000
vn 0.000000 -1.000000 0.000000
vn 0.000000 -1.000000 0.000000
vn -0.962363 -0.271769 0.000000
vn -0.962363 -0.271769 0.000000
vn -0.962363 -0.271769 0.000000
vn -0.962363 -0.271769 0.000000
vn 0.932862 -0.360235 0.000000
vn 0.932862 -0.360235 0.000000
vn -0.958823 0.284006 0.000000
vn -0.958823 0.284006 0.000000
vn -0.962362 -0.271769 0.000000
vn -0.962362 -0.271769 0.000000
vn 0.960028 0.279904 0.000000
vn 0.960028 0.279904 0.000000
vn 0.937106 -0.349045 0.000000
vn 0.953820 -0.300380 0.000000
vn 0.953820 -0.300380 0.000000
vn 0.937106 -0.349045 0.000000
vn 0.937512 0.347954 0.000000
vn 0.937512 0.347954 0.000000
vn -0.938889 0.344220 0.000000
vn -0.938889 0.344220 0.000000
s 1
usemtl initialShadingGroup
f 26/23/1 27/51/2 28/52/3
f 29/17/4 30/53/5 31/54/6
f 32/15/7 33/55/8 34/56/9
f 35/2/10 36/57/11 37/58/12
f 29/59/4 38/60/13 39/61/14
f 26/23/1 40/62/15 41/63/16
f 42/64/17 43/65/18 44/66/19
f 27/51/2 26/23/1 41/63/16
f 41/63/16 45/67/20 46/68/21
f 31/54/6 41/63/16 46/68/21
f 31/54/6 46/68/21 29/59/4
f 41/63/16 31/54/6 27/51/2
f 34/56/9 47/69/22 44/66/19
f 34/56/9 48/70/23 49/71/24
f 49/71/24 32/72/7 34/56/9
f 44/66/19 48/70/23 34/56/9
f 40/62/15 26/23/1 28/52/3
f 35/2/10 28/52/3 36/57/11
f 33/55/8 32/72/7 35/73/10
f 35/73/10 37/58/12 33/55/8
f 28/52/3 35/73/10 50/74/25
f 28/52/3 50/74/25 40/62/15
f 39/61/14 30/53/5 29/59/4
f 44/66/19 47/69/22 42/64/17
s 2
f 23/26/26 25/28/27 19/27/28
f 17/29/29 8/31/30 18/30/31
f 15/32/32 11/34/33 20/33/34
f 2/35/35 10/37/36 9/36/37
f 17/29/29 7/39/38 6/38/39
f 23/26/26 24/41/40 16/40/41
f 12/42/42 22/44/43 13/43/44
f 19/27/28 24/41/40 23/26/26
f 24/41/40 5/46/45 4/45/46
f 8/31/30 5/46/45 24/41/40
f 8/31/30 17/29/29 5/46/45
f 24/41/40 19/27/28 8/31/30
f 11/34/33 22/44/43 21/47/47
f 11/34/33 1/49/48 14/48/49
f 1/49/48 11/34/33 15/32/32
f 22/44/43 11/34/33 14/48/49
f 16/40/41 25/28/27 23/26/26
f 2/35/35 9/36/37 25/28/27
f 20/33/34 2/35/35 15/32/32
f 2/35/35 20/33/34 10/37/36
f 25/28/27 3/50/50 2/35/35
f 25/28/27 16/40/41 3/50/50
f 7/39/38 17/29/29 18/30/31
f 22/44/43 12/42/42 21/47/47
s 3
f 19/19/51 25/25/52 28/52/53 27/51/54
s 4
f 18/18/55 8/8/56 31/54/57 30/53/58
s 5
f 20/20/59 11/11/60 34/56/61 33/55/62
s off
f 9/9/63 10/10/64 37/58/65 36/57/66
s 7
f 17/17/67 6/6/68 38/60/69 29/59/70
s off
f 6/6/71 7/7/72 39/61/73 38/60/74
s 9
f 16/16/75 24/24/76 41/63/77 40/62/78
s off
f 12/12/79 13/13/80 43/65/81 42/64/82
s 11
f 13/13/83 22/22/84 44/66/85 43/65/86
s 9
f 24/24/76 4/4/87 45/67/88 41/63/77
s off
f 4/4/89 5/5/90 46/68/91 45/67/92
s 7
f 5/5/93 17/17/67 29/59/70 46/68/94
s 3
f 8/8/95 19/19/51 27/51/54 31/54/96
s 13
f 11/11/97 21/21/98 47/69/99 34/56/100
s off
f 14/14/101 1/1/102 49/71/103 48/70/104
s 15
f 1/1/105 15/15/106 32/72/107 49/71/108
s 11
f 22/22/84 14/14/109 48/70/110 44/66/85
s 3
f 25/25/52 9/9/111 36/57/112 28/52/53
s 15
f 15/15/106 2/2/113 35/73/114 32/72/107
s 5
f 10/10/115 20/20/59 33/55/62 37/58/116
s 9
f 2/2/117 3/3/118 50/74/119 35/73/120
f 3/3/118 16/16/75 40/62/78 50/74/119
s 4
f 7/7/121 18/18/55 30/53/58 39/61/122
s 13
f 21/21/98 12/12/123 42/64/124 47/69/99
