# This file uses centimeters as units for non-parametric coordinates.

mtllib W_UPPER.mtl
g default
v -1.148438 -0.000000 -0.000000
v -1.850001 2.462501 -0.000000
v -2.554688 -0.000000 -0.000000
v -2.953126 -0.000000 -0.000000
v -3.700000 2.800000 -0.000000
v -3.390626 2.800000 -0.000000
v -2.750001 0.392189 -0.000000
v -2.062501 2.800000 -0.000000
v -1.635938 2.800000 -0.000000
v -0.950001 0.392189 -0.000000
v -0.309375 2.800000 -0.000000
v 0.000000 2.800000 0.000000
v -0.748438 -0.000000 -0.000000
v -1.547294 1.399991 -0.000000
v -2.154463 1.400019 -0.000000
v -3.326563 1.400000 -0.000000
v -3.018158 1.400068 -0.000000
v -2.462234 1.400025 -0.000000
v -1.237093 1.399955 -0.000000
v -0.681861 1.400000 -0.000000
v -0.374219 1.400000 -0.000000
v -1.387519 0.839178 -0.000000
v -1.387501 1.400000 -0.000000
v -1.387551 1.928098 -0.000000
v -1.850001 2.462501 -0.100000
v -1.635938 2.800000 -0.100000
v -1.387551 1.928098 -0.100000
v -1.387519 0.839178 -0.100000
v -1.547294 1.399992 -0.100000
v -1.387501 1.400000 -0.100000
v -1.237093 1.399955 -0.100000
v -3.326563 1.400000 -0.100000
v -3.700000 2.800000 -0.100000
v -3.390626 2.800000 -0.100000
v -3.018158 1.400068 -0.100000
v -2.750001 0.392189 -0.100000
v -0.309375 2.800000 -0.100000
v 0.000000 2.800000 -0.100000
v -0.374219 1.400000 -0.100000
v -2.154463 1.400019 -0.100000
v -2.462234 1.400025 -0.100000
v -2.062501 2.800000 -0.100000
v -0.950001 0.392189 -0.100000
v -0.681861 1.400000 -0.100000
v -0.748438 -0.000000 -0.100000
v -1.148438 -0.000000 -0.100000
v -2.554688 -0.000000 -0.100000
v -2.953126 -0.000000 -0.100000
vt 0.310389 0.000000
vt 0.500000 0.879465
vt 0.690456 0.000000
vt 0.798142 0.000000
vt 1.000000 1.000000
vt 0.916386 1.000000
vt 0.743243 0.140067
vt 0.557433 1.000000
vt 0.442145 1.000000
vt 0.256757 0.140067
vt 0.083615 1.000000
vt 0.000000 1.000000
vt 0.202281 0.000000
vt 0.418179 0.500000
vt 0.582269 0.500000
vt 0.899071 0.500000
vt 0.815787 0.500000
vt 0.665445 0.500000
vt 0.334307 0.500000
vt 0.184286 0.500000
vt 0.101140 0.500000
vt 0.375000 0.299708
vt 0.375000 0.500000
vt 0.375000 0.688611
vt 0.500000 0.879465
vt 0.442145 1.000000
vt 0.375000 0.688611
vt 0.375000 0.299708
vt 0.418179 0.500000
vt 0.375000 0.500000
vt 0.334307 0.500000
vt 0.899071 0.500000
vt 1.000000 1.000000
vt 0.916386 1.000000
vt 0.815787 0.500000
vt 0.743243 0.140067
vt 0.083615 1.000000
vt 0.000000 1.000000
vt 0.101140 0.500000
vt 0.582269 0.500000
vt 0.665445 0.500000
vt 0.557433 1.000000
vt 0.256757 0.140067
vt 0.184286 0.500000
vt 0.202281 0.000000
vt 0.310389 0.000000
vt 0.690456 0.000000
vt 0.798142 0.000000
vt 0.442145 1.000000
vt 0.375000 0.688611
vt 0.375000 0.299708
vt 0.418179 0.500000
vt 0.334307 0.500000
vt 0.899071 0.500000
vt 1.000000 1.000000
vt 0.916386 1.000000
vt 0.815787 0.500000
vt 0.743243 0.140067
vt 0.083615 1.000000
vt 0.000000 1.000000
vt 0.101140 0.500000
vt 0.500000 0.879465
vt 0.582269 0.500000
vt 0.557433 1.000000
vt 0.665445 0.500000
vt 0.256757 0.140067
vt 0.184286 0.500000
vt 0.202281 0.000000
vt 0.310389 0.000000
vt 0.690456 0.000000
vt 0.798142 0.000000
vn -0.000000 0.000000 -1.000000
vn 0.000000 0.000000 -1.000000
vn 0.000000 0.000000 -1.000000
vn -0.000000 0.000000 -1.000000
vn 0.000000 0.000000 -1.000000
vn 0.000000 0.000000 -1.000000
vn 0.000000 0.000000 -1.000000
vn 0.000000 0.000000 -1.000000
vn 0.000000 0.000000 -1.000000
vn 0.000000 0.000000 -1.000000
vn 0.000000 0.000000 -1.000000
vn -0.000000 0.000000 -1.000000
vn -0.000000 -0.000000 -1.000000
vn 0.000000 -0.000000 -1.000000
vn 0.000000 -0.000000 -1.000000
vn -0.000000 0.000000 -1.000000
vn -0.000000 0.000000 -1.000000
vn -0.000000 0.000000 -1.000000
vn 0.000000 -0.000000 -1.000000
vn 0.000000 -0.000000 -1.000000
vn 0.000000 0.000000 -1.000000
vn 0.000000 0.000000 -1.000000
vn -0.000000 0.000000 -1.000000
vn 0.000000 0.000000 -1.000000
vn -0.000000 0.000000 1.000000
vn -0.000000 -0.000000 1.000000
vn -0.000000 -0.000000 1.000000
vn -0.000000 0.000000 1.000000
vn -0.000000 -0.000000 1.000000
vn -0.000000 0.000000 1.000000
vn -0.000000 -0.000000 1.000000
vn -0.000000 -0.000000 1.000000
vn -0.000000 -0.000000 1.000000
vn -0.000000 -0.000000 1.000000
vn -0.000000 0.000000 1.000000
vn -0.000000 0.000000 1.000000
vn -0.000000 -0.000000 1.000000
vn -0.000000 -0.000000 1.000000
vn -0.000000 -0.000000 1.000000
vn -0.000000 0.000000 1.000000
vn -0.000000 0.000000 1.000000
vn -0.000000 -0.000000 1.000000
vn -0.000000 -0.000000 1.000000
vn -0.000000 0.000000 1.000000
vn -0.000000 0.000000 1.000000
vn -0.000000 -0.000000 1.000000
vn -0.000000 0.000000 1.000000
vn -0.000000 0.000000 1.000000
vn 0.961736 0.273979 0.000000
vn 0.961736 0.273979 0.000000
vn 0.961736 0.273979 0.000000
vn 0.961736 0.273979 0.000000
vn -0.961731 -0.273996 0.000000
vn -0.961731 -0.273996 0.000001
vn -0.961731 -0.273996 0.000001
vn -0.961731 -0.273996 0.000000
vn 0.961736 0.273979 -0.000000
vn 0.961736 0.273979 -0.000000
vn -0.966217 -0.257730 0.000000
vn -0.966217 -0.257730 0.000000
vn -0.966217 -0.257730 0.000000
vn -0.966217 -0.257730 0.000000
vn 0.000000 1.000000 0.000000
vn 0.000000 1.000000 0.000000
vn 0.000000 1.000000 0.000000
vn 0.000000 1.000000 0.000000
vn 0.966380 0.257117 0.000000
vn 0.966380 0.257117 0.000000
vn 0.966380 0.257117 0.000000
vn 0.966380 0.257117 0.000000
vn 0.000000 1.000000 -0.000001
vn 0.000000 1.000000 -0.000001
vn 0.000000 1.000000 -0.000001
vn 0.000000 1.000000 -0.000001
vn 0.966083 -0.258233 0.000000
vn 0.966083 -0.258233 0.000000
vn 0.966083 -0.258233 0.000000
vn 0.966083 -0.258233 0.000000
vn 0.961310 -0.275470 -0.000000
vn 0.961397 -0.275166 -0.000000
vn 0.961397 -0.275166 -0.000000
vn 0.961310 -0.275470 -0.000000
vn 0.000000 1.000000 0.000000
vn 0.000000 1.000000 0.000000
vn 0.000000 1.000000 0.000000
vn 0.000000 1.000000 0.000000
vn -0.961731 -0.273996 0.000001
vn -0.961731 -0.273996 0.000001
vn -0.961571 0.274556 0.000000
vn -0.961571 0.274556 0.000000
vn -0.961571 0.274556 0.000000
vn -0.961571 0.274556 0.000000
vn -0.966380 0.257117 0.000000
vn -0.966380 0.257117 0.000000
vn -0.966380 0.257117 0.000000
vn -0.966380 0.257117 0.000000
vn 0.000000 -1.000000 0.000000
vn 0.000000 -1.000000 0.000000
vn 0.000000 -1.000000 0.000000
vn 0.000000 -1.000000 0.000000
vn -0.961731 -0.273996 0.000000
vn -0.961731 -0.273996 0.000000
vn 0.961736 0.273979 -0.000001
vn 0.961736 0.273979 -0.000001
vn 0.966083 -0.258233 0.000000
vn 0.966083 -0.258233 0.000000
vn 0.966380 0.257117 0.000000
vn 0.966380 0.257117 0.000000
vn -0.961571 0.274556 0.000000
vn -0.961571 0.274556 0.000000
vn 0.000000 -1.000000 0.000000
vn 0.000000 -1.000000 0.000000
vn 0.000000 -1.000000 0.000000
vn 0.000000 -1.000000 0.000000
vn -0.966217 -0.257730 0.000000
vn -0.966217 -0.257730 0.000000
vn 0.961484 -0.274861 0.000000
vn 0.961484 -0.274861 0.000000
vn -0.966380 0.257117 0.000000
vn -0.966380 0.257117 0.000000
s 1
usemtl initialShadingGroup
f 25/2/1 26/49/2 27/50/3
f 28/51/4 29/52/5 30/23/6
f 28/51/4 30/23/6 31/19/7
f 27/50/3 31/53/7 30/23/6
f 32/54/8 33/55/9 34/56/10
f 32/54/8 35/57/11 36/58/12
f 37/59/13 38/60/14 39/61/15
f 25/62/1 40/63/16 41/18/17
f 25/62/1 42/64/18 26/49/2
f 27/50/3 30/23/6 29/52/5
f 29/52/5 25/62/1 27/50/3
f 41/65/17 42/64/18 25/62/1
f 43/66/19 44/67/20 39/61/15
f 43/66/19 45/68/21 46/69/22
f 43/66/19 46/69/22 28/51/4
f 31/53/7 43/66/19 28/51/4
f 39/61/15 45/68/21 43/66/19
f 34/56/10 35/57/11 32/54/8
f 36/58/12 41/65/17 40/63/16
f 36/58/12 47/70/23 48/71/24
f 36/58/12 48/71/24 32/54/8
f 40/63/16 47/70/23 36/58/12
f 39/61/15 44/67/20 37/59/13
s 2
f 2/25/25 24/27/26 9/26/27
f 22/28/28 23/30/29 14/29/30
f 22/28/28 19/31/31 23/30/29
f 24/27/26 23/30/29 19/31/31
f 16/32/32 6/34/33 5/33/34
f 16/32/32 7/36/35 17/35/36
f 11/37/37 21/39/38 12/38/39
f 2/25/25 18/41/40 15/40/41
f 2/25/25 9/26/27 8/42/42
f 24/27/26 14/29/30 23/30/29
f 14/29/30 24/27/26 2/25/25
f 18/41/40 2/25/25 8/42/42
f 10/43/43 21/39/38 20/44/44
f 10/43/43 1/46/45 13/45/46
f 10/43/43 22/28/28 1/46/45
f 19/31/31 22/28/28 10/43/43
f 21/39/38 10/43/43 13/45/46
f 6/34/33 16/32/32 17/35/36
f 7/36/35 15/40/41 18/41/40
f 7/36/35 4/48/47 3/47/48
f 7/36/35 16/32/32 4/48/47
f 15/40/41 7/36/35 3/47/48
f 21/39/38 11/37/37 20/44/44
s 3
f 9/9/49 24/24/50 27/50/51 26/49/52
s 4
f 22/22/53 14/14/54 29/52/55 28/51/56
s 3
f 24/24/50 19/19/57 31/53/58 27/50/51
s 5
f 16/16/59 5/5/60 33/55/61 32/54/62
s off
f 5/5/63 6/6/64 34/56/65 33/55/66
s 7
f 17/17/67 7/7/68 36/58/69 35/57/70
s off
f 11/11/71 12/12/72 38/60/73 37/59/74
s 9
f 12/12/75 21/21/76 39/61/77 38/60/78
s 10
f 2/2/79 15/15/80 40/63/81 25/62/82
s off
f 8/8/83 9/9/84 26/49/85 42/64/86
s 4
f 14/14/54 2/2/87 25/62/88 29/52/55
s 12
f 18/18/89 8/8/90 42/64/91 41/65/92
s 13
f 10/10/93 20/20/94 44/67/95 43/66/96
s off
f 13/13/97 1/1/98 46/69/99 45/68/100
s 4
f 1/1/101 22/22/53 28/51/56 46/69/102
s 3
f 19/19/57 10/10/103 43/66/104 31/53/58
s 9
f 21/21/76 13/13/105 45/68/106 39/61/77
s 7
f 6/6/107 17/17/67 35/57/70 34/56/108
s 12
f 7/7/109 18/18/89 41/65/92 36/58/110
s off
f 3/3/111 4/4/112 48/71/113 47/70/114
s 5
f 4/4/115 16/16/59 32/54/62 48/71/116
s 10
f 15/15/80 3/3/117 47/70/118 40/63/81
s 13
f 20/20/94 11/11/119 37/59/120 44/67/95
