# This file uses centimeters as units for non-parametric coordinates.

mtllib X_UPPER.mtl
g default
v -0.353126 -0.000000 -0.000000
v -1.253126 1.228125 -0.000000
v -2.154688 -0.000000 -0.000000
v -2.500000 -0.000000 -0.000000
v -1.425000 1.465626 -0.000000
v -2.400000 2.800000 -0.000000
v -2.048438 2.800000 -0.000000
v -1.251563 1.712500 -0.000000
v -0.445313 2.800000 -0.000000
v -0.100000 2.800000 -0.000000
v -1.075001 1.470314 -0.000000
v 0.000000 -0.000000 0.000000
v -1.473135 1.400000 -0.000000
v -1.023592 1.400000 -0.000000
v -0.938755 0.800309 -0.000000
v -0.938672 1.283852 -0.000000
v -0.938582 2.128316 -0.000000
v -0.938672 1.656236 -0.000000
v -1.425000 1.465626 -0.100000
v -2.400000 2.800000 -0.100000
v -2.048438 2.800000 -0.100000
v -1.253126 1.228125 -0.100000
v -1.473135 1.400000 -0.100000
v -1.023592 1.400000 -0.100000
v -0.938755 0.800309 -0.100000
v -0.938672 1.283852 -0.100000
v 0.000000 -0.000000 -0.100000
v -0.938582 2.128316 -0.100000
v -0.445313 2.800000 -0.100000
v -0.100000 2.800000 -0.100000
v -1.251563 1.712500 -0.100000
v -0.938672 1.656236 -0.100000
v -1.075001 1.470313 -0.100000
v -2.154688 -0.000000 -0.100000
v -2.500000 -0.000000 -0.100000
v -0.353126 -0.000000 -0.100000
vt 0.141250 0.000000
vt 0.501250 0.438616
vt 0.861875 0.000000
vt 1.000000 0.000000
vt 0.570000 0.523438
vt 0.960000 1.000000
vt 0.819375 1.000000
vt 0.500625 0.611607
vt 0.178125 1.000000
vt 0.040000 1.000000
vt 0.430000 0.525112
vt 0.000000 0.000000
vt 0.589254 0.500000
vt 0.409437 0.500000
vt 0.375469 0.285846
vt 0.375469 0.458519
vt 0.375469 0.760137
vt 0.375469 0.591513
vt 0.570000 0.523438
vt 0.960000 1.000000
vt 0.819375 1.000000
vt 0.501250 0.438616
vt 0.589254 0.500000
vt 0.409437 0.500000
vt 0.375469 0.285846
vt 0.375469 0.458519
vt 0.000000 0.000000
vt 0.375469 0.760137
vt 0.178125 1.000000
vt 0.040000 1.000000
vt 0.500625 0.611607
vt 0.375469 0.591513
vt 0.430000 0.525112
vt 0.861875 0.000000
vt 1.000000 0.000000
vt 0.141250 0.000000
vt 0.570000 0.523438
vt 0.960000 1.000000
vt 0.819375 1.000000
vt 0.375469 0.458519
vt 0.000000 0.000000
vt 0.375469 0.760137
vt 0.178125 1.000000
vt 0.040000 1.000000
vt 0.589254 0.500000
vt 0.500625 0.611607
vt 0.430000 0.525112
vt 0.409437 0.500000
vt 0.375469 0.591513
vt 0.861875 0.000000
vt 1.000000 0.000000
vt 0.375469 0.285846
vt 0.501250 0.438616
vt 0.141250 0.000000
vn -0.000000 -0.000000 -1.000000
vn 0.000000 -0.000000 -1.000000
vn -0.000000 -0.000000 -1.000000
vn 0.000000 -0.000000 -1.000000
vn 0.000000 0.000000 -1.000000
vn 0.000000 0.000000 -1.000000
vn 0.000000 0.000000 -1.000000
vn -0.000000 0.000000 -1.000000
vn 0.000000 0.000000 -1.000000
vn -0.000000 -0.000000 -1.000000
vn 0.000000 0.000000 -1.000000
vn -0.000000 0.000000 -1.000000
vn -0.000000 -0.000000 -1.000000
vn 0.000000 -0.000000 -1.000000
vn 0.000000 -0.000000 -1.000000
vn 0.000000 -0.000000 -1.000000
vn 0.000000 -0.000000 -1.000000
vn 0.000000 0.000000 -1.000000
vn -0.000000 0.000000 1.000000
vn -0.000000 0.000000 1.000000
vn -0.000000 0.000000 1.000000
vn -0.000000 0.000000 1.000000
vn -0.000000 -0.000000 1.000000
vn -0.000000 -0.000000 1.000000
vn -0.000000 0.000000 1.000000
vn -0.000000 0.000000 1.000000
vn -0.000000 -0.000000 1.000000
vn -0.000000 0.000000 1.000000
vn -0.000000 -0.000000 1.000000
vn -0.000000 0.000000 1.000000
vn -0.000000 0.000000 1.000000
vn -0.000000 -0.000000 1.000000
vn -0.000000 0.000000 1.000000
vn -0.000000 -0.000000 1.000000
vn -0.000000 0.000000 1.000000
vn -0.000000 0.000000 1.000000
vn -0.807426 -0.589969 -0.000000
vn -0.807426 -0.589969 -0.000000
vn -0.807426 -0.589969 -0.000000
vn -0.807426 -0.589969 -0.000000
vn 0.000000 1.000000 -0.000002
vn 0.000000 1.000000 -0.000002
vn 0.000000 1.000000 -0.000002
vn 0.000000 1.000000 -0.000002
vn 0.807249 0.590210 -0.000000
vn 0.807250 0.590210 0.000000
vn 0.807250 0.590210 0.000000
vn 0.807249 0.590210 -0.000000
vn -0.802499 0.596653 -0.000001
vn -0.806004 0.591911 -0.000001
vn -0.806004 0.591911 -0.000001
vn -0.802499 0.596653 -0.000001
vn 0.000000 1.000000 -0.000002
vn 0.000000 1.000000 -0.000002
vn 0.000000 1.000000 -0.000002
vn 0.000000 1.000000 -0.000002
vn -0.806352 0.591436 -0.000002
vn -0.806353 0.591435 -0.000001
vn -0.806353 0.591435 -0.000001
vn -0.806352 0.591436 -0.000002
vn -0.798967 0.601375 0.000000
vn -0.798967 0.601375 0.000000
vn 0.806626 0.591062 -0.000001
vn 0.806626 0.591062 -0.000001
vn 0.806626 0.591062 -0.000001
vn 0.806626 0.591062 -0.000001
vn 0.807250 0.590209 0.000000
vn 0.807250 0.590210 -0.000000
vn 0.807250 0.590210 -0.000000
vn 0.807250 0.590209 0.000000
vn 0.806435 -0.591323 0.000002
vn 0.806435 -0.591323 0.000002
vn 0.806435 -0.591323 0.000002
vn 0.806435 -0.591323 0.000002
vn 0.000000 -1.000000 0.000002
vn 0.000000 -1.000000 0.000002
vn 0.000000 -1.000000 0.000002
vn 0.000000 -1.000000 0.000002
vn -0.806351 0.591438 -0.000003
vn -0.806351 0.591438 -0.000003
vn -0.806422 -0.591340 -0.000000
vn -0.805831 -0.592146 -0.000000
vn -0.805831 -0.592146 -0.000000
vn -0.806422 -0.591340 -0.000000
vn 0.806112 -0.591764 0.000001
vn 0.806112 -0.591764 0.000001
vn 0.806112 -0.591764 0.000001
vn 0.806112 -0.591764 0.000001
vn 0.000000 -1.000000 0.000001
vn 0.000000 -1.000000 0.000001
vn 0.000000 -1.000000 0.000001
vn 0.000000 -1.000000 0.000001
vn -0.807012 -0.590534 -0.000000
vn -0.807012 -0.590534 -0.000000
vn 0.806435 -0.591323 0.000002
vn 0.806435 -0.591323 0.000002
s 1
usemtl initialShadingGroup
f 19/37/1 20/38/2 21/39/3
f 22/2/4 23/13/5 24/14/6
f 25/15/7 26/40/8 27/41/9
f 28/42/10 29/43/11 30/44/12
f 24/14/6 23/45/5 19/37/1
f 31/46/13 28/42/10 19/37/1
f 19/37/1 21/39/3 31/46/13
f 19/37/1 28/42/10 32/18/14
f 19/37/1 33/47/15 24/48/6
f 32/49/14 33/47/15 19/37/1
f 34/50/16 35/51/17 23/45/5
f 26/40/8 25/52/7 22/53/4
f 22/53/4 24/48/6 26/40/8
f 23/45/5 22/53/4 34/50/16
f 27/41/9 36/54/18 25/52/7
f 30/44/12 32/49/14 28/42/10
s 2
f 5/19/19 7/21/20 6/20/21
f 2/22/22 14/24/23 13/23/24
f 15/25/25 12/27/26 16/26/27
f 17/28/28 10/30/29 9/29/30
f 14/24/23 5/19/19 13/23/24
f 8/31/31 5/19/19 17/28/28
f 5/19/19 8/31/31 7/21/20
f 5/19/19 18/32/32 17/28/28
f 5/19/19 14/24/23 11/33/33
f 18/32/32 5/19/19 11/33/33
f 3/34/34 13/23/24 4/35/35
f 16/26/27 2/22/22 15/25/25
f 2/22/22 16/26/27 14/24/23
f 13/23/24 3/34/34 2/22/22
f 12/27/26 15/25/25 1/36/36
f 10/30/29 17/28/28 18/32/32
s off
f 5/5/37 6/6/38 20/38/39 19/37/40
f 6/6/41 7/7/42 21/39/43 20/38/44
s 5
f 16/16/45 12/12/46 27/41/47 26/40/48
s 6
f 17/17/49 9/9/50 29/43/51 28/42/52
s off
f 9/9/53 10/10/54 30/44/55 29/43/56
s 8
f 13/13/57 5/5/58 19/37/59 23/45/60
s 6
f 8/8/61 17/17/49 28/42/52 31/46/62
s off
f 7/7/63 8/8/64 31/46/65 21/39/66
s 5
f 11/11/67 14/14/68 24/48/69 33/47/70
s 10
f 18/18/71 11/11/72 33/47/73 32/49/74
s off
f 3/3/75 4/4/76 35/51/77 34/50/78
s 8
f 4/4/79 13/13/57 23/45/60 35/51/80
s 12
f 15/15/81 2/2/82 22/53/83 25/52/84
s 5
f 14/14/68 16/16/45 26/40/48 24/48/69
s off
f 2/2/85 3/3/86 34/50/87 22/53/88
f 12/12/89 1/1/90 36/54/91 27/41/92
s 12
f 1/1/93 15/15/81 25/52/84 36/54/94
s 10
f 10/10/95 18/18/71 32/49/74 30/44/96
