# This file uses centimeters as units for non-parametric coordinates.

mtllib y_lower.mtl
g default
v -1.812500 2.100000 -0.000000
v -1.500000 2.100000 -0.000000
v -0.956251 0.467189 -0.000000
v -0.412500 2.100000 -0.000000
v -0.100000 2.100000 -0.000000
v -0.800000 0.001563 -0.000000
v -0.300000 -0.468750 -0.000000
v -0.458957 -0.499960 -0.000000
v -0.300000 -0.762499 -0.000000
v -0.501780 -0.800081 -0.000000
v -1.017167 0.650111 -0.000000
v -0.906348 0.649716 -0.000000
v -0.583761 0.649796 -0.000000
v -1.330919 0.649779 -0.000000
v -0.742188 0.649796 -0.000000
v -0.742188 0.174869 -0.000000
v -0.742188 -0.202160 -0.000000
v -0.742186 -0.726764 -0.000000
v -0.421094 -0.497959 -0.000000
v -0.421158 -0.793408 -0.000000
v -0.630065 -0.437958 -0.000000
v -0.742188 -0.437857 -0.000000
v -0.581628 -0.473484 -0.000000
v -0.581679 -0.793491 -0.000000
v -0.421094 -0.619132 -0.000000
v -0.581641 -0.619132 -0.000000
v -0.501369 -0.800079 -0.000000
v -0.501368 -0.619132 -0.000000
v -0.501368 -0.497342 -0.000000
v -0.501368 -0.528494 -0.000000
v -0.581641 -0.528494 -0.000000
v -0.541504 -0.619132 -0.000000
v -0.541504 -0.528494 -0.000000
v -0.541491 -0.489369 -0.000000
v -0.742188 -0.619132 -0.000000
v -0.662005 -0.770601 -0.000000
v -0.661915 -0.619132 -0.000000
v -0.661915 -0.437857 -0.000000
v -0.661915 -0.528494 -0.000000
v -0.621778 -0.619132 -0.000000
v -0.621778 -0.528494 -0.000000
v -0.621862 -0.445584 -0.000000
v -0.726161 -0.256629 -0.000000
v -0.742188 -0.256581 -0.000000
v -0.661914 -0.400706 -0.000000
v -0.692723 -0.346922 -0.000000
v -0.742188 -0.347219 -0.000000
v -0.702051 -0.437857 -0.000000
v -0.702051 -0.347219 -0.000000
v -0.701731 -0.326231 -0.000000
v -0.778079 -0.075333 -0.000000
v -1.089777 -0.075317 -0.000000
v -0.953486 -0.437976 -0.000000
v -0.850315 -0.618910 -0.000000
v -0.742188 -0.709770 -0.000000
v -0.764634 -0.709764 -0.000000
v -0.809044 -0.668468 -0.000000
v -0.809083 -0.619132 -0.000000
v -0.875563 -0.582598 -0.000000
v -0.875977 -0.437857 -0.000000
v -1.009913 -0.300406 -0.000000
v -1.009766 -0.075306 -0.000000
v -1.277597 0.488002 -0.000000
v -1.277344 0.649796 -0.000000
v -0.742491 1.146823 -0.000000
v -1.500000 2.100000 -0.100000
v -1.017167 0.650111 -0.100000
v -1.277344 0.649796 -0.100000
v -1.277597 0.488002 -0.100000
v -1.330919 0.649779 -0.100000
v -0.742188 0.649796 -0.100000
v -0.583761 0.649796 -0.100000
v -0.742188 0.174869 -0.100000
v -0.742188 -0.202160 -0.100000
v -0.726161 -0.256629 -0.100000
v -0.742188 -0.256581 -0.100000
v -0.300000 -0.762499 -0.100000
v -0.421158 -0.793408 -0.100000
v -0.421094 -0.619132 -0.100000
v -0.742188 -0.619132 -0.100000
v -0.742188 -0.437857 -0.100000
v -0.702051 -0.437857 -0.100000
v -0.541491 -0.489369 -0.100000
v -0.541504 -0.528494 -0.100000
v -0.581641 -0.528494 -0.100000
v -0.581679 -0.793491 -0.100000
v -0.581641 -0.619132 -0.100000
v -0.541504 -0.619132 -0.100000
v -0.501369 -0.800079 -0.100000
v -0.501368 -0.619132 -0.100000
v -0.501368 -0.528494 -0.100000
v -0.501367 -0.497342 -0.100000
v -0.742188 -0.709770 -0.100000
v -0.661915 -0.619132 -0.100000
v -0.662005 -0.770601 -0.100000
v -0.621862 -0.445585 -0.100000
v -0.621778 -0.528494 -0.100000
v -0.661915 -0.528494 -0.100000
v -0.621778 -0.619132 -0.100000
v -0.581628 -0.473484 -0.100000
v -0.701731 -0.326231 -0.100000
v -0.702051 -0.347219 -0.100000
v -0.742188 -0.347219 -0.100000
v -0.661914 -0.400706 -0.100000
v -0.630065 -0.437958 -0.100000
v -0.661915 -0.437857 -0.100000
v -0.692723 -0.346922 -0.100000
v -1.009913 -0.300406 -0.100000
v -1.089777 -0.075317 -0.100000
v -1.009766 -0.075306 -0.100000
v -0.875563 -0.582598 -0.100000
v -0.953486 -0.437976 -0.100000
v -0.875977 -0.437857 -0.100000
v -0.809044 -0.668468 -0.100000
v -0.850315 -0.618910 -0.100000
v -0.809083 -0.619132 -0.100000
v -0.742185 -0.726764 -0.100000
v -0.764634 -0.709764 -0.100000
v -0.800000 0.001562 -0.100000
v -0.778079 -0.075333 -0.100000
v -0.742491 1.146822 -0.100000
v -0.412500 2.100000 -0.100000
v -0.100000 2.100000 -0.100000
v -0.906348 0.649716 -0.100000
v -1.812500 2.100000 -0.100000
v -0.421094 -0.497959 -0.100000
v -0.300000 -0.468750 -0.100000
v -0.501780 -0.800081 -0.100000
v -0.458957 -0.499960 -0.100000
v -0.956251 0.467188 -0.100000
vt 1.000000 1.000000
vt 0.817518 1.000000
vt 0.500000 0.437041
vt 0.182482 1.000000
vt 0.000000 1.000000
vt 0.408759 0.276503
vt 0.116788 0.114349
vt 0.209610 0.103588
vt 0.116788 0.013070
vt 0.234615 0.000000
vt 0.536124 0.500000
vt 0.471021 0.500000
vt 0.282488 0.500000
vt 0.718754 0.500000
vt 0.375000 0.500000
vt 0.375000 0.336255
vt 0.375000 0.206263
vt 0.375000 0.025390
vt 0.187500 0.104278
vt 0.187500 0.002273
vt 0.309469 0.125000
vt 0.375000 0.125000
vt 0.281250 0.112708
vt 0.281250 0.002458
vt 0.187500 0.062500
vt 0.281250 0.062500
vt 0.234375 0.000000
vt 0.234375 0.062500
vt 0.234375 0.104490
vt 0.234375 0.093750
vt 0.281250 0.093750
vt 0.257813 0.062500
vt 0.257813 0.093750
vt 0.257813 0.107224
vt 0.375000 0.062500
vt 0.328125 0.010354
vt 0.328125 0.062500
vt 0.328125 0.125000
vt 0.328125 0.093750
vt 0.304688 0.062500
vt 0.304688 0.093750
vt 0.304688 0.122368
vt 0.365551 0.187500
vt 0.375000 0.187500
vt 0.328125 0.137808
vt 0.346490 0.156250
vt 0.375000 0.156250
vt 0.351563 0.125000
vt 0.351563 0.156250
vt 0.351563 0.163441
vt 0.395902 0.250000
vt 0.577953 0.250000
vt 0.498233 0.125000
vt 0.438314 0.062500
vt 0.375000 0.031250
vt 0.388110 0.031250
vt 0.414063 0.045477
vt 0.414063 0.062500
vt 0.453125 0.075003
vt 0.453125 0.125000
vt 0.531250 0.172409
vt 0.531250 0.250000
vt 0.687500 0.444246
vt 0.687500 0.500000
vt 0.375000 0.671328
vt 0.817518 1.000000
vt 0.536124 0.500000
vt 0.687500 0.500000
vt 0.687500 0.444246
vt 0.718754 0.500000
vt 0.375000 0.500000
vt 0.282488 0.500000
vt 0.375000 0.336255
vt 0.375000 0.206263
vt 0.365551 0.187500
vt 0.375000 0.187500
vt 0.116788 0.013070
vt 0.187500 0.002273
vt 0.187500 0.062500
vt 0.375000 0.062500
vt 0.375000 0.125000
vt 0.351563 0.125000
vt 0.257813 0.107224
vt 0.257813 0.093750
vt 0.281250 0.093750
vt 0.281250 0.002458
vt 0.281250 0.062500
vt 0.257813 0.062500
vt 0.234375 0.000000
vt 0.234375 0.062500
vt 0.234375 0.093750
vt 0.234375 0.104490
vt 0.375000 0.031250
vt 0.328125 0.062500
vt 0.328125 0.010354
vt 0.304688 0.122368
vt 0.304688 0.093750
vt 0.328125 0.093750
vt 0.304688 0.062500
vt 0.281250 0.112708
vt 0.351563 0.163441
vt 0.351563 0.156250
vt 0.375000 0.156250
vt 0.328125 0.137808
vt 0.309469 0.125000
vt 0.328125 0.125000
vt 0.346490 0.156250
vt 0.531250 0.172409
vt 0.577953 0.250000
vt 0.531250 0.250000
vt 0.453125 0.075003
vt 0.498233 0.125000
vt 0.453125 0.125000
vt 0.414063 0.045477
vt 0.438314 0.062500
vt 0.414063 0.062500
vt 0.375000 0.025390
vt 0.388110 0.031250
vt 0.408759 0.276503
vt 0.395902 0.250000
vt 0.375000 0.671328
vt 0.182482 1.000000
vt 0.000000 1.000000
vt 0.471021 0.500000
vt 1.000000 1.000000
vt 0.187500 0.104278
vt 0.116788 0.114349
vt 0.234615 0.000000
vt 0.209610 0.103588
vt 0.500000 0.437041
vt 0.817518 1.000000
vt 0.536124 0.500000
vt 0.687500 0.444246
vt 0.718754 0.500000
vt 0.282488 0.500000
vt 0.375000 0.336255
vt 0.375000 0.206263
vt 0.365551 0.187500
vt 0.116788 0.013070
vt 0.187500 0.002273
vt 0.234375 0.000000
vt 0.281250 0.002458
vt 0.328125 0.010354
vt 0.328125 0.137808
vt 0.309469 0.125000
vt 0.351563 0.163441
vt 0.346490 0.156250
vt 0.531250 0.172409
vt 0.577953 0.250000
vt 0.453125 0.075003
vt 0.498233 0.125000
vt 0.414063 0.045477
vt 0.438314 0.062500
vt 0.375000 0.025390
vt 0.388110 0.031250
vt 0.408759 0.276503
vt 0.395902 0.250000
vt 0.375000 0.671328
vt 0.182482 1.000000
vt 0.000000 1.000000
vt 0.471021 0.500000
vt 1.000000 1.000000
vt 0.187500 0.104278
vt 0.116788 0.114349
vt 0.281250 0.112708
vt 0.257813 0.107224
vt 0.234615 0.000000
vt 0.234375 0.104490
vt 0.209610 0.103588
vt 0.304688 0.122368
vt 0.500000 0.437041
vn 0.000000 -0.000000 -1.000000
vn -0.000000 -0.000000 -1.000000
vn 0.000000 -0.000000 -1.000000
vn -0.000000 -0.000000 -1.000000
vn 0.000000 -0.000000 -1.000000
vn 0.000000 0.000000 -1.000000
vn 0.000000 0.000000 -1.000000
vn 0.000000 0.000000 -1.000000
vn -0.000000 0.000000 -1.000000
vn 0.000000 0.000000 -1.000000
vn -0.000000 0.000000 -1.000000
vn 0.000000 0.000000 -1.000000
vn 0.000000 0.000000 -1.000000
vn -0.000000 -0.000000 -1.000000
vn -0.000000 0.000000 -1.000000
vn 0.000000 0.000000 -1.000000
vn 0.000000 0.000000 -1.000000
vn 0.000000 -0.000000 -1.000000
vn 0.000000 -0.000000 -1.000000
vn 0.000000 -0.000000 -1.000000
vn 0.000000 0.000000 -1.000000
vn 0.000000 0.000000 -1.000000
vn 0.000000 0.000000 -1.000000
vn 0.000000 0.000000 -1.000000
vn 0.000000 0.000000 -1.000000
vn -0.000000 -0.000000 -1.000000
vn 0.000000 -0.000000 -1.000000
vn -0.000000 0.000000 -1.000000
vn 0.000000 0.000000 -1.000000
vn -0.000000 0.000000 -1.000000
vn -0.000000 -0.000000 -1.000000
vn -0.000000 -0.000000 -1.000000
vn 0.000000 0.000000 -1.000000
vn 0.000000 0.000000 -1.000000
vn -0.000000 -0.000000 -1.000000
vn -0.000001 0.000000 -1.000000
vn -0.000001 0.000000 -1.000000
vn -0.000000 0.000000 -1.000000
vn 0.000000 0.000000 -1.000000
vn 0.000000 0.000000 -1.000000
vn 0.000000 0.000000 -1.000000
vn -0.000001 0.000000 -1.000000
vn -0.000000 0.000000 -1.000000
vn -0.000000 -0.000000 -1.000000
vn -0.000000 -0.000000 -1.000000
vn 0.000000 0.000000 -1.000000
vn 0.000000 0.000000 -1.000000
vn 0.000000 0.000000 -1.000000
vn 0.000000 0.000000 -1.000000
vn 0.000000 0.000000 -1.000000
vn 0.000000 0.000000 -1.000000
vn -0.000000 -0.000000 -1.000000
vn -0.000000 0.000000 -1.000000
vn -0.000000 0.000000 -1.000000
vn -0.000000 0.000000 -1.000000
vn 0.000000 0.000000 -1.000000
vn 0.000000 0.000000 -1.000000
vn 0.000000 0.000000 -1.000000
vn 0.000000 0.000000 -1.000000
vn -0.000000 -0.000000 -1.000000
vn -0.000000 -0.000000 -1.000000
vn 0.000000 -0.000000 -1.000000
vn 0.000000 -0.000000 -1.000000
vn -0.000000 -0.000000 -1.000000
vn -0.000000 -0.000000 -1.000000
vn -0.000000 -0.000000 1.000000
vn -0.000000 -0.000000 1.000000
vn -0.000000 -0.000000 1.000000
vn -0.000000 -0.000000 1.000000
vn -0.000000 -0.000000 1.000000
vn -0.000000 0.000000 1.000000
vn -0.000000 -0.000000 1.000000
vn -0.000000 0.000000 1.000000
vn -0.000000 -0.000000 1.000000
vn -0.000000 0.000000 1.000000
vn -0.000000 0.000000 1.000000
vn -0.000000 0.000000 1.000000
vn -0.000000 0.000000 1.000000
vn -0.000000 -0.000000 1.000000
vn -0.000000 0.000000 1.000000
vn -0.000000 -0.000000 1.000000
vn -0.000000 0.000000 1.000000
vn -0.000000 -0.000000 1.000000
vn -0.000000 -0.000000 1.000000
vn -0.000000 -0.000000 1.000000
vn -0.000000 -0.000000 1.000000
vn -0.000000 -0.000000 1.000000
vn -0.000000 -0.000000 1.000000
vn -0.000000 -0.000000 1.000000
vn -0.000000 -0.000000 1.000000
vn -0.000000 0.000000 1.000000
vn -0.000000 -0.000000 1.000000
vn -0.000000 0.000000 1.000000
vn -0.000000 0.000000 1.000000
vn -0.000000 0.000000 1.000000
vn -0.000000 -0.000000 1.000000
vn -0.000000 -0.000000 1.000000
vn -0.000000 -0.000000 1.000000
vn -0.000000 0.000000 1.000000
vn -0.000000 -0.000000 1.000000
vn -0.000000 0.000000 1.000000
vn -0.000000 0.000000 1.000000
vn -0.000000 0.000000 1.000000
vn -0.000000 -0.000000 1.000000
vn -0.000000 -0.000000 1.000000
vn -0.000000 -0.000000 1.000000
vn -0.000000 0.000000 1.000000
vn -0.000000 -0.000000 1.000000
vn -0.000000 -0.000000 1.000000
vn -0.000000 -0.000000 1.000000
vn -0.000000 0.000000 1.000000
vn -0.000000 -0.000000 1.000000
vn -0.000000 -0.000000 1.000000
vn -0.000000 0.000000 1.000000
vn -0.000000 0.000000 1.000000
vn -0.000000 0.000000 1.000000
vn -0.000000 0.000000 1.000000
vn -0.000000 0.000000 1.000000
vn -0.000000 -0.000000 1.000000
vn -0.000000 0.000000 1.000000
vn -0.000000 0.000000 1.000000
vn -0.000000 0.000000 1.000000
vn -0.000000 0.000000 1.000000
vn -0.000000 0.000000 1.000000
vn -0.000000 -0.000000 1.000000
vn -0.000000 0.000000 1.000000
vn -0.000000 0.000000 1.000000
vn -0.000000 -0.000000 1.000000
vn -0.000000 0.000000 1.000000
vn -0.000000 0.000000 1.000000
vn 0.948774 0.315955 0.000001
vn 0.948774 0.315955 0.000000
vn 0.948774 0.315955 0.000000
vn 0.948774 0.315955 0.000001
vn -0.949202 -0.314668 -0.000000
vn -0.949392 -0.314094 -0.000000
vn -0.949392 -0.314094 -0.000000
vn -0.949202 -0.314668 -0.000000
vn 0.948613 -0.316440 0.000001
vn 0.948613 -0.316440 0.000001
vn 0.948613 -0.316440 0.000001
vn 0.948613 -0.316440 0.000001
vn 0.960788 0.277284 0.000000
vn 0.951764 0.306830 -0.000000
vn 0.951764 0.306830 -0.000000
vn 0.960788 0.277284 0.000000
vn 0.247193 -0.968966 0.000000
vn 0.165615 -0.986191 0.000000
vn 0.165615 -0.986191 0.000000
vn 0.247193 -0.968966 0.000000
vn 0.044088 -0.999028 0.000000
vn 0.044088 -0.999028 0.000000
vn -0.178984 -0.983852 0.000000
vn -0.379236 -0.925300 0.000000
vn -0.379236 -0.925300 0.000000
vn -0.178984 -0.983852 0.000000
vn 0.817475 0.575964 -0.000000
vn 0.721664 0.692243 -0.000001
vn 0.721664 0.692243 -0.000001
vn 0.817475 0.575964 -0.000000
vn 0.930837 0.365434 -0.000000
vn 0.893635 0.448794 -0.000000
vn 0.893635 0.448794 -0.000000
vn 0.930837 0.365434 -0.000000
vn -0.934088 -0.357043 -0.000001
vn -0.945591 -0.325357 -0.000001
vn -0.945591 -0.325357 -0.000001
vn -0.934088 -0.357043 -0.000001
vn -0.852060 -0.523443 -0.000000
vn -0.904015 -0.427501 -0.000000
vn -0.904015 -0.427501 -0.000000
vn -0.852060 -0.523443 -0.000000
vn -0.726170 -0.687515 -0.000000
vn -0.795485 -0.605974 -0.000000
vn -0.795485 -0.605974 -0.000000
vn -0.726170 -0.687515 -0.000000
vn -0.543186 -0.839612 -0.000000
vn -0.643150 -0.765741 -0.000000
vn -0.643150 -0.765741 -0.000000
vn -0.543186 -0.839612 -0.000000
vn 0.961685 0.274158 0.000000
vn 0.961950 0.273227 0.000000
vn 0.961950 0.273227 0.000000
vn 0.961685 0.274158 0.000000
vn -0.947380 0.320110 -0.000001
vn -0.944972 0.327150 -0.000001
vn -0.944972 0.327150 -0.000001
vn -0.947380 0.320110 -0.000001
vn 0.000000 1.000000 0.000000
vn 0.000000 1.000000 0.000000
vn 0.000000 1.000000 0.000000
vn 0.000000 1.000000 0.000000
vn -0.957485 0.288483 -0.000001
vn -0.957485 0.288483 -0.000001
vn -0.949041 -0.315152 -0.000001
vn -0.949041 -0.315152 -0.000001
vn 0.000000 1.000000 0.000000
vn 0.000000 1.000000 0.000000
vn 0.000000 1.000000 0.000000
vn 0.000000 1.000000 0.000000
vn -0.144249 0.989542 -0.000001
vn -0.234485 0.972120 -0.000001
vn -0.234485 0.972120 -0.000001
vn -0.144249 0.989542 -0.000001
vn 1.000000 0.000000 0.000001
vn 1.000000 0.000000 0.000001
vn 1.000000 0.000000 0.000001
vn 1.000000 0.000000 0.000001
vn 0.472019 0.881588 -0.000001
vn 0.282608 0.959236 -0.000001
vn 0.282608 0.959236 -0.000001
vn 0.472019 0.881588 -0.000001
vn -0.038526 -0.999258 0.000000
vn -0.038526 -0.999258 0.000000
vn 0.128555 0.991702 -0.000001
vn 0.004418 0.999990 -0.000001
vn 0.004418 0.999990 -0.000001
vn 0.128555 0.991702 -0.000001
vn 0.626958 0.779053 -0.000001
vn 0.626958 0.779053 -0.000001
vn 0.948774 0.315955 0.000000
vn 0.948774 0.315955 0.000000
vn 0.948613 -0.316440 0.000001
vn 0.948613 -0.316440 0.000001
vn -0.964599 0.263722 -0.000001
vn -0.964599 0.263722 -0.000001
vn 0.948613 -0.316440 0.000001
vn 0.948613 -0.316440 0.000001
s 1
usemtl initialShadingGroup
f 66/131/1 67/132/2 68/64/3
f 69/133/4 70/134/5 68/64/3
f 71/15/6 72/135/7 73/136/8
f 74/137/9 75/138/10 76/44/11
f 77/139/12 78/140/13 79/25/14
f 80/35/15 81/22/16 82/48/17
f 83/34/18 84/33/19 85/31/20
f 86/24/21 87/26/22 88/32/23
f 78/140/13 89/141/24 90/28/25
f 79/25/14 90/28/25 91/30/26
f 88/32/23 87/26/22 85/31/20
f 90/28/25 88/32/23 84/33/19
f 92/29/27 91/30/26 84/33/19
f 93/55/28 80/35/15 94/37/29
f 86/142/21 95/143/30 94/37/29
f 96/42/31 97/41/32 98/39/33
f 99/40/34 94/37/29 98/39/33
f 87/26/22 99/40/34 97/41/32
f 100/23/35 85/31/20 97/41/32
f 101/50/36 102/49/37 103/47/38
f 104/144/39 105/145/40 106/38/41
f 82/48/17 81/22/16 103/47/38
f 104/144/39 106/38/41 82/48/17
f 101/146/36 107/147/42 102/49/37
f 108/148/43 109/149/44 110/62/45
f 111/150/46 112/151/47 113/60/48
f 114/152/49 115/153/50 116/58/51
f 93/55/28 117/154/52 118/155/53
f 80/35/15 93/55/28 118/155/53
f 81/22/16 80/35/15 116/58/51
f 74/137/9 113/60/48 108/148/43
f 119/156/54 120/157/55 110/62/45
f 121/158/56 122/159/57 123/160/58
f 124/161/59 121/158/56 71/15/6
f 70/134/5 125/162/60 66/131/1
f 68/64/3 70/134/5 66/131/1
f 79/25/14 126/163/61 127/164/62
f 127/164/62 77/139/12 79/25/14
f 98/39/33 94/37/29 80/35/15
f 82/48/17 106/38/41 80/35/15
f 80/35/15 106/38/41 98/39/33
f 85/31/20 100/165/35 83/166/18
f 90/28/25 89/141/24 128/167/63
f 88/32/23 90/28/25 86/142/21
f 128/167/63 86/142/21 90/28/25
f 90/28/25 79/25/14 78/140/13
f 91/30/26 92/168/27 129/169/64
f 129/169/64 126/163/61 79/25/14
f 79/25/14 91/30/26 129/169/64
f 85/31/20 84/33/19 88/32/23
f 84/33/19 91/30/26 90/28/25
f 84/33/19 83/166/18 92/168/27
f 95/143/30 117/154/52 93/55/28
f 93/55/28 94/37/29 95/143/30
f 99/40/34 87/26/22 86/142/21
f 86/142/21 94/37/29 99/40/34
f 98/39/33 106/38/41 105/145/40
f 105/145/40 96/170/31 98/39/33
f 98/39/33 97/41/32 99/40/34
f 97/41/32 85/31/20 87/26/22
f 97/41/32 96/170/31 100/165/35
f 103/47/38 76/44/11 75/138/10
f 75/138/10 101/146/36 103/47/38
f 103/47/38 102/49/37 82/48/17
f 82/48/17 102/49/37 107/147/42
f 107/147/42 104/144/39 82/48/17
f 114/152/49 116/58/51 80/35/15
f 118/155/53 114/152/49 80/35/15
f 116/58/51 115/153/50 111/150/46
f 111/150/46 113/60/48 81/22/16
f 116/58/51 111/150/46 81/22/16
f 103/47/38 81/22/16 113/60/48
f 113/60/48 112/151/47 108/148/43
f 108/148/43 110/62/45 120/157/55
f 120/157/55 74/137/9 108/148/43
f 113/60/48 74/137/9 76/44/11
f 113/60/48 76/44/11 103/47/38
f 69/133/4 67/132/2 130/171/65
f 124/161/59 71/15/6 73/136/8
f 110/62/45 130/171/65 73/136/8
f 110/62/45 73/136/8 119/156/54
f 73/136/8 130/171/65 124/161/59
f 69/133/4 68/64/3 67/132/2
f 130/171/65 110/62/45 109/149/44
f 109/149/44 69/133/4 130/171/65
f 72/135/7 71/15/6 121/158/56
f 121/158/56 123/160/58 72/135/7
s 2
f 2/66/66 64/68/67 11/67/68
f 63/69/69 64/68/67 14/70/70
f 15/71/71 16/73/72 13/72/73
f 17/74/74 44/76/75 43/75/76
f 9/77/77 25/79/78 20/78/79
f 35/80/80 48/82/81 22/81/82
f 34/83/83 31/85/84 33/84/85
f 24/86/86 32/88/87 26/87/88
f 20/78/79 28/90/89 27/89/90
f 25/79/78 30/91/91 28/90/89
f 32/88/87 31/85/84 26/87/88
f 28/90/89 33/84/85 32/88/87
f 29/92/92 33/84/85 30/91/91
f 55/93/93 37/94/94 35/80/80
f 24/86/86 37/94/94 36/95/95
f 42/96/96 39/98/97 41/97/98
f 40/99/99 39/98/97 37/94/94
f 26/87/88 41/97/98 40/99/99
f 23/100/100 41/97/98 31/85/84
f 50/101/101 47/103/102 49/102/103
f 45/104/104 38/106/105 21/105/106
f 48/82/81 47/103/102 22/81/82
f 45/104/104 48/82/81 38/106/105
f 50/101/101 49/102/103 46/107/107
f 61/108/108 62/110/109 52/109/110
f 59/111/111 60/113/112 53/112/113
f 57/114/114 58/116/115 54/115/116
f 55/93/93 56/118/117 18/117/118
f 35/80/80 56/118/117 55/93/93
f 22/81/82 58/116/115 35/80/80
f 17/74/74 61/108/108 60/113/112
f 6/119/119 62/110/109 51/120/120
f 65/121/121 5/123/122 4/122/123
f 12/124/124 15/71/71 65/121/121
f 14/70/70 2/66/66 1/125/125
f 64/68/67 2/66/66 14/70/70
f 25/79/78 7/127/126 19/126/127
f 7/127/126 25/79/78 9/77/77
f 39/98/97 35/80/80 37/94/94
f 48/82/81 35/80/80 38/106/105
f 35/80/80 39/98/97 38/106/105
f 31/85/84 34/83/83 23/100/100
f 28/90/89 10/128/128 27/89/90
f 32/88/87 24/86/86 28/90/89
f 10/128/128 28/90/89 24/86/86
f 28/90/89 20/78/79 25/79/78
f 30/91/91 8/129/129 29/92/92
f 8/129/129 25/79/78 19/126/127
f 25/79/78 8/129/129 30/91/91
f 31/85/84 32/88/87 33/84/85
f 33/84/85 28/90/89 30/91/91
f 33/84/85 29/92/92 34/83/83
f 36/95/95 55/93/93 18/117/118
f 55/93/93 36/95/95 37/94/94
f 40/99/99 24/86/86 26/87/88
f 24/86/86 40/99/99 37/94/94
f 39/98/97 21/105/106 38/106/105
f 21/105/106 39/98/97 42/96/96
f 39/98/97 40/99/99 41/97/98
f 41/97/98 26/87/88 31/85/84
f 41/97/98 23/100/100 42/96/96
f 47/103/102 43/75/76 44/76/75
f 43/75/76 47/103/102 50/101/101
f 47/103/102 48/82/81 49/102/103
f 48/82/81 46/107/107 49/102/103
f 46/107/107 48/82/81 45/104/104
f 57/114/114 35/80/80 58/116/115
f 56/118/117 35/80/80 57/114/114
f 58/116/115 59/111/111 54/115/116
f 59/111/111 22/81/82 60/113/112
f 58/116/115 22/81/82 59/111/111
f 47/103/102 60/113/112 22/81/82
f 60/113/112 61/108/108 53/112/113
f 61/108/108 51/120/120 62/110/109
f 51/120/120 61/108/108 17/74/74
f 60/113/112 44/76/75 17/74/74
f 60/113/112 47/103/102 44/76/75
f 63/69/69 3/130/130 11/67/68
f 12/124/124 16/73/72 15/71/71
f 62/110/109 16/73/72 3/130/130
f 62/110/109 6/119/119 16/73/72
f 16/73/72 12/124/124 3/130/130
f 63/69/69 11/67/68 64/68/67
f 3/130/130 52/109/110 62/110/109
f 52/109/110 3/130/130 63/69/69
f 13/72/73 65/121/121 15/71/71
f 65/121/121 13/72/73 5/123/122
s 3
f 2/2/131 11/11/132 67/132/133 66/131/134
s 4
f 63/63/135 14/14/136 70/134/137 69/133/138
s 5
f 13/13/139 16/16/140 73/136/141 72/135/142
s 6
f 17/17/143 43/43/144 75/138/145 74/137/146
s 4
f 9/9/147 20/20/148 78/140/149 77/139/150
f 20/20/148 27/27/151 89/141/152 78/140/149
f 24/24/153 36/36/154 95/143/155 86/142/156
s 6
f 45/45/157 21/21/158 105/145/159 104/144/160
f 50/50/161 46/46/162 107/147/163 101/146/164
s 4
f 61/61/165 52/52/166 109/149/167 108/148/168
f 59/59/169 53/53/170 112/151/171 111/150/172
f 57/57/173 54/54/174 115/153/175 114/152/176
f 18/18/177 56/56/178 118/155/179 117/154/180
s 6
f 6/6/181 51/51/182 120/157/183 119/156/184
s 7
f 65/65/185 4/4/186 122/159/187 121/158/188
s off
f 4/4/189 5/5/190 123/160/191 122/159/192
s 7
f 12/12/193 65/65/185 121/158/188 124/161/194
s 4
f 14/14/136 1/1/195 125/162/196 70/134/137
s off
f 1/1/197 2/2/198 66/131/199 125/162/200
s 6
f 19/19/201 7/7/202 127/164/203 126/163/204
s off
f 7/7/205 9/9/206 77/139/207 127/164/208
s 6
f 23/23/209 34/34/210 83/166/211 100/165/212
s 4
f 27/27/151 10/10/213 128/167/214 89/141/152
f 10/10/213 24/24/153 86/142/156 128/167/214
s 6
f 29/29/215 8/8/216 129/169/217 92/168/218
f 8/8/216 19/19/201 126/163/204 129/169/217
f 34/34/210 29/29/215 92/168/218 83/166/211
s 4
f 36/36/154 18/18/177 117/154/180 95/143/155
s 6
f 21/21/158 42/42/219 96/170/220 105/145/159
f 42/42/219 23/23/209 100/165/212 96/170/220
f 43/43/144 50/50/161 101/146/164 75/138/145
f 46/46/162 45/45/157 104/144/160 107/147/163
s 4
f 56/56/178 57/57/173 114/152/176 118/155/179
f 54/54/174 59/59/169 111/150/172 115/153/175
f 53/53/170 61/61/165 108/148/168 112/151/171
s 6
f 51/51/182 17/17/143 74/137/146 120/157/183
s 3
f 11/11/132 3/3/221 130/171/222 67/132/133
s 5
f 16/16/140 6/6/223 119/156/224 73/136/141
s 7
f 3/3/225 12/12/193 124/161/194 130/171/226
s 4
f 52/52/166 63/63/135 69/133/138 109/149/167
s 5
f 5/5/227 13/13/139 72/135/142 123/160/228
