# This file uses centimeters as units for non-parametric coordinates.

mtllib z_lower.mtl
g default
v -1.800000 0.000000 -0.000000
v -1.800000 0.300000 -0.000000
v -0.401563 0.300000 -0.000000
v -1.800000 1.845313 -0.000000
v -1.800000 2.100000 -0.000000
v -0.100000 2.100000 -0.000000
v -0.100000 1.800000 -0.000000
v -1.373439 1.800000 -0.000000
v -0.000000 0.282814 -0.000000
v -0.000000 0.000000 -0.000000
v -1.078870 1.050000 -0.000000
v -0.694498 1.050000 -0.000000
v -0.900000 0.300000 -0.000000
v -0.900000 0.852455 -0.000000
v -0.900000 1.050000 -0.000000
v -0.900000 0.000000 -0.000000
v -0.900000 2.100000 -0.000000
v -0.900000 1.800000 -0.000000
v -0.900000 1.277010 -0.000000
v -1.800000 1.845313 -0.100000
v -1.800000 2.100000 -0.100000
v -1.373439 1.800000 -0.100000
v -1.800000 0.000000 -0.100000
v -1.800000 0.300000 -0.100000
v -0.900000 0.000000 -0.100000
v -0.401563 0.300000 -0.100000
v -0.900000 0.852455 -0.100000
v -0.694498 1.050000 -0.100000
v -0.100000 1.800000 -0.100000
v -0.900000 1.800000 -0.100000
v -0.900000 2.100000 -0.100000
v -0.900000 1.050000 -0.100000
v -1.078870 1.050000 -0.100000
v -0.900000 1.277010 -0.100000
v -0.900000 0.300000 -0.100000
v -0.000000 0.282814 -0.100000
v -0.000000 0.000000 -0.100000
v -0.100000 2.100000 -0.100000
vt 1.000000 0.000000
vt 1.000000 0.142857
vt 0.223090 0.142857
vt 1.000000 0.878721
vt 1.000000 1.000000
vt 0.055556 1.000000
vt 0.055556 0.857143
vt 0.763021 0.857143
vt 0.000000 0.134673
vt 0.000000 0.000000
vt 0.599372 0.500000
vt 0.385832 0.500000
vt 0.500000 0.142857
vt 0.500000 0.405931
vt 0.500000 0.500000
vt 0.500000 0.000000
vt 0.500000 1.000000
vt 0.500000 0.857143
vt 0.500000 0.608100
vt 1.000000 0.878721
vt 1.000000 1.000000
vt 0.763021 0.857143
vt 1.000000 0.000000
vt 1.000000 0.142857
vt 0.500000 0.000000
vt 0.223090 0.142857
vt 0.500000 0.405931
vt 0.385832 0.500000
vt 0.055556 0.857143
vt 0.500000 0.857143
vt 0.500000 1.000000
vt 0.500000 0.500000
vt 0.599372 0.500000
vt 0.500000 0.608100
vt 0.500000 0.142857
vt 0.000000 0.134673
vt 0.000000 0.000000
vt 0.055556 1.000000
vt 1.000000 0.878721
vt 1.000000 1.000000
vt 1.000000 0.000000
vt 1.000000 0.142857
vt 0.500000 0.000000
vt 0.223090 0.142857
vt 0.500000 0.405931
vt 0.055556 0.857143
vt 0.500000 0.857143
vt 0.599372 0.500000
vt 0.500000 0.608100
vt 0.385832 0.500000
vt 0.763021 0.857143
vt 0.500000 1.000000
vt 0.500000 0.142857
vt 0.000000 0.134673
vt 0.000000 0.000000
vt 0.055556 1.000000
vn -0.000000 -0.000000 -1.000000
vn -0.000000 0.000000 -1.000000
vn -0.000000 -0.000000 -1.000000
vn 0.000000 0.000000 -1.000000
vn 0.000000 0.000000 -1.000000
vn 0.000000 0.000000 -1.000000
vn -0.000000 -0.000000 -1.000000
vn -0.000000 -0.000000 -1.000000
vn -0.000000 -0.000000 -1.000000
vn 0.000000 0.000000 -1.000000
vn 0.000000 0.000000 -1.000000
vn 0.000000 0.000000 -1.000000
vn 0.000000 -0.000000 -1.000000
vn -0.000000 -0.000000 -1.000000
vn -0.000000 -0.000000 -1.000000
vn 0.000000 0.000000 -1.000000
vn 0.000000 -0.000000 -1.000000
vn 0.000000 0.000000 -1.000000
vn 0.000000 0.000000 -1.000000
vn -0.000000 0.000000 1.000000
vn -0.000000 0.000000 1.000000
vn -0.000000 0.000000 1.000000
vn -0.000000 0.000000 1.000000
vn -0.000000 -0.000000 1.000000
vn -0.000000 0.000000 1.000000
vn -0.000000 -0.000000 1.000000
vn -0.000000 0.000000 1.000000
vn -0.000000 0.000000 1.000000
vn -0.000000 0.000000 1.000000
vn -0.000000 0.000000 1.000000
vn -0.000000 0.000000 1.000000
vn -0.000000 0.000000 1.000000
vn -0.000000 0.000000 1.000000
vn -0.000000 0.000000 1.000000
vn -0.000000 0.000000 1.000000
vn -0.000000 0.000000 1.000000
vn -0.000000 -0.000000 1.000000
vn -0.000000 0.000000 1.000000
vn -1.000000 0.000000 0.000000
vn -1.000000 0.000000 0.000000
vn -1.000000 0.000000 0.000000
vn -1.000000 0.000000 0.000000
vn -1.000000 0.000000 0.000000
vn -1.000000 0.000000 0.000000
vn -1.000000 0.000000 0.000000
vn -1.000000 0.000000 0.000000
vn 0.000000 -1.000000 0.000000
vn 0.000000 -1.000000 0.000000
vn 0.000000 -1.000000 0.000000
vn 0.000000 -1.000000 0.000000
vn -0.742473 -0.669876 0.000000
vn -0.741874 -0.670539 0.000000
vn -0.741874 -0.670539 0.000000
vn -0.742473 -0.669876 0.000000
vn 0.000000 -1.000000 0.000000
vn 0.000000 -1.000000 0.000000
vn 0.000000 -1.000000 0.000000
vn 0.000000 -1.000000 0.000000
vn -0.741044 -0.671457 0.000000
vn -0.741044 -0.671457 0.000000
vn 0.741354 0.671114 -0.000000
vn 0.741354 0.671114 -0.000000
vn 0.741354 0.671114 -0.000000
vn 0.741354 0.671114 -0.000000
vn 0.000000 -1.000000 0.000000
vn 0.000000 -1.000000 0.000000
vn 0.741354 0.671114 0.000000
vn 0.741354 0.671114 0.000000
vn -0.740812 -0.671712 0.000000
vn -0.740812 -0.671712 0.000000
vn 0.000000 1.000000 0.000000
vn 0.000000 1.000000 0.000000
vn 0.000000 1.000000 0.000000
vn 0.000000 1.000000 0.000000
vn 0.000000 1.000000 0.000000
vn 0.000000 1.000000 0.000000
vn 0.000000 1.000000 0.000000
vn 0.000000 1.000000 0.000000
vn 0.000000 1.000000 0.000000
vn 0.000000 1.000000 0.000000
vn 1.000000 0.000000 0.000000
vn 1.000000 0.000000 0.000000
vn 1.000000 0.000000 0.000000
vn 1.000000 0.000000 0.000000
vn 0.741354 0.671114 0.000000
vn 0.741354 0.671114 0.000000
vn 0.000000 -1.000000 0.000000
vn 0.000000 -1.000000 0.000000
vn 0.000000 1.000000 0.000000
vn 0.000000 1.000000 0.000000
vn 1.000000 0.000000 0.000000
vn 1.000000 0.000000 0.000000
vn 1.000000 0.000000 0.000000
vn 1.000000 0.000000 0.000000
s 1
usemtl initialShadingGroup
f 20/39/1 21/40/2 22/8/3
f 23/41/4 24/42/5 25/43/6
f 26/44/7 27/45/8 28/12/9
f 29/46/10 30/47/11 31/17/12
f 32/15/13 27/45/8 33/48/14
f 34/49/15 28/50/9 32/15/13
f 31/17/12 30/47/11 22/51/3
f 34/49/15 32/15/13 33/48/14
f 22/51/3 34/49/15 33/48/14
f 33/48/14 20/39/1 22/51/3
f 22/51/3 21/40/2 31/52/12
f 24/42/5 35/53/16 25/43/6
f 25/43/6 35/53/16 26/44/7
f 27/45/8 32/15/13 28/50/9
f 36/54/17 37/55/18 26/44/7
f 28/50/9 36/54/17 26/44/7
f 26/44/7 37/55/18 25/43/6
f 31/52/12 38/56/19 29/46/10
s 2
f 4/20/20 8/22/21 5/21/22
f 1/23/23 16/25/24 2/24/25
f 3/26/26 12/28/27 14/27/28
f 7/29/29 17/31/30 18/30/31
f 15/32/32 11/33/33 14/27/28
f 19/34/34 15/32/32 12/28/27
f 17/31/30 8/22/21 18/30/31
f 19/34/34 11/33/33 15/32/32
f 8/22/21 11/33/33 19/34/34
f 11/33/33 8/22/21 4/20/20
f 8/22/21 17/31/30 5/21/22
f 2/24/25 16/25/24 13/35/35
f 16/25/24 3/26/26 13/35/35
f 14/27/28 12/28/27 15/32/32
f 9/36/36 3/26/26 10/37/37
f 12/28/27 3/26/26 9/36/36
f 3/26/26 16/25/24 10/37/37
f 17/31/30 7/29/29 6/38/38
s off
f 4/4/39 5/5/40 21/40/41 20/39/42
f 1/1/43 2/2/44 24/42/45 23/41/46
s 5
f 16/16/47 1/1/48 23/41/49 25/43/50
s 6
f 3/3/51 14/14/52 27/45/53 26/44/54
s 7
f 7/7/55 18/18/56 30/47/57 29/46/58
s 6
f 14/14/52 11/11/59 33/48/60 27/45/53
s 8
f 19/19/61 12/12/62 28/50/63 34/49/64
s 7
f 18/18/56 8/8/65 22/51/66 30/47/57
s 8
f 8/8/67 19/19/61 34/49/64 22/51/68
s 6
f 11/11/59 4/4/69 20/39/70 33/48/60
s 9
f 5/5/71 17/17/72 31/52/73 21/40/74
s 10
f 2/2/75 13/13/76 35/53/77 24/42/78
f 13/13/76 3/3/79 26/44/80 35/53/77
s off
f 9/9/81 10/10/82 37/55/83 36/54/84
s 8
f 12/12/62 9/9/85 36/54/86 28/50/63
s 5
f 10/10/87 16/16/47 25/43/50 37/55/88
s 9
f 17/17/72 6/6/89 38/56/90 31/52/73
s off
f 6/6/91 7/7/92 29/46/93 38/56/94
